This XML file does not appear to have any style information associated with it. The document tree is shown below.
<svg>
<metadata>
Created by FontForge 20120731 at Mon Sep 12 19:16:58 2016 By www Copyright (c) 2014 by Mans Greback. All rights reserved.
</metadata>
<defs>
<font id="NoteraPersonalUseOnly" horiz-adv-x="743">
<font-face font-family="Notera Personal Use Only" font-weight="400" font-stretch="normal" units-per-em="1000" panose-1="2 0 0 0 0 0 0 0 0 0" ascent="750" descent="-250" x-height="160.5" cap-height="551" bbox="-127.333 -333.629 1006.54 706" underline-thickness="50" underline-position="-50" unicode-range="U+000D-FB02"/>
<missing-glyph horiz-adv-x="600"/>
<glyph glyph-name=".notdef" horiz-adv-x="600"/>
<glyph glyph-name=".null" horiz-adv-x="0"/>
<glyph glyph-name=".null" horiz-adv-x="0"/>
<glyph glyph-name="nonmarkingreturn" unicode="
" horiz-adv-x="600"/>
<glyph glyph-name="space" unicode=" " horiz-adv-x="294"/>
<glyph glyph-name="r" unicode="r" horiz-adv-x="378" d="M0 86q21 11 41.5 22t44.5 25q-2 19 11.5 36t34.5 16q14 -2 18 -14t-4 -23q-8 -12 -21 -20q7 -4 17 -4q21 -2 44 7.5t41 20.5q18 6 23 -4t-4 -24q-5 -8 -11.5 -20.5t-11 -25.5t-5 -25t7.5 -19q5 -6 26.5 0t57.5 20q12 5 24.5 11.5t25.5 12.5q3 1 9 4.5t11.5 5t10 0 t4.5 -10.5q0 -5 -4.5 -9t-10 -7t-11.5 -5l-9 -3l-42 -19l-27.5 -15t-33.5 -15t-33 -6t-25 13q-5 7 -6 15.5t0.5 17t4 17t4.5 16.5l8 33q-5 -1 -20.5 -5t-33.5 -5.5t-34.5 0.5t-24.5 13l-8.5 -4.5t-19.5 -10.5t-22.5 -13t-18.5 -11q-6 -2 -14 -7.5t-14 -1.5t-6 11t6 10z"/>
<glyph glyph-name="zero" unicode="0" horiz-adv-x="868" d="M12 307q32 17 64 31.5t67 24.5q2 0 4 9.5t4 21t3.5 22.5t3.5 15q10 15 31 24t37 16q41 17 83 29t85 23q44 11 87.5 18.5t88.5 11.5q16 2 37.5 4t44 1.5t42.5 -5.5t32 -18q2 -2 0 -13.5t-3 -15.5l-3 -45q0 -2 2 -2q37 -11 71 -27t57 -48v-1q-8 2 -17.5 -1.5t-18.5 -9.5 t-17.5 -13t-12.5 -12q14 -8 22.5 -22t12.5 -31t3.5 -34t-5.5 -31q-8 20 -23.5 31t-34 16t-39.5 6.5t-39 2.5q-20 2 -43 1t-43 6q-8 3 -11 12t-3.5 20t1 22t2.5 17q-85 -6 -168.5 -25.5t-163.5 -47.5q-3 -2 -3 -3q1 -5 3.5 -16t5 -23t3 -22.5t-3.5 -13.5q-11 -8 -27 -10 t-30 -4q-18 -2 -36.5 -5t-36.5 -6q-32 -6 -60 -18q-7 -3 -13.5 -6t-13.5 -8q-3 -3 -8 -8.5t-8 -7.5q5 16 11.5 31t12.5 30q1 3 6 12t10 19t8.5 18t2.5 10q-11 16 -27 31t-36 17zM706 364q2 26 2 52t2 52q1 14 1.5 27t2.5 26q1 6 -2.5 10t-9.5 6.5t-12.5 3.5t-11.5 2 q-56 8 -115 0t-114 -19q-60 -12 -118.5 -28t-114.5 -41q-11 -5 -22 -10.5t-20 -13.5q-10 -8 -12 -23t-4 -26q-4 -31 -4 -61.5v-61.5q9 0 24 10t24 14q17 8 35 14t35 12q71 22 146 39q36 8 72 14.5t73 10.5q34 3 72.5 4.5t70.5 -13.5zM623 423l-7.5 -7.5t-8.5 -5.5 q-7 -2 -13 5q-8 -6 -14 -7q-14 -3 -20 9v1q-4 -4 -8 -7.5t-10 -5.5q-7 -3 -12 5q-3 6 -1.5 11t4 10.5t4 10.5t0.5 10q-8 -3 -11.5 -8.5t-5 -12t-2.5 -13.5t-4 -13q-3 -8 -12 -4q-3 1 -3 5q0 2 0.5 4t0.5 4q-7 -2 -9.5 -2t-7.5 -5t-11 -9t-14 -4q-5 1 -8 4t-5 7 q-8 -8 -19 -15.5t-22 -5.5q-7 1 -12 8q-5 -5 -10.5 -10t-12.5 -7q-14 -5 -16 10q-2 12 4 20t10 18q1 2 -1 2.5t-3 -1.5q-4 -9 -9 -20.5t-11.5 -21t-16 -16t-22.5 -5.5q-14 1 -16.5 10.5t2.5 21.5t14.5 21.5t19.5 10.5q6 0 8 -5q4 -6 1 -13q-3 -11 -12.5 -19t-20.5 -10 q1 -6 5 -6.5t8 1.5t8 5t6 5q11 10 16 21.5t10 23.5q2 3 -4 12t-4 15q4 13 16 11q5 0 7 -6q2 -5 1.5 -11t-1.5 -11q10 1 14 -0.5t-2 -12.5q-4 -8 -8.5 -16t-5.5 -17q0 -4 4 -4q10 -1 16 8.5t11.5 22t10.5 24t12 15.5q3 1 7 -1q3 -3 1 -6q-2 -5 -4.5 -9.5t-0.5 -10.5t5.5 -12 t2.5 -13h1q5 6 8.5 13.5l7 15t8 14t12.5 9.5q17 7 23 -9q4 -7 2.5 -12t-0.5 -13q4 1 7 4q7 6 8 16.5t4 18.5q1 3 4.5 3.5t6.5 -0.5q4 -2 3 -6v-1q5 5 11 8q10 4 14 -6q2 -6 0.5 -11t-4 -10t-4.5 -10t-1 -11q13 10 19 25.5t20 24.5q10 6 24 0q2 4 8.5 4.5t4.5 -6.5 q-2 -9 -7 -18.5t-5 -18.5q0 -6 4 -2q9 9 14 22t9.5 26.5t11 25t19.5 19.5q7 3 11 -4q6 -11 2 -22.5t-11 -19.5q-3 -4 -9 -9t-11.5 -11t-9 -12t-1.5 -12q2 -8 10 -6q7 2 10 8.5t7 11.5q3 3 6 1q4 0 4 -4l-2 -6q-8 -18 -25 -25q-12 -6 -20 7q-2 2 -2 5zM831 391 q-23 22 -51.5 35.5t-59.5 21.5q-1 -26 -1.5 -52.5t-2.5 -52.5l-1 1v-3q-12 -1 -29.5 -2t-34.5 -4t-32 -9.5t-23 -18.5q-3 -3 2 -4q25 -10 55.5 -8t56.5 0q27 -2 54 -9q14 -4 24 -11t22 -13q0 29 -9.5 49.5t-37.5 31.5q16 14 32 27t36 21zM144 352q-28 -7 -54 -17.5 t-52 -24.5q16 -10 28 -22.5t22 -27.5q1 -2 -1.5 -8t-6.5 -13t-7.5 -13.5t-4.5 -8.5l-10 -22t-9 -22q23 12 48 18t50.5 9.5l51 7t49.5 11.5q-8 9 -21.5 12t-29 3.5t-30.5 -1l-25 -2.5v60.5t2 60.5zM362 88q0 4 -4 10h26q13 -6 24 -24t16 -31q0 12 1.5 28t-6.5 27h35 q-5 -5 -5 -11.5v-13.5v-114v-15t5 -13h-96q5 6 6 16t0.5 21t-1.5 21t-1 18v81zM313 98q18 0 26 -9.5t10.5 -23.5t1.5 -30t-1 -28v-36q0 -23 -12.5 -32t-32.5 -8q-18 0 -26.5 9.5t-11 23.5t-1.5 30t1 28q0 9 -0.5 18t0.5 18q0 23 12.5 31.5t33.5 8.5zM263 453q6 0 9 -1 q17 -2 19 -21q3 -20 -10.5 -38.5t-30.5 -29.5q-9 -6 -13.5 -15t-8.5 -18t-9.5 -17.5t-15.5 -13.5q-11 -7 -25 -4t-12 18q0 10 7 17t17 9q2 1 6.5 -0.5t2.5 -6.5q-6 -4 -11 -4q-5 -2 -7 -7.5t1 -10.5q2 -2 8 -4q9 -1 15 5.5t10.5 15.5t6.5 19t4 16q-14 -12 -28 -16 q-13 -2 -21 5q-8 5 -8 17q0 13 6 24q14 29 41 46q10 6 24 11q5 2 10 5.5t10 4.5q4 0 3 -6zM361 209q-2 7 -5 18t-4 22.5t1 21.5t10 15q5 4 15 4.5t13 -7.5t-0.5 -10.5t-8.5 -1.5t-8.5 4t0.5 7q-8 -4 -8 -13.5t3 -20.5t7.5 -21t6.5 -16q6 -17 8.5 -40.5t-9.5 -39.5 q-5 -7 -16 -9t-23.5 -2t-24.5 1.5t-19 1.5q5 7 6.5 17.5t1 22t-1.5 22.5t-1 19v58v14.5t-5 13.5h35q-6 -6 -5.5 -15.5t0.5 -17.5v-65q0 -8 -0.5 -23t4.5 -22q4 -5 9 -5.5t9.5 2t8 7t4.5 8.5q3 12 1 25t-4 25zM556 231q-2 -4 -6.5 -14t-9 -21t-6 -21t4.5 -13q-2 6 3 6.5 t10 -2t6 -6.5t-8 -8q-11 -5 -16 4t-4 17q0 7 3 15t4 14.5t-2 10.5t-14 3v-73q8 0 20 -1t20 5q-2 -6 -3.5 -12t-3.5 -12h-64q5 5 5 11.5v13.5v114v14.5t-5 13.5h59q11 -12 11.5 -28t-4.5 -31zM473 285q0 -6 3.5 -13.5t6 -14.5t2 -13.5t-7.5 -12.5q-6 -5 -15 -4.5t-10 10.5 q0 5 3 7.5t7 2.5t7 -2.5t2 -6.5q6 1 6 6t-3.5 10t-8.5 9.5t-8 5.5q-7 2 -15.5 0.5t-11.5 -8.5q-6 -12 -2 -20.5t12 -15t17.5 -12.5t14.5 -13q7 -9 10.5 -22t2 -24.5t-9 -20.5t-22.5 -10q-13 -1 -25.5 -0.5t-24.5 0.5q4 1 2.5 8t-4 16t-4 18t2.5 14q5 6 15.5 7t12.5 -10 q0 -5 -3.5 -7.5t-7 -2.5t-6.5 2t-3 7q-6 -2 -6 -6.5t3.5 -10t8.5 -9.5t8 -5q6 -2 15.5 -1.5t14.5 5.5q10 10 8 19t-9.5 17t-17 14.5t-14.5 11.5q-8 7 -13.5 19.5t-5.5 24.5t6 22t20 13q12 2 25 1.5t25 -0.5zM134 -132l-19 -104h-20q-3 17 -5.5 34.5t-4.5 34.5 q-2 -17 -5 -34.5t-6 -34.5h-20l-18 104h21q2 -19 4 -38.5t5 -38.5q2 20 5 39l6 38h18l11 -77q3 40 9 77h19zM235 -132l-19 -104h-20q-3 17 -5.5 34.5t-4.5 34.5q-2 -17 -5 -34.5t-6 -34.5h-20l-18 104h21q2 -19 4 -38.5t5 -38.5q2 20 5 39l6 38h18l11 -77q3 40 9 77h19z M336 -132l-19 -104h-20q-3 17 -5.5 34.5t-4.5 34.5q-2 -17 -5 -34.5t-6 -34.5h-20l-18 104h21q2 -19 4 -38.5t5 -38.5q2 20 5 39l6 38h18l11 -77q3 40 9 77h19zM515 -187q7 -3 10 -9t4.5 -13t2.5 -14.5t4 -12.5h-24q-3 5 -4 12.5t-3 14t-6 10.5t-12 3v-40h-24v103q13 2 30 3 t28 -7q15 -11 11.5 -27t-17.5 -23zM707 -236h-24q-9 18 -17 36.5t-17 35.5q2 -18 2 -36v-36h-22v104h26l32 -70q-2 17 -2 35v35h22v-104zM459 -69q5 7 6.5 17.5t1 22t-1.5 22.5t-1 19v58v14.5t-5 13.5h35q-5 -5 -6.5 -14.5t-1 -20t1.5 -20.5t1 -16v-76h48q11 0 26.5 -1.5 t25.5 5.5q-2 -4 -3.5 -14t-6.5 -10h-120zM450 -236h-24l-7 24h-24l-5 -24h-25l28 104h30zM802 -232q-19 -7 -36.5 -4t-29.5 13.5t-15.5 27.5t6.5 37q6 14 19.5 20.5t28.5 6.5h5t8.5 -1t7.5 -2t3 -2l-4 -19q-12 6 -22.5 4t-17 -9t-9 -17t1.5 -22q6 -21 28 -19q5 1 4 10t-1 13 h-12v19h35v-56zM541 15q-11 20 -19 43q-4 11 -6 22t-11 18h37q-6 -13 0.5 -30.5t11.5 -28.5q6 14 11 29t0 30h37q-10 -6 -12 -18t-5 -22q-3 -9 -11 -22.5t-8 -22.5q0 -5 -0.5 -12t-0.5 -14t1 -13.5t5 -10.5h-35q8 8 6.5 24.5t-1.5 27.5zM325 58q0 7 -4.5 12.5t-10 7t-11 -1 t-6.5 -10.5q-1 -6 -0.5 -13t0.5 -13q0 -17 -1 -34.5t1 -34.5q0 -7 4.5 -12.5t9.5 -7t10 1t7 10.5q2 6 1.5 13t-0.5 13v69zM424 -54q-1 29 -9 59.5t-27 53.5v-107q0 -7 5.5 -11t12 -5t12 1.5t6.5 8.5zM245 439q-13 -3 -24.5 -11t-20.5 -18q-3 -3 -7.5 -11.5t-7.5 -18 t-1.5 -16.5t10.5 -7q14 0 23 9.5t14.5 22.5t8.5 27t5 23zM549 -132h24v-104h-24v104zM242 371q7 2 14 9t11.5 16t6.5 18.5t0 16.5q-3 10 -15 10q-6 -17 -9.5 -35t-7.5 -35zM521 270v-33q10 0 21.5 1t12.5 15q1 15 -11.5 16t-22.5 1zM599 455q-2 9 -7 7q-8 -4 -12.5 -11 t-6.5 -15q-2 -5 0.5 -12.5t10.5 -1.5q6 5 10 15t5 18zM456 421l2 -6q3 -9 11 -4q7 3 10.5 10.5t2.5 15.5q-1 5 -4.5 8t-10.5 -2q-9 -7 -11 -22zM328 -223q0 7 4.5 10.5t9.5 3.5t9.5 -3.5t4.5 -10.5t-4.5 -10.5t-9.5 -3.5t-9.5 3.5t-4.5 10.5zM587 -223q0 7 4.5 10.5t9.5 3.5 t9.5 -3.5t4.5 -10.5t-4.5 -10.5t-9.5 -3.5t-9.5 3.5t-4.5 10.5zM493 -178q9 0 12.5 5t3 10.5t-5.5 10t-13 3.5q-5 -1 -4 -12.5t1 -16.5h6zM417 -194q-2 11 -4.5 21.5t-5.5 21.5l-9 -43h19zM411 422q-3 -4 -7 -10.5t-3 -11.5q2 -6 8 -5t7 7q1 9 -5 20zM300 388q5 -1 13 7 t9 13q2 3 -1 5t-6 0q-5 -5 -8.5 -11.5t-6.5 -13.5zM666 507h-1q-17 -19 -23 -40q8 9 15 18.5t9 21.5zM358 442h1q0 3 1 6t-1 6q-2 0 -3 -3q-1 -4 2 -9z"/>
<glyph glyph-name="n" unicode="n" horiz-adv-x="454" d="M-2 85q11 6 38 20.5t55.5 27.5t52.5 18t30 -8q4 -10 -2.5 -19.5t-9.5 -17.5l-12 -28q13 8 26 14l26 12q32 17 66 36t69 29q13 3 23 0.5t15.5 -9t5.5 -17t-8 -22.5q-9 -14 -19.5 -25t-21.5 -24q-2 -3 -7 -8t-10.5 -11.5t-10 -13t-5.5 -11.5q7 -2 17.5 0t21 5.5t20 7.5 t14.5 6l41 18q4 2 10.5 6t13.5 7.5t13.5 6.5t10.5 3q9 0 9 -9t-8 -14q-9 -5 -19 -9.5t-21 -9.5q-14 -8 -27 -14t-27 -13q-8 -4 -25.5 -11.5t-35 -11t-30.5 1t-13 24.5q0 10 5 18t11.5 15.5t14 14.5t13.5 13q6 5 20 21t18 30q-27 -3 -54.5 -14t-50.5 -23q-29 -14 -60 -31.5 t-54 -41.5q-5 -4 -10.5 -4.5t-10.5 2t-7.5 7.5t-0.5 13q3 9 15 16q5 8 10 18.5t7 12.5q2 7 4 14.5t3 15.5q-11 -3 -22 -7t-17 -6q-14 -6 -28 -11.5t-28 -12.5q-8 -4 -14.5 -8t-14.5 -7q-6 -3 -11.5 -1.5t-8.5 4.5t-2.5 7.5t7.5 7.5z"/>
<glyph glyph-name="q" unicode="q" horiz-adv-x="331" d="M-23 -180q27 10 53.5 18.5t53.5 16.5l4 7q20 47 40.5 93.5t38.5 94.5q-16 -9 -33.5 -16t-33 -8t-28.5 5t-20 24q-7 16 -4 29q-5 -2 -10.5 -6t-11.5 -7t-12 -5.5t-12 -1.5q-9 0 -10.5 8.5t6.5 12.5q25 13 50.5 25t51.5 22q24 9 53.5 15t57.5 4q12 -1 19 -6t-1 -19 q-4 -5 -8.5 -6.5t-9.5 -1.5q-10 1 -18.5 1.5t-16.5 0.5q-2 0 -10 -0.5t-19 -2t-24 -4.5t-25 -9q-6 -3 -10.5 -9t-6 -12.5t1.5 -12.5t12 -9q22 -7 44.5 2.5t36.5 26.5q6 5 10.5 13t12.5 11q9 4 14 1t6.5 -8.5t0.5 -12.5t-4 -12q-24 -47 -46 -93t-44 -93q35 45 74 86 q18 20 38 37t42 34l43 29q5 2 10 4.5t10 -1.5q5 -2 5 -9t-5 -11q-93 -55 -163 -138q-25 -29 -44 -59l31 7q25 7 50.5 12t51.5 10q8 2 17 4t16 -5q7 -6 6 -15t-9 -14q-8 -4 -17.5 -4t-17.5 -1l-55 -7q-23 -4 -46.5 -8t-46.5 -9q-15 -24 -28.5 -50t-25.5 -52q-6 -14 -11.5 -28 t-13.5 -30q-5 -10 -16.5 -11.5t-16.5 14.5q-2 6 0.5 10.5t5.5 9.5l25 51q19 37 36 75l-53 -17q-4 -1 -10 -4t-12.5 -5t-12.5 -3t-9 2q-7 5 -5.5 11.5t8.5 8.5z"/>
<glyph glyph-name="z" unicode="z" horiz-adv-x="439" d="M-2 85q20 10 41.5 22.5t44 23.5t45 19t45.5 10q8 0 14 -2t10 -9q1 -4 0 -8t-2.5 -7t-2.5 -5.5t1 -3.5q7 -4 14.5 -4t13.5 1q32 4 62 19.5t56 34.5q10 4 16 1t7.5 -9.5t-1.5 -14.5t-10 -13q-16 -10 -32.5 -18.5t-32.5 -17.5q-37 -20 -75 -39t-75 -42q21 3 42 3 q16 0 32.5 -1.5t33.5 -6.5l15 -6t14 -4q6 -2 13.5 0t13.5 4q47 15 88 40q4 2 14.5 10.5t22.5 16t22 11.5t15 -2q4 -5 1.5 -10t-7.5 -9.5t-11 -8t-9 -5.5q-27 -17 -54 -34.5t-55 -31.5q-18 -10 -31 -13t-25 -1.5t-24.5 7t-29.5 12.5q-20 8 -41 9t-41 -4q-11 -3 -21 -6.5 t-19 -6.5q-11 -5 -22 -13t-22 -10q-11 -3 -16.5 6.5t-3.5 18.5q6 12 20 19t25 12q36 19 72 38.5t71 39.5q-18 0 -35 6t-22 22q-23 -1 -49 -11.5t-46 -18.5q-15 -8 -29.5 -15t-28.5 -15q-6 -3 -10.5 -1.5t-7 5.5t-1.5 8.5t7 7.5z"/>
<glyph glyph-name="y" unicode="y" horiz-adv-x="410" d="M-2 85q59 29 115 59q16 8 36 22t38 18q11 2 18 -8t-1 -20q-5 -9 -14.5 -16.5t-16.5 -15.5q-20 -24 -33 -51q-3 -5 -6 -12t-5 -14.5t-2 -13.5t4 -9q3 -3 13 1.5t22 11t22 13t12 8.5q21 14 39.5 29t35.5 32q4 4 11 7t13 2t9.5 -5.5t2.5 -13.5q-3 -11 -11 -22.5t-13 -20.5 q-8 -11 -14 -22t-13 -22l-78 -142q34 45 75 84q4 4 18 17t32 29t38.5 32.5t39 28.5t31.5 17t17 -2q3 -6 -5.5 -14.5t-21 -17t-25.5 -15.5t-17 -10q-23 -17 -44.5 -35.5t-41.5 -39.5q-39 -39 -73.5 -84.5t-64.5 -93.5l-22 -40t-21 -40q-4 -6 -7 -13t-8 -12q-8 -5 -17 -2 t-11 12q-3 8 1.5 14.5t8.5 12.5q14 25 27.5 49t27.5 50q28 51 54.5 101t52.5 103q6 14 13 27.5t13 27.5l-42 -32q-9 -8 -20 -17.5t-23 -17t-24.5 -10.5t-24.5 3q-17 6 -19.5 21t3 34.5t17 40.5t23.5 40l-50 -21q-17 -8 -34 -16.5t-34 -17.5q-6 -4 -13 -8t-15 0q-6 4 -5.5 11 t7.5 9z"/>
<glyph glyph-name="x" unicode="x" horiz-adv-x="398" d="M-6 -4q42 17 81 37.5t79 42.5q-9 19 -12 43q-35 -8 -68.5 -23t-63.5 -31q-5 -3 -10 -1t-7.5 5.5t-1.5 8t7 7.5q32 16 63.5 32.5t64.5 27.5q5 2 12.5 4.5t14.5 4t13 -0.5t8 -9q2 -8 -0.5 -24t1.5 -32l30 16q26 16 53 31t53 32q8 5 18 10.5t19 -2.5q8 -6 6.5 -15.5 t-10.5 -14.5q-41 -19 -80 -38.5t-79 -40.5q15 -23 41 -28.5t56 -0.5q17 4 40.5 11.5t56.5 27.5q5 2 12 7t12 5q8 0 9.5 -5.5t-0.5 -10.5q-3 -6 -10 -9.5t-12 -6.5l-74 -37q-15 -8 -31.5 -13.5t-32 -7t-31 2.5t-29.5 17q-8 8 -15 17t-14 19l-30 -16l-54 -30t-53 -32 q-8 -5 -17.5 -11.5t-19.5 0.5q-8 7 -6.5 17.5t11.5 13.5z"/>
<glyph glyph-name="w" unicode="w" horiz-adv-x="517" d="M0 86q19 8 37.5 16.5t38.5 16.5q19 8 40 15t38 20q8 6 21 7t17 -13q2 -13 -10.5 -22.5t-20.5 -16.5q-12 -11 -24 -23.5t-22 -26.5q-4 -7 -12.5 -19.5t-10.5 -23.5q38 2 75 24t63 51q3 7 7.5 15t10.5 15.5t13 12.5t15 5q12 0 16.5 -11t-3.5 -19q-7 -11 -17.5 -20 t-21.5 -18q-2 -11 -1 -23t13 -13q18 -2 35 7t40 25q-5 19 4 39q8 16 25.5 31.5t37.5 14.5q7 0 13 -5t8 -10q1 -6 -6.5 -16.5t-17.5 -22t-19.5 -21.5t-13.5 -13q8 -8 22.5 -8t25.5 2q26 2 52 9.5t49 18.5q5 3 9 1t6 -6t1.5 -8.5t-5.5 -7.5q-12 -7 -25.5 -10.5t-26.5 -7.5 q-24 -8 -50.5 -12t-52.5 1q-11 1 -21 10q-21 -20 -43.5 -34.5t-46.5 -12.5q-22 1 -29 18t-7 37l-22 -16q-22 -15 -44.5 -30.5t-49.5 -23.5q-9 -3 -19 -3t-18 3.5t-12.5 11.5t-1.5 21q5 16 15.5 29.5t21.5 26.5q8 10 18 22t18 23q-12 -4 -25 -8.5t-23 -9.5q-17 -8 -33 -15.5 t-32 -16.5q-6 -2 -13 -4t-12 6q-4 11 6 16z"/>
<glyph glyph-name="v" unicode="v" horiz-adv-x="395" d="M0 86q38 16 75 33t74 33q8 4 17.5 8.5t17.5 -0.5t9 -10t-2 -10t-7.5 -10t-8.5 -8q-11 -11 -19.5 -23t-16.5 -25q-4 -6 -7 -13l-6 -14q-7 -20 3.5 -21.5t27 5t32.5 16.5t20 13l9 7q-2 16 4 33t20 31q8 8 20 16t25 4q15 -4 14 -17t-7 -24q-8 -14 -19 -26t-24 -23 q12 -5 25.5 -5.5t27.5 2t27.5 6t24.5 7.5q11 2 20.5 6t18.5 9q8 4 14 -2.5t1 -13.5q-3 -6 -11.5 -10.5t-18 -7.5t-19 -5t-15.5 -3q-20 -5 -40.5 -8.5t-40.5 -1.5q-20 1 -32 12q-14 -12 -28.5 -21.5t-28.5 -17.5q-11 -7 -27 -12t-30 -3.5t-22 11t-1 32.5q11 40 36 81 q-14 -5 -27.5 -10t-27.5 -10q-16 -6 -30 -13t-28 -15q-6 -2 -13 -4t-12 6q-4 11 6 16z"/>
<glyph glyph-name="u" unicode="u" horiz-adv-x="470" d="M0 86q26 8 51 19.5t50 22.5q6 3 18.5 11.5t25.5 15.5t24.5 9.5t17.5 -6.5q5 -8 1.5 -15.5t-10.5 -15t-15 -14t-12 -10.5q-15 -15 -29 -33t-14 -38q18 0 38 9t35 15q48 22 95 50q26 16 47 32q9 6 18.5 0t7.5 -18q-2 -9 -8.5 -17.5t-11.5 -17.5q-5 -8 -9.5 -22t-0.5 -25 q11 -6 27 -1.5t26 7.5q43 15 80 34q7 3 17.5 8.5t15.5 -4.5q5 -9 -1.5 -13.5t-13.5 -7.5l-66 -31q-21 -9 -46 -20.5t-50 -5.5q-18 5 -20.5 20.5t2.5 29.5l15 36q-26 -12 -50.5 -25t-50.5 -24q-11 -6 -26 -14.5t-31.5 -16t-32.5 -11t-28 1.5q-12 4 -12.5 15.5t5.5 26.5t17 32 t23 33l-24 -11q-41 -15 -59 -23t-28 -10q-6 -2 -9.5 1t-5 7t0 8t6.5 6z"/>
<glyph glyph-name="t" unicode="t" horiz-adv-x="298" d="M89 209q18 -1 36 -0.5t36 2.5q28 43 60.5 89.5t73.5 78.5q8 5 16.5 10t17.5 6q10 0 15 -8t2 -17q-5 -20 -22 -38.5t-29 -33.5q-15 -20 -31.5 -39t-33.5 -37l59 14l99 30q7 3 14.5 4.5t13.5 -6.5t3 -16.5t-11 -11.5q-46 -16 -96 -25t-98 -15l-14 -3q-12 -11 -25 -22 t-27 -22q-7 -10 -12 -20.5t-10 -21.5q-2 -3 -6 -15t-7.5 -24.5t-5.5 -23t1 -10.5q21 -5 45.5 2.5t42.5 12.5l46 16t46 18q6 2 15.5 3t8.5 -12q-1 -9 -12.5 -12.5t-18.5 -6.5l-71 -26q-12 -5 -33.5 -14t-43 -14.5t-39 -1.5t-21.5 27q-2 23 8.5 45.5t24.5 48.5 q-46 -31 -96 -55q-6 -3 -10 -1t-6 6t-0.5 8.5t6.5 7.5q35 16 67.5 35t63.5 42l14 24q-15 -1 -33 -4t-29 3q-8 5 -5.5 14t11.5 9zM270 304q5 7 9.5 15t9.5 16q-10 -10 -18.5 -20t-14.5 -16q-18 -20 -35 -40.5t-31 -43.5q45 41 80 89z"/>
<glyph glyph-name="s" unicode="s" horiz-adv-x="316" d="M-2 85q7 4 25.5 14.5t41 21.5t45.5 20.5t40 10.5q6 2 12.5 -0.5t9.5 -6.5q6 -10 1 -15.5t-13 -9.5t-17.5 -6.5t-12.5 -6.5q-5 -6 2.5 -11t18.5 -8t22 -5.5t14 -4.5q20 -11 23.5 -23.5t-4.5 -25.5l27 14l80 42q7 4 12.5 0.5t5.5 -11.5t-8.5 -11.5t-15.5 -6.5 q-24 -11 -48.5 -23.5t-48.5 -25.5q-29 -14 -55.5 -25t-54.5 -11q-20 0 -35.5 14t-15.5 32q-1 9 4 14.5t12 7t12.5 -2.5t6.5 -13q2 -20 17.5 -23.5t36.5 1.5q14 5 25.5 12.5t16.5 14.5q13 14 7 22t-20.5 13t-30.5 8.5t-22 8.5q-9 8 -10.5 16t0.5 16q-15 -6 -29.5 -12.5 t-26.5 -11.5q-9 -5 -21.5 -14.5t-22.5 -9.5q-5 -1 -8.5 1.5t-4 6t1 7.5t5.5 6z"/>
<glyph glyph-name="p" unicode="p" horiz-adv-x="409" d="M0 86q26 11 50.5 24.5t50.5 26.5q6 3 17.5 8t22 6.5t16 -3t1.5 -20.5q-3 -12 -11.5 -25t-14.5 -26l-25 -51q-4 -6 -7 -12l-6 -12q30 34 62 66t68 59q21 16 48 30.5t54 10.5q16 -3 19.5 -13t0 -22t-10.5 -24t-12 -19l-42 -53q22 5 43 12t43 16q4 2 13.5 7.5t19.5 10 t17.5 4t7.5 -10.5q0 -7 -8.5 -13t-19.5 -11t-22 -9t-16 -6q-6 -3 -29.5 -11t-51 -17t-52 -16.5t-32.5 -8.5q-7 0 -10.5 5.5t-3 12.5t6.5 13.5t18 7.5q17 0 30 9.5t25 21.5q21 20 35 44q3 5 9 15.5t8 19.5q-16 -1 -31.5 -8t-30.5 -16.5t-28.5 -20.5t-24.5 -20 q-32 -25 -60.5 -54t-54.5 -60l-28 -32l-67 -139q-6 -11 -15 -31t-20.5 -39t-25 -31.5t-29.5 -9.5q-12 3 -15.5 11.5t-1 20t8.5 24t13 24.5t13 21t9 13q26 39 55 76.5t58 73.5q22 45 41 89t37 89q-19 -5 -37.5 -15t-34.5 -17q-8 -4 -18.5 -12t-20.5 -6q-9 0 -11 9.5t7 12.5z "/>
<glyph glyph-name="g" unicode="g" horiz-adv-x="331" d="M0 85q26 13 51 25t51 22q28 10 55.5 15t57.5 5q11 0 17 -5.5t1 -18.5q-6 -10 -18 -10q-26 2 -52.5 0t-50.5 -12q-8 -3 -17 -9t-16.5 -13.5t-10.5 -16.5t2 -19q8 -17 30.5 -20t38.5 1q13 3 23 8l18 9t14.5 5.5t13.5 -4.5q7 -10 0.5 -23t-10.5 -22l-14 -33q27 28 57 53.5 t64 45.5q3 2 8 6t11 7.5t12 5t10 -1.5q7 -5 5 -10t-7 -10q-26 -14 -50 -30t-47 -36q-26 -22 -49.5 -47t-43.5 -52l-26 -60q-12 -30 -24 -61t-26 -61q-3 -6 -7.5 -14.5t-10 -16t-13 -12t-16.5 -3.5q-12 2 -15.5 11t-2 20t5 22t6.5 18q19 45 47.5 87.5t60.5 80.5l34 97 q-18 -5 -38.5 -7.5t-38.5 -0.5t-32.5 10t-21.5 26q-9 23 1 42q-8 -5 -16.5 -10.5t-14.5 -3.5q-10 0 -12 8.5t6 12.5z"/>
<glyph glyph-name="o" unicode="o" horiz-adv-x="392" d="M104 131q20 8 41.5 14t41.5 12q13 7 29 11t29 -4q8 -6 6 -16q7 1 14 -4q13 -13 9 -31t-15 -35q4 -5 12 -10q16 -10 35 -9t36 6q5 1 15 6t20.5 9.5t19.5 6t12 -4.5q4 -8 -1 -13.5t-13.5 -9t-17.5 -6.5l-12 -4q-15 -5 -31.5 -8t-32.5 -3t-31 4.5t-26 15.5l-22 -23 q-12 -11 -27 -22t-31.5 -18.5t-34.5 -9.5t-34 5q-20 9 -23.5 23.5t2.5 30.5t17 31t21 25l19 19q-23 -8 -45 -18t-44 -21q-4 -2 -10 -5.5t-12 -6.5t-11.5 -4.5t-9.5 1.5q-7 4 -6 11t7 10zM138 96q-4 -4 -14.5 -15t-18.5 -23t-9.5 -22.5t12.5 -12.5q26 -4 49.5 2t42.5 23 l15 15t12 16q-5 13 -5.5 28t7.5 26q-28 -2 -50.5 -12t-40.5 -25z"/>
<glyph glyph-name="m" unicode="m" horiz-adv-x="596" d="M-2 85q23 13 46 24l46 22q7 3 19.5 9.5t26.5 12.5t27 9t21 -1q9 -6 8.5 -14t-6 -17t-12.5 -17t-10 -13q-5 -8 -9.5 -17t-9.5 -18q23 18 40.5 31.5t31.5 23.5t26.5 17t25.5 12q15 6 29 0.5t10 -25.5q-2 -14 -7 -26.5t-12 -24.5q22 13 44 26.5t45 27.5q19 12 40.5 25 t44.5 16q15 2 24 -3.5t12 -15t1 -21t-8 -21.5q-13 -21 -26 -39.5t-24 -38.5q16 -3 37.5 4t34.5 13q14 5 26 10.5t25 11.5q4 2 9.5 6t12 7.5t12.5 5t11 -0.5q10 -5 5 -12t-15.5 -13.5t-22 -11.5t-15.5 -7q-14 -8 -28 -14l-28 -12q-19 -8 -42 -17t-43 0q-11 5 -14 13 t-1.5 16.5t7 17.5t11.5 15q6 7 14.5 15t16 17t12 18.5t2.5 20.5q-10 5 -24.5 -1t-22.5 -10q-30 -11 -58 -29t-54 -36q-4 -3 -14 -11.5t-21 -15.5t-21.5 -9t-14.5 9q-2 5 1 12t8 14.5t10 14.5t7 12t5.5 14t5.5 18q-23 -7 -43 -18.5t-38.5 -25t-36.5 -29t-37 -29.5 q-5 -5 -12 -8t-14 1q-9 4 -10 9.5t2 11t8 10.5l8 8q28 36 45 80q-22 -5 -42.5 -13.5t-39.5 -16.5q-14 -7 -28 -13.5t-28 -15.5q-5 -3 -10 -1.5t-7 5t-1.5 8.5t6.5 8z"/>
<glyph glyph-name="k" unicode="k" horiz-adv-x="449" d="M-2 85q56 28 107.5 64t99.5 75l17 15q15 29 31.5 58t35.5 56q12 17 26.5 33.5t34.5 25.5q6 3 14.5 4t15.5 -0.5t12 -6.5t4 -15q-1 -9 -5.5 -17.5t-11 -16t-13.5 -15t-13 -13.5q-17 -17 -34.5 -34t-35.5 -34q-11 -10 -22 -20.5t-22 -19.5l-60 -118l20 14t21 13 q13 8 29.5 18t34.5 17.5t36.5 9t33.5 -7.5q9 -5 11 -12t0 -14.5t-7 -14.5t-11 -13q-28 -24 -64.5 -35t-73.5 -11q17 -20 40 -32.5t50 -8.5q35 5 68 17.5t64 29.5q5 3 13 8.5t16 1.5q5 -3 5.5 -9.5t-5.5 -10.5q-4 -3 -7.5 -4.5t-7.5 -3.5q-14 -8 -28 -15t-28 -13 q-22 -11 -44 -21t-44 -13t-44 2.5t-43 25.5q-11 10 -20.5 22t-17.5 24q-10 -9 -19 -19t-17 -20q-3 -5 -6.5 -9t-8.5 -9q-8 -8 -16.5 -10.5t-13.5 14.5q-3 7 0 12t7 11l32 45q15 22 27.5 44t25.5 44l10 17q-19 -15 -38 -28.5t-38 -27.5q-22 -15 -43.5 -28.5t-45.5 -27.5 q-5 -4 -13.5 -10t-16.5 -4q-9 0 -11 8.5t7 12.5zM212 94q32 1 59.5 13.5t48.5 35.5q-9 0 -18.5 -2.5t-17.5 -4.5q-9 -2 -22 -8.5t-25.5 -13.5t-22 -13t-11.5 -7h9zM300 312q12 13 26 28.5t24 32.5q-25 -14 -45 -38.5t-35 -52.5z"/>
<glyph glyph-name="j" unicode="j" horiz-adv-x="252" d="M0 86q26 11 50.5 24.5t50.5 27.5q6 3 17.5 7.5t22 6t16 -3.5t1.5 -20q-23 -43 -44 -86.5t-43 -87.5q28 27 58.5 51t62.5 45q4 2 17.5 11.5t28 17t25.5 10t11 -9.5q0 -10 -11.5 -14.5t-17.5 -8.5q-14 -7 -29 -17t-28 -19q-42 -28 -78.5 -60t-69.5 -68q-22 -47 -44.5 -94 t-50.5 -91q-4 -6 -9.5 -13t-12.5 -13t-15 -8.5t-17 2.5q-8 4 -10.5 12t-1 16.5t5 17.5t6.5 15q23 47 58 89t73 80q25 51 49 102.5t44 105.5q-19 -5 -37 -14.5t-35 -16.5q-8 -4 -18.5 -12t-20.5 -6q-9 0 -11 9.5t7 12.5zM162 317q12 17 33 25t41 10q17 1 33.5 -2t32.5 -7 q6 -2 11 -3.5t6 -7.5q2 -7 -2.5 -12t-11.5 -3q-26 7 -52 10t-49 -15q-5 -4 -9.5 -11.5t-10.5 -10.5q-6 -2 -11.5 -0.5t-9 6t-4.5 10t3 11.5z"/>
<glyph glyph-name="h" unicode="h" horiz-adv-x="461" d="M2 86q63 30 122 65t102 77l36 65q17 29 37 59.5t48 49.5q7 4 20 8.5t24.5 4.5t18 -6.5t0.5 -24.5q-5 -14 -14.5 -26.5t-21 -24.5t-23.5 -22.5t-21 -20.5q-21 -20 -43 -40t-45 -38q-6 -11 -11.5 -21.5t-10.5 -21.5l-18 -34t-20 -34q31 18 63.5 33.5t64.5 29.5 q11 6 25.5 10t28.5 0q15 -5 19 -19t-4 -28q-6 -12 -15.5 -24t-19.5 -24.5t-17 -26t-7 -26.5q26 3 54.5 15.5t51.5 24.5q8 4 18.5 10.5t18.5 9.5q5 3 9.5 1t7 -5.5t2 -8.5t-6.5 -8q-22 -13 -45 -23.5t-45 -23.5q-9 -5 -21 -12t-24.5 -11t-25 -3t-21.5 12q-7 9 -6.5 19t5 19.5 t11 18.5t11.5 16q11 14 21.5 30t12.5 33q-8 1 -17.5 -1t-19.5 -5.5t-19.5 -7.5t-16.5 -6q-22 -10 -42.5 -21.5t-40.5 -24.5q-32 -23 -45 -34.5t-19 -16.5q-5 -5 -11.5 -7t-14.5 4q-8 7 -7 13.5t6 12.5q29 30 53.5 64t44.5 70q-27 -21 -54.5 -39t-55.5 -35q-17 -11 -33.5 -20 t-33.5 -18q-5 -2 -10.5 -4.5t-10.5 1.5t-5 11t6 10zM319 313q13 13 26.5 28t22.5 33q-23 -11 -41 -30.5t-32 -39.5l-21 -35q11 11 22.5 22t22.5 22z"/>
<glyph glyph-name="f" unicode="f" horiz-adv-x="276" d="M2 86q44 20 85 46t79 55q19 36 37.5 73t40.5 72q8 15 18.5 32.5t24 33t29.5 26t36 10.5q21 0 25.5 -11t0 -25.5t-13.5 -29t-15 -21.5q-25 -37 -55 -70t-64 -62q-11 -11 -23 -21t-23 -20l-40 -76q-1 -29 11.5 -40t35.5 -8q14 3 27 7.5t26 9.5q9 4 21 12.5t22 8.5 q9 0 11.5 -9.5t-6.5 -13.5l-47 -22q-21 -8 -46 -15.5t-48 -1.5q-19 7 -31 27q-20 -39 -41.5 -76.5t-44.5 -74.5q-3 -5 -11.5 -18t-18 -24t-19.5 -15t-17 9q-4 7 -4 17t2 20.5t5 20.5t5 17q7 21 22 47t35.5 51t44 46.5t47.5 33.5l9.5 19t9.5 18l-42 -29q-18 -11 -36.5 -22 t-37.5 -21l-14 -7t-14 0q-5 4 -4.5 11t6.5 10zM290 308q23 26 38 51q5 7 10 17.5t6 20.5q-11 -4 -20.5 -12.5t-17.5 -16.5q-19 -20 -34.5 -42t-29.5 -45q-8 -14 -15.5 -27.5t-15.5 -27.5q21 19 41 39t38 43zM-4 -97q29 32 53.5 70t46.5 77q-37 -26 -66.5 -65.5t-33.5 -81.5z "/>
<glyph glyph-name="d" unicode="d" horiz-adv-x="402" d="M2 86q26 9 49.5 22t48.5 24q16 8 33 13l34 10q20 7 43 7q9 0 15 -8t1 -17q-3 -6 -9 -8.5t-13.5 -3t-15 -0.5h-13.5q-14 -1 -28.5 -8.5t-27.5 -18.5q-17 -12 -31 -32q-1 -2 -4.5 -8.5t-6.5 -13.5t-4.5 -13t1.5 -9t9.5 -1.5t13 5t12 7t7.5 4.5q17 10 32 21t31 22l47 42 q17 35 36 69.5t39 68.5l28 46t30 46q15 21 33 43.5t42 34.5q7 2 13.5 4t13.5 0q11 -2 16 -8t5.5 -14.5t-2 -18t-6.5 -16.5q-17 -29 -38.5 -55t-43.5 -52q-34 -41 -68.5 -79.5t-72.5 -74.5q-5 -14 -9.5 -27t-9.5 -27q-2 -5 -4.5 -12t-5 -15t-4 -16t-0.5 -13q18 1 36.5 8 t34.5 14q28 11 56.5 26.5t54.5 29.5q3 2 8.5 2.5t10 -0.5t5.5 -5t-3 -11q-5 -8 -15 -11.5t-17 -6.5q-28 -14 -56 -29t-55 -30q-8 -4 -18 -9.5t-21 -9.5t-21.5 -4t-19.5 6q-9 7 -11.5 17t-1 21.5t5 22t6.5 18.5q1 4 2 7.5t3 8.5l-50 -43q-8 -8 -18 -16.5t-21.5 -15 t-23.5 -9.5t-24 0q-20 6 -24.5 19t1 29t17.5 32.5t26 30.5l-25 -10q-10 -5 -24 -13.5t-25 -9.5q-6 -3 -10 -0.5t-5.5 6.5t-0.5 8.5t7 6.5zM286 184q26 27 51 55.5t48 58.5q10 14 20 27.5t19 28.5q3 6 11.5 19t10.5 24q-14 -5 -26 -19t-19 -22q-23 -25 -43 -52t-38 -56 l-40 -70z"/>
<glyph glyph-name="b" unicode="b" horiz-adv-x="371" d="M2 86q50 22 96 52t88 65q14 26 29.5 51.5t31.5 51.5q28 46 63 90q14 18 32 38t41 26q9 2 18 0t14 -11t3 -18.5t-7 -19t-11.5 -18t-11.5 -15.5q-44 -51 -88.5 -98.5t-95.5 -89.5l-20 -45q-3 -7 -10.5 -25.5t-13.5 -38.5t-7 -37.5t9 -21.5q22 0 40 11.5t32 27.5q1 2 4 5 t6 8q-8 18 -4.5 40t16.5 37q12 16 27.5 13.5t15.5 -25.5q0 -17 -8 -34.5t-19 -32.5q2 -2 4 -3.5t5 -2.5q11 -5 23.5 -4.5t23.5 4.5q12 3 27.5 12.5t27.5 9.5q10 0 11.5 -9.5t-6.5 -13.5q-24 -11 -46 -18q-21 -7 -44 -7.5t-40 13.5q-15 -19 -35 -37.5t-43 -26.5 q-17 -5 -33 -0.5t-23 22.5q-8 23 0.5 48.5t17.5 46.5q5 12 10.5 25t11.5 26q-20 -14 -41 -28t-41 -27l-62 -34q-5 -2 -9.5 -4.5t-9.5 1.5q-6 4 -5.5 11t6.5 10zM323 336q16 19 31.5 39.5t23.5 44.5q-8 -5 -16 -12.5t-14 -12.5q-17 -17 -32.5 -35t-29.5 -37 q-15 -20 -27.5 -40t-25.5 -41q23 22 45.5 46t44.5 48z"/>
<glyph glyph-name="l" unicode="l" horiz-adv-x="294" d="M0 86q31 14 60 31t58 37q14 28 31 54t33 51q17 23 34 46.5t35 46.5q15 20 32.5 40.5t40.5 33.5q11 6 27 8.5t22 -14.5q4 -11 0.5 -21.5t-10.5 -21t-15 -20t-13 -16.5q-40 -57 -89.5 -106.5t-106.5 -91.5q-5 -12 -11.5 -25.5t-11.5 -28.5t-7 -29.5t1 -27.5q11 2 20 3 q8 1 15 1.5t9 1.5q30 6 59 16t57 22q8 2 19 8t19 1q11 -8 3 -14.5t-15 -9.5l-116 -43q-17 -6 -33 -12.5t-33 -7.5q-15 -2 -24 4.5t-12.5 17t-2.5 23t4 23.5q7 24 18 48q-41 -27 -86 -49q-10 -2 -16.5 6.5t5.5 14.5zM203 223q47 44 86 95q18 21 34 48q2 5 6 12.5t7 15.5 q-14 -7 -26.5 -19t-20.5 -20q-23 -23 -43 -48.5t-40 -52.5q-11 -16 -21 -31.5t-19 -31.5q9 7 18.5 15.5t18.5 16.5z"/>
<glyph glyph-name="c" unicode="c" horiz-adv-x="356" d="M2 86q26 11 49.5 25t48.5 26q9 4 17 8t17 6q17 7 40 12t41 3q7 -2 11.5 -7.5t5 -11.5t-3 -11t-12.5 -6q-6 -2 -13.5 -0.5t-15.5 2.5q-14 1 -27.5 -1t-26.5 -9q-20 -9 -29 -27.5t6 -38.5q15 -18 37 -23.5t46.5 -3t48.5 9.5t42 13q23 7 42 17t33 17q7 5 13.5 -1.5 t1.5 -14.5q-3 -8 -13.5 -12t-18.5 -6q-41 -20 -86 -37t-92 -17q-21 -1 -40 7t-32 22t-17.5 33.5t5.5 41.5v1q-11 -6 -21.5 -13t-21.5 -12q-6 -4 -14.5 -10t-16.5 -4q-9 0 -10.5 9.5t6.5 12.5z"/>
<glyph glyph-name="ring" unicode="˚" horiz-adv-x="184" d="M52 298q-17 5 -22.5 19.5t-3 31.5t12.5 34t24.5 28t32 12.5t35.5 -11.5q21 -17 19.5 -40t-16.5 -42t-38 -29.5t-44 -2.5zM59 319q10 -3 22.5 4t22 18t12 22.5t-6.5 18.5q-12 10 -25 3t-22 -20.5t-11.5 -27.5t8.5 -18z"/>
<glyph glyph-name="dieresis" unicode="¨" horiz-adv-x="197" d="M140 340q-8 -11 -18.5 -26t-21.5 -21q-4 -5 -9 -4t-8 4.5t-3.5 8.5t4.5 9q13 10 22.5 24t17.5 29q3 5 6 12t6.5 14t8.5 11.5t12 4.5q11 -2 15.5 -11.5t-2.5 -17.5zM83 364q-8 -17 -20 -33t-26 -29q-5 -3 -11 -8t-14 -2q-6 3 -7 6.5t1 7t5.5 6.5t6.5 5q8 5 13.5 13.5 t9.5 16.5t4.5 18.5t6.5 18.5q5 7 12 8t12.5 -3t8 -11t-1.5 -14z"/>
<glyph glyph-name="acute" unicode="´" horiz-adv-x="202" d="M181 373q-7 -15 -28 -23.5t-37 -13.5q-14 -5 -27 -8.5t-27 -7.5q-4 -1 -10.5 -3.5t-14 -4.5t-14.5 -2.5t-11 2.5q-8 8 1 15t24 12t30 8t18 5q7 3 17 7t19.5 9t17.5 10t10 10q3 8 10 9.5t13 -1t9.5 -9t-0.5 -14.5z"/>
<glyph glyph-name="grave" unicode="`" horiz-adv-x="197" d="M48 390q3 -5 11.5 -11t19 -11.5t21.5 -10.5t19 -8q14 -5 30 -8t27 -11q8 -2 9.5 -8t-3.5 -11q-5 -7 -13 -4t-14 5q-31 10 -63.5 20t-59.5 28q-5 4 -10.5 9t-7.5 13q-1 7 3 11.5t10 6t12 -0.5t9 -9z"/>
<glyph glyph-name="cedilla" unicode="¸" horiz-adv-x="232" d="M146 -25q21 -5 41.5 -15t22.5 -28q1 -9 -3 -16.5t-11 -13t-14.5 -9.5t-14.5 -7q-35 -13 -72 -18.5t-73 -10.5q-13 -2 -19 10t3 20q8 8 23.5 6.5t25.5 -0.5q13 0 31.5 1t37 4t34.5 9t26 17q5 6 -5 10t-25 7t-28.5 4.5t-15.5 1.5q-12 5 -12.5 12t4 14.5t12 14t12.5 10.5 l25 22q4 4 9.5 4.5t9 -1.5t5 -6t-2.5 -10z"/>
<glyph glyph-name="tilde" unicode="˜" horiz-adv-x="268" d="M17 347q18 14 37.5 29.5t42.5 20.5q14 3 21.5 -2t12 -14t6.5 -19.5t5 -19.5t11.5 -7t18 9t18.5 15.5t12 11.5q5 5 11 12t15 6q11 -1 15.5 -11.5t-3.5 -18.5q-7 -7 -16.5 -14.5t-21 -14.5t-23 -12t-21.5 -8q-14 -3 -22 2t-12.5 14t-6.5 20.5t-5 20.5q-3 8 -12 5 t-18.5 -10.5t-18 -16l-11.5 -11.5q-7 -8 -14 -15.5t-18 -2.5q-10 5 -10.5 14.5t7.5 16.5z"/>
<glyph glyph-name="ogonek" unicode="˛" horiz-adv-x="275" d="M240 25q-29 -11 -57 -24.5t-55 -29.5q-3 -2 -17 -11.5t-28.5 -21t-24.5 -23t-5 -17.5q8 -9 20.5 -8.5t25.5 6t25 13t18 12.5q4 3 9 8t11 7.5t11.5 1.5t10.5 -9q7 -15 -5 -22t-22 -11q-12 -5 -26.5 -13t-30 -14t-31 -8t-28.5 3q-16 6 -20.5 17t-2.5 23t10 23.5t18 19.5 q27 21 57.5 37t60.5 32l66 31q6 3 10 0.5t6 -6.5t0.5 -9t-6.5 -7z"/>
<glyph glyph-name="caron" unicode="ˇ" horiz-adv-x="226" d="M192 390q-18 -5 -36 -13.5t-35 -17.5l-41 -23q-6 -5 -14 -11.5t-16 -8.5q-10 -3 -15 4.5t-7.5 19t-3.5 23t-1 16.5q-2 7 -4 15t-1 15q-2 7 1.5 10t8 2t9 -4.5t6.5 -8.5q4 -13 7.5 -26t8.5 -26q24 8 47 20.5t44 26.5q9 5 20 14.5t22 7.5q13 -4 13.5 -17.5t-13.5 -17.5z "/>
<glyph glyph-name="breve" unicode="˘" horiz-adv-x="250" d="M218 394q-16 -12 -35 -27t-40 -27t-43 -19t-44 -4q-23 5 -31.5 23.5t-2.5 38.5q4 15 14 33q2 3 6 6t8 4t7.5 -1t3.5 -9q1 -5 -1.5 -13t-5 -16.5t-3 -16.5t4.5 -12q6 -4 16 -4.5t21 1.5t21 5t16 6q18 9 35 24t27 32q5 9 13 8.5t14 -5.5t7 -13t-8 -14z"/>
<glyph glyph-name="circumflex" unicode="ˆ" horiz-adv-x="226" d="M20 355q21 8 40 18t38 22q5 3 13.5 10.5t17.5 14.5t17.5 9.5t14.5 -3.5q11 -11 16 -31t10 -34q2 -5 6 -13.5t3 -15.5q-2 -14 -12.5 -9t-14.5 13l-29 53q-21 -9 -41.5 -21t-39.5 -26q-4 -3 -8.5 -8t-10 -8.5t-11 -5t-11.5 1.5q-11 5 -10 17t12 16z"/>
<glyph glyph-name="Z" unicode="Z" horiz-adv-x="744" d="M188 362q22 22 39.5 44.5t32 44.5t28 42.5t28.5 39.5q4 5 8.5 10t9.5 7t9.5 -0.5t8.5 -11.5q1 -4 -2 -12t-7.5 -17.5t-9 -18t-5.5 -14.5q-4 -25 7.5 -39t31 -20.5t42 -7.5t39.5 1q48 5 93 22t89 40l40 22q9 6 18.5 13.5t18.5 9.5q7 2 13 -1.5t8 -11.5q3 -8 0 -13t-8 -7 q-81 -88 -167.5 -168.5t-180.5 -153.5q-30 -23 -59.5 -45t-60.5 -43q19 2 39 -0.5t37 -12.5q12 -7 21.5 -16.5t18.5 -19.5t18 -19.5t20 -16.5q16 -10 36.5 -12t41.5 1t41.5 9t37.5 12q25 10 50 21.5t49 23.5q6 3 21.5 12.5t32 18t31 12.5t17.5 -3q4 -7 -4 -14.5t-20.5 -14 t-25.5 -11.5t-17 -7q-27 -14 -54 -27t-55 -26q-19 -8 -39.5 -18t-41.5 -16.5t-43 -8t-43 6.5q-24 11 -40 29t-33 37q-37 44 -95 38q-14 -2 -28.5 -5.5t-28.5 -8.5q-35 -20 -60.5 -34.5t-51.5 -27.5q-7 -3 -17 -9t-21 -11.5t-21.5 -8t-17.5 2.5q-4 2 -6 7.5t-1 8.5 q2 11 11.5 16.5t20.5 10.5q33 15 66 31t70 30q50 28 96.5 60t91.5 67q158 120 287 267q-29 -14 -58 -25.5t-58 -21.5q-20 -7 -43.5 -14.5t-48 -11t-48 -1.5t-44.5 14q-23 12 -32 34t-7 45q-15 -17 -27.5 -35t-25.5 -35l-19 -31q-5 -8 -9.5 -18.5t-12.5 -13.5q-7 -4 -13 -2 t-9.5 7t-4 11.5t4.5 11.5z"/>
<glyph glyph-name="Y" unicode="Y" horiz-adv-x="641" d="M68 293q38 34 76.5 67t77.5 65q14 12 30 26.5t33 26.5t35.5 21t38.5 11q28 3 39 -16.5t6 -43.5q-6 -26 -21 -50t-31 -46q-2 -3 -14.5 -20t-28.5 -40.5t-32.5 -50.5t-28 -50t-15 -39t7.5 -17q15 -2 35 4.5t40.5 17t37.5 22t26 18.5q48 32 89.5 69.5t80.5 79.5l26 28 q14 24 29.5 48t30.5 49q8 11 17 24.5t19 26t21.5 21.5t24.5 12q12 3 17.5 -1.5t5 -12t-5 -16.5t-11.5 -16l-42 -48l-76 -87q-10 -16 -19.5 -30.5t-18.5 -29.5l-78 -123q-20 -30 -39 -64t-40 -67t-45 -63t-54 -52q32 7 62 17.5t59 23.5q54 23 105 47t103 51q5 3 9 1t6 -5.5 t1.5 -8t-5.5 -7.5l-44 -20l-110 -56q-53 -23 -104 -45t-107 -33q-57 -9 -112 1.5t-103 42.5q-6 4 -17.5 11t-22.5 15.5t-19 18t-8 18.5q0 16 8 16t21 -5q1 0 8.5 -5t15.5 -11t15.5 -11.5t10.5 -7.5q22 -15 46.5 -27.5t50.5 -19t52 -4.5t51 16q30 18 54 44.5t44.5 56.5 t38 61.5t35.5 59.5q17 27 34.5 53.5t33.5 52.5q-27 -28 -55.5 -54t-58.5 -50q-16 -13 -34 -26.5t-37.5 -25t-40 -20t-41.5 -10.5q-32 -3 -41.5 11.5t-7 35.5t12.5 43.5t18 36.5q23 42 50.5 80t50.5 79q4 7 10 18t11.5 23t8.5 23.5t0 20.5q-2 5 -11.5 3t-21 -7t-21.5 -10.5 t-12 -6.5q-41 -23 -78 -54t-70 -63l-32 -33q-8 -8 -16 -20t-17 -18q-7 -5 -13.5 -3t-10.5 7.5t-4.5 12t5.5 12.5z"/>
<glyph glyph-name="X" unicode="X" horiz-adv-x="748" d="M427 512q-23 -52 -31.5 -111t-10.5 -115q-2 -44 0 -87q171 136 310 305q6 6 14 11t17 -3q6 -5 6.5 -12.5t-4.5 -12.5q-81 -85 -165 -165t-177 -152q3 -29 8 -58.5t13 -57.5q6 -20 18 -44t35 -32q21 -6 55 3t70 23.5t68 30.5t48 25l42 24q5 2 9 4t9 -2q11 -7 4 -14 t-14 -11q-54 -26 -105.5 -53t-106.5 -50q-21 -9 -41.5 -13t-38 -1t-32.5 15t-25 36q-17 37 -25 77.5t-12 81.5q-44 -34 -88 -65t-91 -59q-23 -14 -47.5 -27.5t-49.5 -26.5q-6 -3 -19.5 -10.5t-27.5 -12.5t-25 -4.5t-12 14.5q-1 9 6.5 15t18 10.5t21 7.5t16.5 5 q27 12 53 25.5t52 27.5q51 28 98 60.5t94 67.5q-6 62 -3 124.5t12 123.5q4 24 9 48t13 48q4 7 11 9t13 -0.5t9 -8t-1 -14.5z"/>
<glyph glyph-name="W" unicode="W" horiz-adv-x="662" d="M13 293q31 27 62.5 52t63.5 51q19 14 38 30t39 31.5t40.5 28.5t43.5 22q19 7 40.5 4t26.5 -28q4 -25 -8.5 -49.5t-23.5 -44.5q-30 -50 -65 -95.5t-68 -92.5q-34 -48 -65.5 -97t-54.5 -103q-2 -5 -7.5 -17t-9 -24.5t-2 -22t13.5 -9.5q13 0 26.5 5t26 12.5t24 16t21.5 15.5 q60 42 117 95q18 35 38 68.5t42 66.5q29 43 60.5 84.5t69.5 78.5q15 15 31.5 30t36.5 25q7 4 13.5 3.5t11 -4.5t6 -10t-1.5 -13q-8 -17 -21.5 -34.5t-21.5 -27.5q-33 -44 -71 -89q-42 -49 -84.5 -98t-88.5 -97q-13 -28 -23 -56t-6 -54q1 -15 12 -17t24.5 2.5t27 11.5 t19.5 11q49 30 92 68t83 78q86 85 165 175.5t152 185.5q14 19 28 37.5t28 37.5q3 4 7 9.5t9 10t10.5 5.5t12.5 -3q9 -7 6 -17t-11.5 -20.5t-18 -19.5t-13.5 -13q-74 -84 -145 -168.5t-146 -167.5q-36 -39 -73.5 -78.5t-77.5 -75.5q-17 -15 -36 -32.5t-40 -33t-43.5 -26.5 t-46.5 -13q-27 -2 -40 9.5t-16 29.5t1 39t10 39q-22 -20 -44.5 -38.5t-45.5 -35.5q-13 -9 -36.5 -21.5t-47.5 -17.5t-41.5 2.5t-18.5 38.5q-1 25 10.5 49.5t24.5 44.5q14 26 29 49.5t32 46.5q32 48 64.5 93.5t64.5 91.5q31 46 57 96q3 8 7.5 18t8 20t5 18t0.5 13l-4.5 -0.5 t-10.5 -2t-11.5 -3t-6.5 -2.5q-46 -17 -85.5 -47t-74.5 -59q-23 -20 -46 -39.5t-43 -42.5q-7 -8 -16 -17.5t-21 0.5q-6 5 -6 14t6 14zM502 310q10 14 20 27.5t19 28.5q-10 -8 -19 -17.5t-17 -17.5q-20 -20 -38.5 -41.5t-36.5 -44.5q-22 -28 -42.5 -56.5t-38.5 -58.5 q82 85 153 180z"/>
<glyph glyph-name="V" unicode="V" horiz-adv-x="449" d="M13 293q39 33 79 64.5t81 63.5q25 20 50 39.5t53 35.5q14 8 30 14t32 4q23 -5 27.5 -24.5t-0.5 -37.5q-11 -37 -33 -70t-45 -64q-26 -37 -53.5 -72.5t-53.5 -71.5q-4 -6 -18 -26t-30 -46t-32 -55.5t-26 -55t-10 -43t16 -19.5q16 -3 37.5 6t42.5 23.5t39.5 29.5t29.5 24 q45 36 85.5 76t80.5 82q82 88 158.5 179.5t147.5 188.5q5 8 12 17t19 5q9 -2 12 -11t-2 -16q-16 -22 -35.5 -41.5t-36.5 -39.5q-40 -46 -78.5 -91.5t-77.5 -90.5q-38 -44 -76.5 -88.5t-79 -88t-83.5 -83.5t-90 -74q-13 -9 -29.5 -19.5t-34 -17t-35.5 -7t-34 9.5 q-24 15 -24 41t12 54.5t29 54l27 40.5q35 53 72 102.5t73 100.5q34 45 61 97q6 11 11.5 22.5t10.5 24.5t7 24t0 16q-3 4 -15 0t-26 -11t-26.5 -14.5t-16.5 -10.5q-26 -17 -51 -35t-48 -37q-25 -20 -48 -40t-45 -43q-3 -4 -7 -9.5t-8.5 -10t-10 -6.5t-11.5 1q-9 4 -10.5 13.5 t5.5 16.5z"/>
<glyph glyph-name="U" unicode="U" d="M16 336q62 49 128.5 94t141.5 74q14 5 33.5 10.5t38.5 6.5t35.5 -5.5t24.5 -24.5q7 -18 4 -37t-11.5 -37.5t-20.5 -35t-22 -29.5q-32 -43 -68 -83t-71 -81q-28 -32 -54.5 -64.5t-52.5 -67.5q-11 -15 -22.5 -31t-22.5 -33q-8 -11 -20 -29.5t-10 -32.5q7 1 17 5.5t20 10.5 t18.5 11.5t12.5 7.5q22 14 43.5 27.5t43.5 27.5q44 30 86 61t84 63t83.5 66t82.5 68q35 31 71 61.5t68 64.5q5 7 10 12.5t13 7.5q11 1 17 -7t2 -19q-4 -8 -12.5 -15t-17.5 -13q-42 -40 -78 -86t-69 -93q-19 -29 -35 -59t-27 -62q-6 -17 -10 -38t2 -37l1 -1q13 -5 29.5 -1.5 t30.5 7.5q55 15 109 38l97 47q4 2 9 2.5t8.5 -1t4 -5.5t-3.5 -11q-5 -9 -21.5 -14t-25.5 -10q-24 -12 -49 -25.5t-51.5 -26t-53 -22.5t-53.5 -14q-39 -8 -56 13.5t-10 57.5q4 25 14 50.5t23.5 49.5t28.5 47t30 44l35 49l-120 -96q-48 -38 -95 -75t-96 -74 q-22 -17 -45.5 -35.5t-48 -35.5t-50.5 -31.5t-53 -22.5q-20 -5 -30.5 0t-14 16.5t-1 26t9.5 28.5q24 50 62 93t74 85q39 44 78.5 87.5t75.5 90.5q4 6 14 19.5t21 31t21 36.5t14 34.5t-0.5 26.5t-21.5 12q-25 1 -51.5 -5t-52 -16.5t-49.5 -24t-45 -26.5q-21 -14 -41 -30.5 t-40 -33.5q-5 -4 -14.5 -14.5t-20.5 -19.5t-21.5 -12t-16.5 9q-7 13 6 23z"/>
<glyph glyph-name="T" unicode="T" horiz-adv-x="430" d="M708 520q-10 5 -22 3t-24 -7.5t-23 -12t-19 -11.5q-15 -10 -29.5 -21t-28.5 -22q29 4 59 5.5t61 1.5q27 0 54.5 -1.5t54.5 -6.5q9 -2 17.5 -6t6.5 -16q-1 -8 -7.5 -12t-14.5 -2q-22 0 -44.5 5.5t-45.5 7.5q-28 2 -55.5 2t-55.5 -2q-17 -1 -32 -2.5t-31 -3.5 q-42 -39 -78 -80.5t-71 -86.5q-34 -45 -64.5 -92t-53.5 -99q-12 -23 -21 -48t-14 -50q-2 -12 -2.5 -24t3.5 -23q4 -10 12 -18t4 -18q-5 -12 -12 -12.5t-14 5t-12.5 14t-7.5 13.5q-9 25 -3.5 52.5t13.5 51.5q19 52 46.5 100.5t59.5 93.5q33 48 68.5 93t73.5 87l34 36 q-33 -5 -64.5 -11.5t-63.5 -13.5q-55 -13 -108.5 -28.5t-107.5 -32.5q-27 -9 -53.5 -18t-52.5 -20q-9 -3 -18.5 -3t-14.5 11q-2 7 1.5 14t10.5 10q109 30 218 60.5t221 50.5q15 3 30 5.5t30 4.5q25 24 51.5 46t55.5 40q20 13 44 22.5t49 1.5q10 -3 13 -10t1 -13.5 t-8.5 -10.5t-15.5 1z"/>
<glyph glyph-name="S" unicode="S" horiz-adv-x="487" d="M444 275q18 16 35 37t27 44.5t11 49t-11 49.5q-10 20 -28 35t-41 18q-23 2 -40 -10t-31 -29q-18 -22 -23.5 -47.5t-2.5 -52t12 -52.5t20 -49q12 -24 24 -47t21 -46.5t13.5 -49t1.5 -53.5q-5 -51 -33 -97.5t-69.5 -81.5t-92.5 -54t-103 -15q-43 3 -76 28.5t-47 67.5 q-8 25 -8 50.5t6.5 50t18 48t26.5 44.5q14 20 32.5 38t40.5 32t46 22t50 7q27 -1 51 -12.5t39 -30.5t19.5 -44t-6.5 -52q-5 -7 -12 -9t-13 0.5t-9 8t2 13.5q12 24 4.5 49t-30.5 38q-24 13 -49 13t-48.5 -9t-44.5 -24.5t-37 -33.5q-17 -20 -30.5 -44t-20.5 -50t-5.5 -52.5 t13.5 -50.5q12 -25 31 -39.5t42 -20t48.5 -3.5t49.5 10q53 16 96 50t68 79t27.5 98t-25.5 106q-13 25 -26.5 50.5t-23.5 51.5t-15 54t-2 58q2 26 13.5 51.5t30.5 44.5t43.5 27.5t53.5 -0.5q28 -8 46.5 -27.5t27.5 -44t9 -52.5t-7 -53q-8 -27 -22 -51t-31 -47 q-5 -8 -12.5 -16t-18.5 -3q-10 2 -11.5 12.5t6.5 17.5z"/>
<glyph glyph-name="R" unicode="R" horiz-adv-x="761" d="M13 -5q-9 13 -10 29t19 23q23 7 45.5 -3t40.5 -20l1 1q20 53 47.5 102t58.5 96q29 45 61 88.5t67 85.5q-68 -22 -109.5 -39.5t-73.5 -39.5q-5 -3 -10.5 -8.5t-12 -11t-13 -9t-12.5 -1.5q-12 3 -14.5 14.5t8.5 17.5q46 31 98.5 52.5t105.5 37.5q14 5 28.5 9t29.5 8 q30 35 64.5 67.5t76.5 49.5q6 2 14 4t16.5 2.5t16 -2t12.5 -8.5q8 -11 -0.5 -21.5t-21.5 -4.5q-7 3 -15.5 2t-17.5 -5t-17.5 -9t-14.5 -9q-38 -26 -68 -56q61 12 120 11q27 -2 53.5 -9.5t48 -21.5t35 -36t13.5 -52q0 -27 -10 -51.5t-26.5 -46t-36.5 -40t-40 -33.5 q-90 -66 -194.5 -104t-213.5 -55q40 -17 81 -29t83 -20q54 -11 101.5 -4.5t99.5 25.5q55 21 106.5 47.5t103.5 54.5q3 2 8.5 5.5t11.5 6.5t12 3t9 -6q5 -11 -5.5 -16.5t-16.5 -7.5q-26 -13 -50.5 -26t-49.5 -27q-48 -27 -99 -53.5t-106 -39.5q-28 -7 -56.5 -6.5t-57 6 t-56 14.5t-53.5 19t-52 21t-50 22q-6 -21 -6 -44q0 -11 1 -21.5t7 -18.5t9.5 -17t-9.5 -17q-9 -5 -16 -1t-11.5 12t-7.5 17.5t-3 15.5q-4 19 -1 37.5t8 37.5q-31 -4 -53 -6.5t-31 12.5zM252 241q-32 -48 -60 -98t-48 -103l-7 -18q37 3 73 9.5t72 16.5q73 20 142.5 52 t127.5 81q22 18 46.5 46.5t38 60t8.5 61t-44 49.5q-47 25 -104.5 24t-112.5 -14q-37 -39 -69.5 -80.5t-62.5 -86.5zM54 14l14 4q-20 7 -31 2l5 -4z"/>
<glyph glyph-name="Q" unicode="Q" horiz-adv-x="636" d="M20 126q19 1 40 -5q14 32 31 62.5t36 58.5q30 48 65 90.5t74 81.5q19 18 39.5 35t43 32t46 25.5t49.5 15.5q15 3 37.5 3t35.5 -11q6 -5 7 -11.5t-2.5 -11.5t-9.5 -7.5t-13 0.5q-20 9 -43 7t-44 -10q63 3 101.5 -27.5t33.5 -93.5q-5 -55 -30 -107t-56 -98 q-34 -50 -79 -101.5t-100 -87.5q13 -3 26.5 -4.5t27.5 0.5q51 8 100 28.5t96 43.5q24 11 47.5 23t46.5 25q13 7 23 5t1 -16q-5 -9 -18 -13.5t-21 -9.5q-46 -23 -91.5 -48t-93.5 -46q-20 -8 -41.5 -16t-43.5 -11.5t-43.5 -1t-41.5 14.5l-10 6q-23 -12 -47.5 -19t-50.5 -10 q-24 -2 -48 2.5t-41 22.5q-19 20 -22.5 47t0.5 53q5 27 12 50h-11t-12 -2q-9 -3 -15 2t-7.5 12.5t2.5 14.5t14 7zM310 418q-44 -36 -80.5 -78.5t-68.5 -89.5q-22 -32 -41.5 -67t-33.5 -73q26 -14 49.5 -35t44.5 -39q15 -14 31 -26.5t34 -23.5q29 15 56 35.5t51 43.5 q81 75 133 176q9 18 19.5 43.5t16 52.5t1.5 52t-23 42q-18 17 -45 17.5t-50 -3.5q-4 -1 -9 1t-8.5 6t-5 8t2.5 8q-22 -11 -41 -25t-33 -25zM71 50q-2 -10 -3 -22.5t0 -24.5t6 -22.5t15 -17.5q16 -12 38 -11.5t40 4.5q21 4 47 14q-29 24 -54 51t-54 47l-28 16q-2 -8 -4 -17 t-3 -17z"/>
<glyph glyph-name="P" unicode="P" horiz-adv-x="620" d="M126 320q47 32 100.5 53.5t107.5 38.5q14 5 28.5 9t28.5 7l23 26q18 19 37.5 35.5t42.5 30.5q6 3 17 9t23 10t23 4t17 -7q8 -8 3 -19t-17 -11q-35 1 -67 -20t-60 -48q32 6 63.5 9t63.5 1q26 -2 51.5 -10t46 -22.5t33 -36.5t12.5 -51q0 -27 -12 -51t-30.5 -44.5t-40.5 -38 t-42 -30.5q-94 -62 -203 -100t-220 -58l-18 -4l-11 -19l-55 -103q-5 -8 -10.5 -20.5t-17.5 -14.5q-11 -1 -17 8.5t-1 18.5q17 32 37 63t40 63q-15 -3 -30 -4.5t-29 -3.5q-10 -1 -21 -1.5t-16 11.5q-4 8 2 16.5t15 7.5q24 -1 49 0.5t49 4.5l22 35q32 52 63.5 103.5 t65.5 102.5q22 32 45 64t49 63q-11 -2 -21.5 -5t-20.5 -7q-72 -23 -136 -62q-5 -3 -12 -9.5t-14.5 -12.5t-15.5 -10.5t-14 -2.5q-12 3 -14 14.5t8 17.5zM384 383q-38 -45 -71 -92.5t-65 -97.5q-25 -40 -48.5 -80t-47.5 -81q53 7 106 21q75 18 147 47t136 73q15 10 34.5 25 t37.5 33.5t33 39.5t20 42t-2 41.5t-32 37.5q-29 20 -66.5 24.5t-72.5 2.5q-23 -2 -44.5 -4.5t-44.5 -7.5z"/>
<glyph glyph-name="O" unicode="O" horiz-adv-x="445" d="M472 484q-21 9 -43.5 7t-44.5 -10q63 3 102 -27.5t34 -93.5q-5 -55 -30.5 -107t-56.5 -98q-26 -39 -59 -79.5t-73 -74t-85.5 -57t-95.5 -27.5q-23 -2 -47.5 2.5t-41.5 22.5q-19 20 -22 47t1 53q9 54 34.5 104.5t55.5 95.5q29 48 64 90.5t75 81.5q37 35 81.5 67t95.5 41 q16 3 38.5 3t35.5 -11q6 -5 6.5 -11.5t-2.5 -11.5t-9 -7.5t-13 0.5zM282 418q-44 -36 -80.5 -78.5t-68.5 -89.5q-31 -45 -55.5 -95.5t-34.5 -104.5q-2 -10 -3 -22.5t0.5 -24.5t6 -22.5t14.5 -17.5q17 -12 38.5 -11.5t39.5 4.5q54 11 100 42t85 67q41 38 74.5 82t57.5 94 q9 18 20 43.5t16.5 52.5t2 52t-22.5 42q-18 17 -45 17.5t-50 -3.5q-9 -2 -16 5t-6 18q-20 -11 -39.5 -25t-33.5 -25z"/>
<glyph glyph-name="N" unicode="N" d="M16 336q60 46 122.5 89t133.5 73q13 6 30 12t34.5 9t34.5 1.5t31 -10.5q15 -11 19 -26t0.5 -31.5t-11 -33t-14.5 -28.5q-18 -29 -40 -56l-44 -54q-23 -31 -46 -62.5t-46 -63.5l-69 -94q35 31 70 60.5t71 58.5q74 60 153 117t166 99q18 9 36.5 16.5t38.5 9.5 q8 1 15.5 -0.5t12.5 -5t5.5 -9.5t-5.5 -15q-10 -14 -25 -26t-28 -26q-46 -52 -88 -106t-71 -114q-6 -13 -14.5 -31t-14.5 -36.5t-7 -34t7 -24.5q9 -9 24.5 -8t32.5 7t34 13.5t28 11.5q38 14 76 31.5t75 36.5q6 4 12 0.5t5 -10.5q0 -8 -9 -12t-14 -6l-84 -40 q-37 -17 -75.5 -36.5t-80.5 -24.5q-28 -3 -41.5 6t-17.5 25t0 37t11.5 42t16.5 39.5t15 29.5q37 64 81 126t94 120q-12 -4 -24.5 -10t-23.5 -11q-28 -13 -55 -27.5t-53 -31.5q-48 -30 -94 -64t-90 -70q-47 -36 -89.5 -74.5t-83.5 -79.5q-21 -20 -40 -41t-38 -44 q-7 -7 -14.5 -19.5t-18.5 -15.5t-18.5 7t-1.5 20q5 10 14.5 20t16.5 19q4 6 9.5 13.5t17 23t31.5 41.5t53 70l67 90q28 39 57 77t56 78q5 7 17 24.5t22.5 37t15 38t-5.5 27.5q-6 5 -15 6.5t-19.5 0.5t-20.5 -3.5t-16 -3.5q-44 -11 -85 -31q-38 -18 -71.5 -42t-65.5 -51 l-32 -28q-6 -6 -13 -14t-15 -10q-14 -2 -19.5 10.5t5.5 21.5z"/>
<glyph glyph-name="M" unicode="M" horiz-adv-x="988" d="M132 185q7 -24 7 -49q36 44 75 85.5t81 80.5q41 38 83.5 74t89.5 67q42 27 91 51t100 27q23 2 43.5 -7.5t25.5 -34.5q4 -23 -5 -45t-21 -42q-28 -48 -64.5 -90.5t-68.5 -87.5q-13 -18 -25.5 -35.5t-23.5 -35.5q46 47 94.5 90.5t99.5 84.5q42 33 88.5 66.5t98.5 49.5 q7 2 17.5 4.5t20.5 2.5t16.5 -5t4.5 -17q-3 -16 -17.5 -30t-24.5 -24q-32 -33 -66.5 -67t-66 -70.5t-56.5 -77t-37 -85.5q-3 -11 -4 -21.5t1 -19.5t9 -15.5t21 -7.5q27 -2 55.5 4.5t54.5 14.5t52 19t51 22l50 22q5 2 9.5 4.5t9.5 -1.5q6 -3 5.5 -10t-6.5 -10 q-24 -12 -48 -21.5t-47 -20.5q-26 -11 -52.5 -21.5t-52.5 -20.5q-14 -5 -30.5 -9.5t-33.5 -6.5t-33.5 1t-29.5 14q-12 10 -16.5 24t-3.5 29t6 30t11 27q14 35 35 65t43 59q4 5 23.5 27.5t44.5 51.5t50.5 58.5t41.5 49.5q-16 -4 -31.5 -10t-29.5 -14q-26 -14 -50 -29.5 t-47 -32.5q-46 -35 -88.5 -73t-83.5 -79q-85 -85 -158 -176q-5 -6 -10 -14.5t-13 -13.5t-16.5 0t-9.5 15q-1 11 10 23t16 20l41 56q37 50 73 100l72 100q21 29 42.5 57.5t39.5 59.5q3 6 10.5 18.5t13 26t6.5 26.5t-7 19q-10 7 -24 7t-29 -3.5t-29 -9t-23 -8.5 q-55 -20 -105 -50.5t-96 -68.5q-108 -89 -197 -197q-14 -17 -27 -33.5t-26 -33.5q-12 -40 -34.5 -78t-49.5 -65q-9 -9 -18 -12.5t-15.5 -2t-8.5 7t4 16.5q16 34 37.5 64t43.5 59q13 32 13 69q0 5 -2.5 12t-3.5 14.5t-0.5 14t6.5 11.5q8 6 16.5 2.5t11.5 -11.5z"/>
<glyph glyph-name="L" unicode="L" horiz-adv-x="644" d="M568 523q-35 -28 -63.5 -62t-53 -71.5t-46.5 -77t-44 -76.5q-20 -35 -41 -70.5t-44 -70.5q-20 -32 -43 -68t-54 -62l13 -7q45 -21 93 -18t95.5 18.5t93 38.5t84.5 43l86 46q6 3 10.5 1t6.5 -5.5t1 -8t-6 -7.5q-12 -8 -25 -14l-26 -12q-23 -13 -46 -25.5t-47 -24.5 q-38 -20 -75.5 -39.5t-78.5 -32.5q-26 -8 -51.5 -11t-50.5 1q-29 5 -52.5 17t-46.5 26l-20 -10q-25 -8 -51.5 -12t-50.5 7q-11 4 -18.5 12.5t-11 18.5t-1.5 20.5t12 19.5q14 13 30 15t32.5 -2.5t33.5 -13.5t33 -19q34 19 59.5 49t46.5 62q40 59 74.5 120.5t69.5 124.5 q23 40 47.5 78.5t53.5 74.5q10 14 23.5 32t30.5 25q7 3 12.5 0.5t8.5 -7.5t3 -12t-6 -11zM58 -11q-3 0 -7.5 -1t-8 -3t-5 -4.5t2.5 -6.5q9 -11 24 -10.5t26 2.5q6 2 12.5 3.5t12.5 4.5q-14 6 -28.5 10.5t-28.5 4.5z"/>
<glyph glyph-name="K" unicode="K" horiz-adv-x="766" d="M880 533q-88 -85 -182.5 -160t-191.5 -147q-48 -36 -97.5 -71t-101.5 -67q-36 -23 -73 -46.5t-77 -40.5l43 -17q26 -9 54 -18t57.5 -15.5t58.5 -9t57 0.5q58 8 113 32t107 50l119 62q5 3 9.5 1.5t6.5 -5.5t1 -8.5t-7 -7.5l-58 -31q-61 -32 -121.5 -66t-126.5 -53 q-57 -17 -111.5 -5.5t-110.5 31.5l-93 33q-9 4 -17.5 6.5t-17.5 5.5l-32 -10q-4 -15 -4 -33q0 -11 1 -21.5t7 -18.5t9.5 -17t-9.5 -17q-9 -5 -16 -1t-11.5 12t-7.5 17.5t-3 15.5q-3 15 -1.5 30t5.5 31q-24 2 -40 15q-9 8 -15 22t4 25q11 13 32 9t38 -11q20 50 46 96.5 t56 91.5q61 96 135 183q33 38 72 78t87 60q6 2 14 4t16.5 2.5t16 -2t12.5 -8.5q8 -11 -0.5 -21.5t-21.5 -4.5q-7 3 -15.5 2t-17.5 -5t-17.5 -9t-14.5 -9q-24 -16 -46 -35.5t-43 -41.5q-38 -41 -73 -84t-67 -91t-60 -98t-48 -103q-2 -4 -3.5 -8t-2.5 -8l14 -5l10 4 q33 11 65.5 26.5t62.5 33.5q63 36 122 76.5t116 84.5q58 44 113.5 89t109.5 93q55 48 106 97q4 4 9.5 11.5t12 14t13 11t13.5 3.5q11 -2 15 -12.5t-4 -17.5z"/>
<glyph glyph-name="J" unicode="J" horiz-adv-x="638" d="M312 160q-28 24 -34 47.5t3 44.5t29.5 40t45 35t50.5 28.5t45 20.5q41 16 83.5 32.5t83.5 36.5l10 13q10 15 23.5 33.5t30 32.5t36 21.5t40.5 0.5q20 -6 18 -22.5t-14 -27.5q-17 -16 -36.5 -26.5t-39.5 -20.5q-11 -5 -22.5 -11t-22.5 -11q-14 -19 -26.5 -37.5 t-25.5 -37.5q-41 -63 -81 -125t-78 -126q-25 -40 -53.5 -83t-69.5 -72q32 8 63 18.5t61 23.5q54 23 105 47t102 51q5 3 9.5 1t6.5 -5.5t1 -8t-6 -7.5l-43 -20l-110 -56q-52 -23 -103.5 -45t-108.5 -33q-56 -9 -111 1.5t-103 42.5q-6 4 -17.5 11t-23 15.5t-19.5 18t-8 18.5 t3.5 12.5t9 3.5t11 -2t9.5 -4q15 -8 29.5 -20t19.5 -16q22 -15 47 -27.5t51 -18.5t52 -3t52 18q41 25 68.5 65.5t53.5 80.5q27 45 55 87t55 87q20 31 38 62.5t38 62.5l-88 -35q-44 -19 -90 -41.5t-81 -55.5q-17 -17 -23 -36t11 -39q6 -8 14 -15.5t3 -18.5q-4 -8 -13 -10 t-15 4zM726 509q-9 4 -17 -4.5t-16 -15.5z"/>
<glyph glyph-name="I" unicode="I" horiz-adv-x="413" d="M184 448q32 -3 64 -1t63 13h1q3 5 5.5 9t6.5 9q7 9 17.5 23.5t23 27t27 20t28.5 2.5q19 -6 18.5 -18t-9.5 -25.5t-22.5 -25t-20.5 -15.5q-11 -8 -23.5 -13t-24.5 -10q-16 -22 -30.5 -44t-30.5 -45l-127 -199q-14 -24 -29 -48t-26 -49l-9 -18t-11.5 -26t-7.5 -26t4 -18 q7 -6 34 -1.5t58 12t58 16t35 10.5q26 9 51 21t49 26l50 28q5 2 10 4.5t10 -1.5q6 -3 5.5 -10t-5.5 -10q-46 -24 -92 -47.5t-95 -40.5q-35 -12 -69 -25.5t-72 -18.5q-19 -2 -37.5 3.5t-24.5 25.5q-4 12 -2.5 24t6 24t10.5 23.5t12 21.5q24 43 51 83.5t53 81.5 q33 51 62.5 103.5t61.5 103.5q-14 -3 -27 -5.5t-27 -4.5q-6 -1 -14.5 -3t-17.5 -3.5t-17.5 -1.5t-13.5 4q-6 4 -7.5 10t0.5 11.5t6.5 9t11.5 3.5zM395 510q-14 -9 -24 -24q7 5 13.5 11.5t10.5 12.5z"/>
<glyph glyph-name="H" unicode="H" horiz-adv-x="677" d="M710 518q-29 -27 -54 -59.5t-48 -66.5q-30 -42 -59.5 -86t-57.5 -89q1 0 1.5 0.5t1.5 0.5q4 1 19.5 2t29.5 -1t21 -8.5t-4 -19.5q-7 -8 -16.5 -6t-17.5 2q-18 0 -31.5 -1t-26.5 -4q-26 -41 -50.5 -83.5t-38.5 -88.5q-2 -8 -4.5 -19.5t2.5 -18.5q7 -8 20 -6.5t22 3.5 q28 6 52.5 17.5t50.5 24.5l100 47l49 25q5 2 10 4.5t10 -1.5q5 -3 5 -10t-6 -10q-44 -23 -88.5 -43t-87.5 -43q-26 -14 -55.5 -30t-58.5 -18q-17 -2 -33.5 5t-23.5 23q-9 22 -0.5 46.5t18.5 43.5q16 33 34.5 64.5t38.5 61.5q-19 -5 -37 -9.5t-36 -9.5q-38 -11 -75.5 -26.5 t-73.5 -33.5q-23 -36 -47.5 -70.5t-52.5 -66.5q-14 -16 -30.5 -31.5t-38.5 -22.5q-15 -3 -23.5 1.5t-11.5 13.5t-2 20.5t6 22.5q11 23 29.5 43.5t40.5 37.5t45.5 32t45.5 27l26 15q17 26 32 52t31 53q24 43 47.5 87t36.5 92q2 11 4 21.5t0 21.5q-1 14 -6.5 18t-14.5 11 q-6 5 -6.5 11.5t3 11.5t9.5 7.5t13 -0.5q24 -10 31.5 -30.5t4.5 -44.5t-12 -48t-17 -41q-23 -53 -53.5 -101t-63.5 -102q37 17 74 31t76 25q32 12 70 18q22 32 43.5 63t42.5 63q23 36 47 72.5t49 71.5q10 15 22.5 35t27.5 30q7 4 13 2t9.5 -7t3.5 -12t-6 -12zM85 8 q-5 -5 -12.5 -13t-14.5 -17t-12.5 -18.5t-5.5 -18.5q16 6 33.5 20.5t33 32t29.5 35.5t24 32l9 13q-23 -14 -44.5 -30t-39.5 -36z"/>
<glyph glyph-name="G" unicode="G" horiz-adv-x="562" d="M298 166q51 19 94 56t72 82q14 20 24 45.5t8 51.5q-3 27 -24 44t-47 16q-27 0 -52.5 -10t-49.5 -25t-45.5 -33t-39.5 -35q-39 -38 -71.5 -81.5t-59.5 -89.5q-13 -23 -26.5 -48t-24 -52t-16.5 -54.5t-3 -54.5q4 -32 23.5 -43t44.5 -9.5t51 11.5t44 21q44 26 87.5 60 t71.5 77q6 5 13 5.5t12.5 -3t7 -9.5t-3.5 -14q-4 -7 -10 -14t-11 -13q-22 -31 -43 -61t-44 -59q60 36 120 70t123 68q3 2 13 8t20 10t17.5 3.5t7.5 -10.5q0 -8 -9 -12.5l-15 -7.5l-43 -22q-41 -23 -81 -46.5t-81 -46.5q-29 -16 -57 -33l-56 -34q-17 -21 -34.5 -40.5 t-36.5 -38.5q-12 -12 -26 -24t-29 -22t-31.5 -16.5t-34.5 -6.5q-17 0 -17 22q0 14 15.5 25t24.5 17q33 26 69.5 49.5t80.5 51.5q20 24 40 50t38 53q-20 -14 -39 -27.5t-39 -25.5q-20 -11 -44.5 -24t-50 -20.5t-50.5 -5t-45 22.5q-19 19 -22.5 44t1 52t14.5 53.5t19 46.5 q23 52 53 100.5t65 93.5q33 43 72.5 81.5t84.5 69.5q19 12 41 22.5t45 15t46 1.5t43 -19q21 -17 28 -38.5t5 -45t-11.5 -46.5t-21.5 -43q-28 -45 -66.5 -83.5t-83.5 -67.5q-4 -3 -9.5 -7t-12 -7.5t-12.5 -5t-12 1.5q-11 5 -10 16.5t12 16.5zM119 -202q-9 -5 -22.5 -13.5 t-24.5 -17.5q26 9 50 28q8 6 16.5 12.5t16.5 13.5z"/>
<glyph glyph-name="F" unicode="F" horiz-adv-x="390" d="M80 344q48 17 95 34t96 32q32 38 70.5 76t84.5 58q6 2 14.5 4t16.5 2.5t15.5 -2t12.5 -8.5q8 -11 -0.5 -21.5t-21.5 -4.5q-8 3 -16.5 2t-17.5 -5t-17 -9t-14 -9q-23 -15 -43 -32t-39 -36q32 9 64 17.5t64 15.5q45 11 90.5 16.5t91.5 5.5q24 -1 47.5 -1.5t46.5 -8.5 q6 -2 10 -7t4.5 -11t-3 -10.5t-12.5 -5.5q-21 0 -40.5 5.5t-38.5 7.5q-24 2 -47.5 2t-46.5 -2q-48 -4 -94 -13.5t-92 -22.5q-20 -7 -39.5 -13t-39.5 -14q-31 -34 -58.5 -70t-53.5 -75q-16 -24 -31.5 -49t-29.5 -50q27 7 54.5 11.5t55.5 8.5q26 3 53 4.5t54 2.5q9 0 22.5 1 t20.5 -8q6 -8 3 -16.5t-11 -11.5q-8 -2 -18 -1t-18 3q-14 1 -28 1h-28q-29 0 -56.5 -2.5t-55.5 -7.5q-34 -5 -62 -13q-11 -18 -18.5 -36.5t-15.5 -37.5q-9 -23 -16 -47t-7 -49q-1 -11 0.5 -21.5t8.5 -18.5q5 -8 8 -17t-8 -17q-9 -5 -16 -1t-12 12t-8 17.5t-4 15.5 q-4 28 3 56.5t17 54.5q8 20 16.5 39.5t18.5 38.5q-5 -1 -11.5 -5t-13 -7.5t-13.5 -5t-12 2.5q-7 5 -6 11t7 10q30 13 65 23q13 23 27 45.5t28 45.5q24 38 50.5 75.5t55.5 73.5l-57 -23q-23 -9 -44.5 -18.5t-42.5 -18.5q-8 -4 -14.5 -0.5t-9 10t-0.5 13t10 9.5z"/>
<glyph glyph-name="E" unicode="E" horiz-adv-x="490" d="M268 268q51 11 101 38t81 72q5 7 10.5 18t9 22.5t2.5 23t-8 20.5q-8 10 -20 13t-25.5 2.5t-27 -3.5t-23.5 -6q-53 -15 -99 -45t-83 -71q-5 -6 -16.5 -20.5t-24 -33t-23 -39t-14.5 -38t1 -30t24 -15.5q22 -3 40 5t38 10q8 2 15.5 -4t5.5 -15q-2 -12 -17 -19t-24 -13 q-21 -13 -43 -28.5t-42.5 -33.5t-37.5 -39.5t-26 -45.5q-10 -26 3 -37.5t34.5 -15t46 -1t37.5 5.5q55 11 106.5 33.5t101.5 47.5l96 48q7 3 16 9t17 6q9 -1 10.5 -5t-0.5 -8.5t-6.5 -8.5t-7.5 -6q-17 -7 -34 -15t-34 -17q-61 -31 -123.5 -63.5t-129.5 -50.5 q-29 -9 -62 -11.5t-63 8.5q-29 11 -39.5 34.5t1.5 52.5t34.5 52.5t44.5 44.5l55 47q-16 1 -29.5 6t-24.5 18q-12 15 -12.5 33t5 36.5t15 35.5t18.5 30q42 66 105.5 118.5t136.5 78.5q16 6 35.5 9.5t39 2.5t36 -9t26.5 -26q10 -17 9 -34.5t-8 -35t-18 -33t-23 -27.5 q-26 -29 -57.5 -50t-65.5 -38q-13 -6 -30 -15t-32 -10q-8 -1 -12.5 3.5t-5.5 11t2.5 12.5t11.5 8z"/>
<glyph glyph-name="D" unicode="D" horiz-adv-x="673" d="M132 269q42 37 89.5 67t97.5 55q26 13 53 24.5t54 21.5l38 43q18 19 38.5 37t44.5 27q6 2 17.5 4t22 1t17.5 -6.5t3 -18.5q-2 -7 -9 -10t-15 0q-9 4 -19 2t-20 -7t-19 -12t-15 -12q-11 -8 -20 -17l-18 -18q14 4 29 6.5t31 4.5q25 3 53 2t55 -8.5t49.5 -22.5t35.5 -40 q12 -23 11 -48.5t-9.5 -51t-22 -48.5t-27.5 -42q-66 -90 -160.5 -153t-200.5 -92q-44 -11 -87 -18q2 -12 6 -21.5t13 -17.5q8 -7 7 -14t-7 -11t-14.5 -3.5t-15.5 9.5q-9 12 -13.5 26t-6.5 29q-28 -2 -56.5 -2.5t-57.5 1.5q-7 0 -20.5 0.5t-27 3t-22.5 8.5t-7 17q1 8 7.5 12 t14.5 2q16 -5 32 -8t33 -5q25 -4 51 -4.5t52 1.5q2 34 12.5 68t20.5 61q20 54 45.5 104.5t54.5 99.5q15 27 32 53t35 52q-52 -20 -96 -44t-83 -54q-9 -7 -17.5 -14.5t-16.5 -15.5q-8 -7 -15.5 -17t-16.5 -15q-7 -4 -13 -2t-10 7.5t-3.5 12t6.5 11.5zM439 414 q-42 -54 -73.5 -103t-57.5 -99q-26 -52 -48 -108t-30 -115q-1 -5 -1.5 -11t-0.5 -14q63 8 124 28.5t116 54.5q42 26 80.5 58t70.5 70q14 17 28.5 37t26 41.5t19 44.5t7.5 46q0 22 -11 37.5t-28 26t-37 16t-38 7.5q-38 2 -74.5 -2.5t-72.5 -14.5z"/>
<glyph glyph-name="C" unicode="C" horiz-adv-x="500" d="M277 130q20 15 37 36t31.5 45t26 48.5t20.5 47.5q11 25 17 52t4 54q-2 29 -20.5 36t-44.5 2q-27 -5 -51.5 -18.5t-46.5 -32.5t-41.5 -40.5t-35.5 -41.5q-36 -45 -65.5 -93.5t-49.5 -102.5q-8 -18 -15.5 -45t-8.5 -54t8.5 -49t36.5 -30t55.5 -6t57.5 9.5t57 18.5t52 21 q26 11 51.5 23.5t51.5 25.5l52 25l12.5 7.5t16 9.5t16.5 8t14 3q9 -1 10 -10.5t-7 -12.5q-8 -8 -21 -11.5t-23 -8.5q-28 -14 -55.5 -28.5t-56.5 -28.5q-46 -23 -93.5 -46t-99.5 -34q-23 -5 -49 -5t-48.5 7t-40 23t-23.5 44q-5 24 -2.5 50t10 51.5t18 49.5t21.5 45 q50 102 123 187q16 18 33 37t36.5 35.5t41 29.5t45.5 19q21 7 46.5 6.5t43.5 -16.5t21 -38.5t-1 -44.5q-9 -53 -33 -103t-50 -96q-14 -23 -28 -45.5t-32 -42.5q-8 -5 -15.5 -3.5t-12 6.5t-4.5 12t8 13z"/>
<glyph glyph-name="B" unicode="B" horiz-adv-x="662" d="M109 281q43 38 92 68.5t99 56.5q35 18 72 34t76 28l10 12q18 19 38.5 37t44.5 27q6 2 17.5 4t22 1t17.5 -6.5t3 -18.5q-2 -7 -9 -10t-15 0q-9 4 -19 2t-20.5 -7.5t-20.5 -13.5t-18 -14q25 4 53 5t54.5 -4.5t48.5 -20t34 -41.5q11 -25 1.5 -48t-29 -42.5t-43 -35 t-41.5 -25.5q-42 -26 -85.5 -48t-88.5 -42q45 9 90.5 11.5t83.5 -14.5q22 -9 33 -25.5t12.5 -35.5t-6 -38.5t-22.5 -34.5q-37 -37 -89 -55.5t-101 -30.5q-87 -24 -177 -33q5 -14 15 -23q8 -7 7 -14t-7 -11t-14.5 -3.5t-15.5 9.5t-11 19t-7 21q-26 -3 -56 -3t-56 4 q-8 1 -21.5 3t-27 6.5t-23 12t-9.5 18.5q0 13 7 15.5t15.5 -1t17.5 -9t14 -7.5q28 -10 58 -12t60 -2h18q-1 38 10.5 77t22.5 68l5 15q-7 -3 -14 -5.5t-15 -4.5h-1q-11 -2 -18.5 1.5t-6.5 15.5q0 7 6.5 12t15.5 8.5t19.5 5.5t18.5 4l13 3q17 39 36.5 76t41.5 73 q21 35 43 69.5t47 66.5q-28 -11 -54 -23t-49 -24q-37 -18 -71.5 -40.5t-66.5 -49.5q-5 -4 -11.5 -11.5t-13.5 -15t-14.5 -13t-14.5 -4.5q-12 1 -15.5 12t4.5 19zM226 -11q-5 -18 -3 -42q46 4 91.5 12t89.5 22q22 6 48 14.5t50.5 20.5t45.5 27.5t33 36.5q15 26 6 41.5t-29 24 t-44.5 11.5t-40.5 3q-41 -2 -84 -7.5t-85 -16.5l-44 -17h-1q-13 -32 -21.5 -64t-11.5 -66zM425 402q-35 -45 -65.5 -92.5t-55.5 -97.5q-8 -14 -15 -28t-13 -28q56 19 110.5 43t106.5 51q34 17 65.5 37t59.5 45q12 11 25.5 26.5t15.5 32.5q1 9 -3.5 17t-12 14.5t-16 11.5 t-15.5 8q-35 14 -74 13t-77 -11q-10 -10 -19 -20.5t-17 -21.5z"/>
<glyph glyph-name="at" unicode="@" horiz-adv-x="492" d="M299 130q-13 16 -31.5 12.5t-36.5 -16.5t-32.5 -30t-17.5 -29q-3 -11 1.5 -18t12.5 -10.5t18.5 -4t18.5 2.5q10 3 20.5 12t21.5 9t10.5 -10t2.5 -17q4 -10 16.5 -9.5t26 6t26 13t17.5 11.5q22 15 39 36.5t25 47.5q7 24 2 47t-24 41q-20 20 -49 23t-55 1 q-49 -3 -100.5 -28.5t-90.5 -65.5t-58.5 -90.5t-5.5 -104.5q8 -28 27 -43t43 -18.5t49.5 3t45.5 21.5q5 4 12 12t15 15.5t16.5 12t16.5 3.5q9 -2 13 -10t-1 -16q-5 -9 -19.5 -16t-23.5 -12q-29 -18 -61.5 -34t-67.5 -14q-24 1 -42.5 11.5t-30.5 27t-18 37.5t-6 43 q0 48 16.5 88t43.5 73t62.5 60t74.5 49q38 21 85.5 29t89.5 -6q45 -14 65 -53t7 -84q-10 -33 -33 -61.5t-52 -46.5q-12 -8 -30.5 -16t-36.5 -11t-32.5 2t-19.5 23q-13 -6 -26 -13.5t-26 -11t-26 -1t-25 15.5t-13.5 27t3.5 27.5t15 25.5t19 21q11 10 25 20.5t29 18t31 10.5 t32 -1q8 -2 17.5 -7.5t10.5 -15.5q1 -13 -11 -17.5t-20 3.5z"/>
<glyph glyph-name="germandbls" unicode="ß" horiz-adv-x="451" d="M-1 85q56 28 108.5 65t109.5 83l16 27q20 35 42 72t53 63q5 4 16.5 11t23 10t20.5 -0.5t10 -18.5q1 -12 -6.5 -24t-18 -23.5t-22 -21t-19.5 -17.5q-23 -25 -47.5 -48t-50.5 -45q-9 -14 -17.5 -28.5t-16.5 -29.5l23 25q15 16 31 33.5t33.5 33t37 28.5t41.5 19q16 4 30.5 0 t23.5 -13.5t10.5 -23.5t-8.5 -30q-19 -32 -57.5 -48t-75.5 -24q18 -20 30.5 -43t2.5 -49q-9 -22 -30 -38q30 5 60.5 14t59.5 22q21 10 37 19q7 5 14.5 0t2.5 -15q-2 -4 -11 -9t-20 -10t-22 -9t-17 -6q-23 -9 -46 -17t-46 -14q-11 -3 -22.5 -5t-22.5 -4q-10 -2 -24 -4t-23 3 q-10 6 -9.5 12t5.5 11t12.5 8.5t12.5 5.5q9 4 20 9t21.5 12.5t17.5 16.5t7 21t-4.5 20.5t-11.5 15.5t-14.5 14t-11.5 16q-11 10 -2 15.5t16 7.5q25 6 53 17q19 7 41 20.5t30 34.5q4 11 -3 12.5t-17.5 -1t-20.5 -7.5t-13 -6q-66 -36 -116.5 -94.5t-91.5 -124.5 q-11 -20 -22 -38.5t-22 -38.5q-5 -5 -11.5 -6.5t-12 0t-8.5 6.5t-1 14q4 14 14.5 28t21.5 27q26 40 49.5 79t46.5 80q-23 -17 -46 -33.5t-46 -32.5q-17 -11 -35 -22t-36 -21q-5 -2 -12.5 -7.5t-14.5 -0.5q-6 4 -6 11t7 9zM301 312q13 14 26.5 28.5t24.5 31.5 q-26 -14 -45.5 -40t-34.5 -49z"/>
<glyph glyph-name="thorn" unicode="þ" horiz-adv-x="408" d="M0 86q51 25 100 58t94 67q20 35 40.5 69.5t45.5 66.5q11 14 24.5 29t31.5 18q17 2 26.5 -10.5t8.5 -27.5q-2 -21 -14.5 -39.5t-30 -34.5t-37 -30t-33.5 -25l-42 -31q-26 -43 -51 -85.5t-49 -86.5q32 35 68 69.5t78 57.5q15 8 33.5 15t35.5 2q13 -5 16.5 -14t1 -20 t-8.5 -21.5t-12 -17.5q-11 -14 -21.5 -29t-23.5 -29q11 2 21.5 4.5t21.5 6.5l43 17q9 5 23.5 14t24.5 9q9 0 10.5 -9t-6.5 -14q-10 -5 -21 -10t-22 -11q-35 -15 -70.5 -28.5t-71.5 -21.5q-17 -8 -26 -10t-14 -1t-7 5t-3 10q-4 11 2.5 17t39.5 11q8 5 15 11t13 11 q16 14 34.5 37.5t22.5 46.5q-31 -3 -60.5 -23t-52.5 -39q-32 -26 -60.5 -55.5t-55.5 -61.5l-16 -17l-40 -76l-40 -76q-5 -8 -15 -29.5t-23.5 -42t-28.5 -33t-29 -3.5q-15 10 -9.5 31.5t18.5 44t29 42.5t22 28q23 31 46 61t47 59q10 20 20 38t21 36l83 147l-61 -41 q-18 -11 -36 -22.5t-36 -22.5q-8 -4 -18 -10.5t-17 -1.5t-6 11.5t7 9.5zM286 289l11 11t17 18.5t15.5 20.5t5.5 17q-17 -9 -30.5 -29t-24.5 -34l-23 -31z"/>
<glyph glyph-name="Thorn" unicode="Þ" horiz-adv-x="569" d="M113 251q50 23 104 37.5t108 25.5q26 38 53.5 72t58.5 66q18 20 37 37t42 29q6 4 17 10t22.5 10t22.5 4t18 -7q8 -8 3 -19t-17 -11q-26 1 -51 -11t-47.5 -31t-42 -40.5t-34.5 -39.5q-13 -16 -25.5 -31t-23.5 -30q51 10 105.5 13.5t102.5 -12.5q22 -8 39.5 -23.5 t22.5 -39.5t-9 -45t-31 -35q-45 -37 -99.5 -58t-108.5 -38q-100 -30 -202 -48l-29 -53l-57 -104q-5 -8 -10.5 -21t-16.5 -14t-17 8t-1 18q23 42 48.5 81.5t50.5 79.5q-27 -4 -53 -6.5t-53 -5.5q-9 -1 -20 -1.5t-16 11.5q-5 9 0.5 17t15.5 7q35 -1 71 0t72 6q32 54 64 106 t67 104l13 19q-23 -5 -44.5 -11.5t-42.5 -13.5q-24 -8 -46.5 -18.5t-42.5 -24.5q-8 -6 -15 -3t-10.5 9t-2.5 13.5t10 11.5zM193 62q75 11 145.5 32t136.5 54q22 11 43 23.5t40 27.5q5 4 12 10.5t12.5 13.5t9 15t1.5 16q-5 22 -26 32.5t-47 15t-52.5 4t-42.5 -1.5 q-23 -2 -44.5 -4t-43.5 -6l-67 -101z"/>
<glyph glyph-name="braceleft" unicode="{" horiz-adv-x="176" d="M32 -109q-10 13 -12 28.5t1 31.5t9 31t13 28q4 8 14 24t19 33.5t12.5 33.5t-4.5 25q-3 4 -10.5 6t-14.5 5t-10.5 7t1.5 12q3 4 9.5 5.5t14 2l15 1t12.5 2.5q14 7 24.5 19t19.5 25.5t17 27.5t17 26q20 28 45.5 48t58.5 28q10 1 18 -6t3 -18t-20 -14t-25 -7 q-25 -12 -43 -34.5t-35 -46.5t-35.5 -45t-43.5 -30q8 -12 7.5 -27t-6.5 -31.5t-14.5 -32.5t-15.5 -29q-11 -20 -21.5 -42t-9.5 -45q0 -9 7.5 -20t4.5 -19q-3 -7 -10 -7.5t-12 4.5z"/>
<glyph glyph-name="exclam" unicode="!" horiz-adv-x="115" d="M109 162q23 35 46.5 70.5t50.5 68.5q13 17 27 31.5t29 29.5q5 6 11.5 13t14.5 7q9 0 15 -8.5t2 -17.5q-3 -6 -9 -10t-12 -9q-9 -7 -17 -15t-17 -16q-16 -14 -29.5 -30t-27.5 -32q-14 -17 -25.5 -34.5t-23.5 -35.5q-4 -6 -10 -18t-15 -12q-8 0 -11 6.5t1 11.5zM58 62 q15 0 17.5 -9.5t-3 -21t-17.5 -20.5t-27 -9q-15 1 -18 10.5t3 20.5t18 20t27 9z"/>
<glyph glyph-name="period" unicode="." horiz-adv-x="157" d="M78 62q15 0 18 -9.5t-3 -21t-18 -20.5t-27 -9q-15 1 -18 10.5t3 20.5t18.5 20t26.5 9z"/>
<glyph glyph-name="a" unicode="a" horiz-adv-x="440" d="M-1 85q12 6 30.5 15.5t39.5 18.5t40.5 17t32.5 13q7 3 25 9t38 11t37.5 7t25.5 -3q12 -11 4.5 -20t-18.5 -11l-45 -5q-14 -4 -23.5 -9.5t-21.5 -13.5q-5 -4 -17.5 -16.5t-24.5 -27t-19 -28t0 -19.5q6 -5 19.5 -2t27.5 9t26 12.5t16 9.5q29 18 47 38q9 10 19.5 2.5 t6.5 -20.5q-2 -7 -7 -12l-9.5 -9.5t-7.5 -12.5q-4 -7 -2 -10.5t7 -4.5q14 -2 35 2t43.5 11t44.5 16.5t38 17.5q4 1 11 5.5t14.5 7.5t14.5 3t10 -6q4 -6 -0.5 -11t-12.5 -8.5t-16 -6.5t-12 -5q-17 -8 -34 -15.5t-35 -15.5q-12 -5 -26 -12t-29 -12t-30.5 -7t-28.5 3 q-17 7 -20 19.5t1 26.5l-27 -16q-17 -10 -35.5 -20.5t-38.5 -12.5q-18 -1 -32 8t-15 28q0 10 8 25.5t20.5 32t27.5 30.5t28 21q-7 -2 -22.5 -9t-35 -17t-41 -20.5t-39.5 -19.5q-5 -3 -10 -1.5t-7.5 5t-2 8t6.5 7.5z"/>
<glyph glyph-name="A" unicode="A" horiz-adv-x="730" d="M8 25q35 17 73 28.5t76 20.5l25 39q33 47 67 91t71 88q36 42 74.5 82.5t81.5 75.5q21 17 43 32t45 27q6 3 19.5 9t27.5 9.5t26 2.5t16 -12q2 -7 -1.5 -14.5t-5.5 -13.5l-23 -47l-19 -39q-20 -39 -38.5 -78t-36.5 -80q-16 -36 -31 -72t-28 -74q8 0 15.5 -1t13.5 -3 q12 -5 11.5 -17.5t-12.5 -16.5q-9 -2 -19 -1t-21 3l-4 -21q-6 -21 -11.5 -44.5t-9 -47t-4.5 -46.5t3 -44q28 28 53 54t55 49q45 35 92.5 65t97.5 57q5 3 9 1.5t6.5 -5.5t2 -8.5t-5.5 -7.5l-41 -22q-26 -15 -51.5 -30.5t-49.5 -33.5q-77 -56 -139 -132q-5 -8 -10.5 -14 t-16.5 -8q-14 -2 -22 4t-12.5 16t-5.5 22t0 22q1 44 13 89t26 87q-17 1 -34 1.5t-34 0.5q-36 2 -72 0t-71 -7l-46 -7l-14 -26q-12 -23 -25 -48t-16 -51q-1 -8 -3.5 -16t-13.5 -9q-9 0 -14.5 6t-4.5 14q1 25 13.5 49t23.5 45q4 8 8 14t9 14q-14 -3 -26.5 -6.5t-26.5 -8.5 q-18 -5 -34.5 -12t-33.5 -15q-5 -3 -9.5 -1t-6 6t-0.5 8.5t6 7.5zM446 102q26 69 54.5 135t57.5 133q14 30 27 60.5t25 62.5q-23 -4 -46 -15.5t-44 -26.5t-39.5 -31t-34.5 -30q-84 -77 -156 -170q-51 -68 -97 -138l83 12q37 3 74 4.5t75 -0.5h20q0 3 1 4z"/>
<glyph glyph-name="e" unicode="e" horiz-adv-x="355" d="M2 86q18 9 37.5 20t39.5 19q13 23 37 37.5t51 19.5q14 2 32.5 0t28.5 -15q7 -8 3.5 -17t-12 -17t-19 -14.5t-15.5 -9.5q-18 -11 -39.5 -16.5t-43.5 -3.5h-4q4 -22 18 -34t33 -17.5t39.5 -4.5t37.5 4q24 5 47 12.5t45 17.5q10 5 20.5 9.5t19.5 9.5q7 2 14.5 -2t1.5 -13 q-5 -8 -14 -11t-16 -6l-50 -22q-46 -18 -91 -30q-20 -4 -40.5 -2.5t-38 9t-31.5 21.5t-20 36q-2 8 -3.5 16t0.5 15q-11 -5 -21.5 -11.5t-18.5 -11.5q-5 -2 -13 -7.5t-16 -0.5q-6 4 -5.5 11t6.5 9zM104 114q24 1 46.5 12t39.5 28q-14 5 -27.5 3t-25 -8t-20.5 -15.5t-13 -19.5 z"/>
<glyph glyph-name="i" unicode="i" horiz-adv-x="304" d="M100 134q4 2 18.5 8t28.5 9t24 0.5t7 -18.5q-2 -9 -8.5 -18t-9.5 -18q-6 -13 -11.5 -32t3.5 -31q17 -2 37.5 4t37.5 12q5 2 19 10t29.5 15.5t28.5 11t16 -2.5q4 -7 -5 -15t-22.5 -14.5t-27.5 -12t-18 -7.5q-22 -11 -44.5 -21.5t-46.5 -14.5q-21 -3 -29 9t-8 30.5t5.5 40 t11.5 39.5q-23 -9 -45 -16.5t-43 -17.5q-18 -8 -36 -18q-11 -3 -17.5 5.5t5.5 14.5zM217 336q5 13 15.5 22.5t23.5 15.5t27.5 9.5t27.5 5.5q36 2 71 -3q6 0 13.5 -2t6.5 -11q-1 -5 -5 -8.5t-9 -2.5q-29 6 -60.5 4.5t-56.5 -18.5q-10 -6 -14 -16t-12 -16q-10 -8 -21 0t-7 20z "/>
<glyph glyph-name="braceright" unicode="}" horiz-adv-x="206" d="M181 352q11 -14 13.5 -29t-0.5 -31t-10 -31t-14 -28q-5 -10 -14.5 -24.5t-14.5 -29t-2 -26t22 -15.5q1 -1 5 -1h2v-1q9 -5 10 -13t-14 -10q-30 3 -56 -23q-13 -13 -23 -28.5t-19.5 -31t-19 -31.5t-20.5 -30q-8 -11 -18.5 -22t-23 -21t-26.5 -16.5t-28 -6.5q-12 -4 -19 7 t1 22q7 5 18 7q20 4 36 17q22 15 39.5 40t35 52t36.5 50t45 33q-10 12 -9 29q2 20 12.5 40t20.5 38q11 18 21 39.5t5 42.5q-2 8 -8 15t-3 14q2 8 8.5 8t11.5 -5z"/>
<glyph glyph-name="bracketleft" unicode="[" horiz-adv-x="211" d="M347 306q-10 -5 -21 -4.5l-22 1t-21.5 0t-19.5 -6.5q-16 -9 -26 -25.5t-20 -30.5l-45 -66q-22 -33 -42.5 -67.5t-38.5 -69.5q-16 -31 -33.5 -62.5t-29.5 -63.5q20 -5 43 -1t43 2q6 0 12.5 -3.5t10 -8.5t2.5 -10.5t-9 -10.5q-9 -5 -22 -4t-23 1q-9 -1 -24 -2.5t-30.5 -0.5 t-27.5 5.5t-15 15.5q-2 7 2 16.5t10.5 19t13 18t10.5 14.5q12 19 22 38t21 38q26 50 55.5 97.5t59.5 94.5q10 15 18 33t18 34t23.5 27.5t34.5 13.5q14 2 29 -1t27 3h11.5t9.5 -6q5 -7 3.5 -15.5t-9.5 -12.5z"/>
<glyph glyph-name="bracketright" unicode="]" horiz-adv-x="215" d="M-107 -91q10 4 21 4t22 -0.5t21.5 0t19.5 5.5q16 9 26 26t20 31q22 30 44 67q22 32 42.5 66.5t39.5 69.5q15 30 31.5 61.5t29.5 64.5q-20 5 -42 1t-42 -3q-7 1 -13.5 4.5t-10 8.5t-2.5 10.5t9 10.5q9 5 22.5 3.5t23.5 0.5q9 0 24 1.5t30 0.5t27.5 -6t15.5 -16 q2 -7 -2 -16t-10.5 -18t-13 -17.5t-10.5 -14.5q-12 -20 -22 -39t-21 -39q-27 -50 -56.5 -97t-58.5 -95q-10 -15 -18 -32.5t-18.5 -33.5t-24 -27.5t-34.5 -14.5q-13 -2 -28.5 1t-28.5 -2q-5 1 -10 0.5t-10 5.5q-5 7 -3 15.5t10 12.5z"/>
<glyph glyph-name="less" unicode="<" horiz-adv-x="288" d="M266 200q-42 -25 -85.5 -44t-85.5 -42q6 -15 14 -30t19 -26q17 -17 35 -21q9 -2 13.5 -10t-0.5 -16t-12.5 -9t-16.5 1.5t-17 7.5t-12 8q-20 16 -32.5 37.5t-23.5 44.5q-6 15 -6 25.5t20 15.5q24 5 47.5 14t46.5 20q20 11 39 23t36 29q7 7 14.5 5.5t12 -7t4 -13.5 t-9.5 -13z"/>
<glyph glyph-name="greater" unicode=">" horiz-adv-x="304" d="M155 223q6 -2 28 -11.5t44 -22t35 -27t0 -26.5q-39 -38 -81 -65.5t-90 -54.5q-5 -3 -14.5 -10.5t-19.5 -12t-18.5 -4.5t-12.5 12q-3 10 4 17t17.5 12t21.5 8.5t17 5.5q41 18 78 41.5t63 60.5q-14 16 -36 25t-39 15q-9 4 -16.5 9t-3.5 16q2 8 8.5 11t14.5 1z"/>
<glyph glyph-name="question" unicode="?" horiz-adv-x="253" d="M154 298q6 16 19 34.5t29 28.5q13 11 31.5 19t39 11.5t40.5 1t37 -12.5q21 -12 29.5 -30.5t7 -38.5t-12 -39t-26.5 -33q-20 -15 -41.5 -21.5t-44 -9.5t-45.5 -6t-44 -10q-8 -3 -15.5 -7.5t-12.5 -11.5q-7 -9 -7.5 -18.5t-4.5 -18.5q-3 -8 -9 -10.5t-11.5 0t-9.5 8 t-3 12.5q5 24 17.5 39t29 24t37 12.5t42.5 5.5q18 2 41.5 6t43.5 13.5t33 25.5t11 42q-2 23 -19 34.5t-39.5 13.5t-45 -3.5t-35.5 -16.5q-6 -5 -10 -11.5t-9 -13.5q-5 -9 -6 -20.5t-6 -19.5t-12 -8.5t-12.5 3t-8 11t1.5 15.5zM62 62q15 0 18 -9.5t-3 -21t-18 -20.5t-27 -9 q-15 1 -17.5 10.5t3.5 20.5t18 20t26 9z"/>
<glyph glyph-name="hyphen" unicode="-" horiz-adv-x="340" d="M60 98q35 -3 71 -1t71 7q15 2 34.5 7.5t35.5 3.5q13 -2 15.5 -14.5t-9.5 -18.5q-6 -4 -14 -5t-17 -1h-17.5h-15.5q-39 -3 -76 -3q-17 0 -35 0.5t-36 0.5q-5 0 -10.5 1t-8.5 7q-4 6 0 12t12 4z"/>
<glyph glyph-name="equal" unicode="=" horiz-adv-x="316" d="M35 89q35 -4 70.5 -1.5t70.5 7.5q16 2 35.5 7.5t35.5 3.5q13 -2 15.5 -15t-9.5 -19q-6 -4 -14 -5t-17 -1h-18h-16q-19 -1 -37.5 -1.5t-37.5 -0.5q-17 0 -35 0.5t-36 0.5q-5 0 -11 1t-8 6q-4 6 0 12t12 5zM66 158q35 -3 71 -1t71 7q15 2 34.5 7.5t35.5 3.5 q13 -2 15.5 -14.5t-9.5 -18.5q-6 -4 -14 -5t-17 -1h-17.5h-15.5q-39 -3 -76 -3q-17 0 -35 0.5t-36 0.5q-5 0 -10.5 1t-8.5 7q-4 6 0 12t12 4z"/>
<glyph glyph-name="ampersand" unicode="&" horiz-adv-x="361" d="M196 181q21 4 46.5 14t48 25.5t37 37t13.5 47.5q-1 16 -12.5 21t-28.5 2.5t-36.5 -10.5t-38 -17.5t-32.5 -18.5t-19 -13q-39 -32 -66 -72q-4 -6 -10.5 -17.5t-11 -24t-5 -24t8.5 -18.5q8 -6 16.5 -6t17 3t17 6.5t16.5 2.5l54 10t55 10l57 11q11 2 22.5 4.5t22.5 5.5 q11 2 23.5 6t20.5 -3q10 -8 8.5 -14t-7.5 -10.5t-15 -7t-14 -3.5q-21 -3 -42 -5.5t-43 -4.5q-1 -16 -8 -33t-9 -23q-21 -46 -58 -84t-84 -58q-20 -11 -43.5 -15.5t-46.5 0.5t-38 22t-7 43q6 23 24 43t36 35q11 10 21.5 19t21.5 18q-12 0 -22.5 4t-18.5 15q-7 12 -7 26 t4.5 28t11.5 27t14 24q16 25 37 48.5t45.5 43.5t52.5 34.5t57 22.5q13 3 27 3.5t26.5 -3t22.5 -12t15 -22.5q4 -14 1.5 -28t-9.5 -27t-16.5 -24.5t-19.5 -20.5q-22 -20 -47 -36.5t-52 -29.5q-8 -5 -19 -10.5t-21 0.5q-11 6 -8.5 18.5t14.5 14.5zM186 102q-5 -2 -12 -4.5 t-13 -2.5q-3 -3 -4 -3q-14 -9 -27 -18.5t-26 -20.5q-18 -16 -35 -34t-28 -39q-6 -14 -3.5 -23t10 -13.5t19 -5.5t22.5 1q51 6 93.5 38t68.5 75q12 23 20 49q0 2 0.5 5.5t0.5 7.5q-21 -3 -42.5 -5.5t-43.5 -6.5z"/>
<glyph glyph-name="parenleft" unicode="(" horiz-adv-x="163" d="M73 -109q-27 34 -39.5 73t-11 78.5t16 78t40.5 72.5q25 31 54.5 55t64.5 44q5 3 17 9.5t28 14t33 14t31.5 9.5t25 1t13.5 -12q1 -9 -3 -13.5t-11 -7.5t-14.5 -4.5l-12.5 -2.5q-44 -11 -83 -30t-72 -45t-59 -61t-39 -77t-5 -87q7 -43 35 -80q3 -6 10 -14.5t-2 -15.5 q-4 -4 -9 -3.5t-8 4.5z"/>
<glyph glyph-name="parenright" unicode=")" horiz-adv-x="197" d="M-116 -90q40 7 79 24.5t72.5 43t60.5 58.5t44 71q17 36 20 77t-12 79q-8 19 -21 36q-5 6 -10.5 13t-3.5 16q4 16 16.5 13t20.5 -12q26 -36 34.5 -75.5t3 -79.5t-23 -78t-44.5 -70q-27 -33 -60.5 -59t-71.5 -45q-20 -10 -40.5 -18t-42.5 -13q-6 -2 -14.5 -4.5t-14.5 4.5 q-5 5 -2.5 11.5t10.5 7.5z"/>
<glyph glyph-name="percent" unicode="%" horiz-adv-x="394" d="M178 274q11 3 26 0.5t24 -10.5q2 -2 3.5 -3t2.5 -3l4 -4v-1q7 -10 6.5 -22.5t-4.5 -24.5t-11 -23t-14 -19q-8 -10 -20 -19.5t-25.5 -16.5t-28 -10t-27.5 1q-26 8 -28 30.5t12 40.5q13 16 29.5 31t35.5 26q-4 8 0 16.5t15 10.5zM266 26q7 -14 4 -28t-12 -26 q-14 -18 -34.5 -34.5t-43.5 -21.5q-16 -3 -30 2t-22 14.5t-8.5 23t10.5 27.5q18 23 45 42.5t57 23.5q6 1 14 1.5t13 -4.5q11 -9 6 -18v-2h1zM-4 -62q66 48 126 101t119 109l58 52q5 6 12 14.5t15 17t16 14.5t16 7q14 2 19 -10t-5 -21l-67 -58q-54 -46 -107 -90.5t-107 -89.5 l-59 -49l-20 -15q-5 -4 -9.5 -3t-7.5 4.5t-3.5 8t4.5 8.5zM214 228q-14 6 -33.5 -3t-36 -23.5t-24 -29t3.5 -18.5q9 -3 20 -1.5t22 6.5t20.5 12t15.5 15q5 8 10.5 18.5t5.5 21.5zM150 -36q-2 -6 2.5 -9t11 -4t13.5 -0.5t10 1.5q13 4 24.5 11.5t21.5 16.5q7 8 10.5 18.5 t-7.5 17.5q-11 3 -25 -1t-27 -11.5t-22.5 -18.5t-11.5 -21z"/>
<glyph glyph-name="fraction" unicode="⁄" horiz-adv-x="388" d="M-4 -62q66 48 126 101t119 109l58 52q5 6 12 14.5t15 17t16 14.5t16 7q14 2 19 -10t-5 -21l-67 -58q-54 -46 -107 -90.5t-107 -89.5l-59 -49l-20 -15q-5 -4 -9.5 -3t-7.5 4.5t-3.5 8t4.5 8.5z"/>
<glyph glyph-name="slash" unicode="/" horiz-adv-x="383" d="M-4 -62q66 48 126 101t119 109l58 52q5 6 12 14.5t15 17t16 14.5t16 7q14 2 19 -10t-5 -21l-67 -58q-54 -46 -107 -90.5t-107 -89.5l-59 -49l-20 -15q-5 -4 -9.5 -3t-7.5 4.5t-3.5 8t4.5 8.5z"/>
<glyph glyph-name="comma" unicode="," horiz-adv-x="154" d="M-31 -48q23 17 43.5 37.5t34.5 46.5q5 10 9 23.5t18 13.5q11 -1 15.5 -9.5t-0.5 -17.5q-8 -23 -28 -43.5t-37 -34.5q-9 -8 -19.5 -19t-21.5 -16q-5 -4 -9.5 -3t-7 4.5t-2.5 8.5t5 9z"/>
<glyph glyph-name="bar" unicode="|" horiz-adv-x="296" d="M11 -72q46 81 87 163t80 167l36 78q5 12 9.5 22.5t9.5 21.5q4 8 7.5 18.5t11.5 15.5q9 5 14.5 3t7.5 -8t1.5 -13.5t-3.5 -13.5l-44 -88q-35 -69 -69.5 -137.5t-70.5 -137.5q-11 -19 -21 -37.5t-20 -37.5l-15 -27q-3 -5 -7.5 -6t-8.5 0.5t-6 6t1 10.5z"/>
<glyph glyph-name="nine.001" horiz-adv-x="182" d="M102 29q-30 -47 -49 -96q-5 -13 -9 -25.5t-8 -26.5q-3 -11 -5 -28t-9 -25q-7 -6 -15.5 -4.5t-12.5 9.5q-5 7 -2.5 15t4.5 15q9 27 20 53.5t25 52.5q23 45 50 86t58 79l-13 -4q-10 -4 -22.5 -8.5t-25 -7.5t-25 -2.5t-22.5 7.5q-22 15 -12 34t33.5 36.5t49.5 30.5t37 16 q19 7 40 5.5t35 -18.5q7 5 15 7q11 0 16.5 -10.5t-2.5 -19.5q-4 -5 -9 -8t-10 -7q-40 -34 -73 -73.5t-59 -82.5zM64 145q12 -5 32 -1.5t31 8.5q17 7 34 16.5t31 21.5q1 1 2.5 2t3.5 4q-7 16 -27 15.5t-42.5 -11t-41.5 -26t-23 -29.5z"/>
<glyph glyph-name="eight.001" horiz-adv-x="220" d="M269 179q2 -16 -4.5 -27.5t-17.5 -19.5t-25 -12.5t-26 -7.5q-6 -2 -11.5 -3t-11.5 -2q5 -7 8 -14t4 -15q2 -21 -5 -43t-19.5 -42.5t-29.5 -37t-35 -26.5q-14 -8 -33.5 -11.5t-38.5 -0.5t-34.5 13.5t-21.5 29.5q-8 22 0.5 44.5t25 42.5t37 36.5t36.5 25.5q2 1 4 2.5t5 2.5 q-8 5 -14 13q-8 12 -8 24t5 23t14 21t18 17q12 9 27.5 17.5t33 13.5t34 5t30.5 -9q9 -6 14 -17q16 -6 26.5 -17t12.5 -26zM130 95q-8 -1 -14 2q-17 0 -34.5 -10t-28.5 -19q-18 -14 -37 -34t-23 -45q-2 -11 4 -18.5t16 -12.5q23 -10 45 -7t42 15q19 12 31.5 29.5t20.5 38.5 q3 7 5 16.5t1.5 18.5t-4.5 16t-12 9q-6 0 -10 1h-2zM79 150q1 -9 8.5 -14.5t18.5 -8.5q14 6 33 4q1 -1 4 -1l8 -4q29 3 54.5 12t32.5 20q8 12 2 21t-18 14q-5 -2 -11.5 -0.5t-8.5 6.5l-16 4q-10 1 -25.5 -1.5t-26.5 3.5q-23 -10 -40 -24t-15 -31z"/>
<glyph glyph-name="seven.001" horiz-adv-x="277" d="M125 224q43 11 87 19.5t89 9.5q11 1 27 2t27 -4q8 -2 11 -10t-2 -15t-14 -10t-15 -7q-57 -30 -104 -76.5t-88 -97.5q9 2 18 3.5t18 2.5q6 1 16 3t20.5 3.5t20 0.5t14.5 -7q8 -9 6 -15t-9 -9t-15.5 -3.5t-14.5 -0.5q-45 0 -90 -6q-5 0 -7 -1q-6 -8 -12 -15t-11 -15 q-11 -17 -22.5 -33t-21.5 -34q-3 -4 -8 -12.5t-12 -14.5t-13.5 -6.5t-12.5 11.5q-3 7 -0.5 14.5t8 15t11.5 14t10 11.5l47 58q-12 -2 -23.5 -4t-22.5 -4q-5 -2 -14 -4t-15 4q-5 5 -2.5 12t10.5 8q23 2 44 6.5t44 9.5q48 54 96.5 104.5t105.5 94.5q-28 2 -56.5 -1.5 t-53.5 -10.5q-9 -3 -17.5 -5.5t-16.5 -6.5q-8 -3 -17.5 -9t-18.5 -4q-7 1 -11 6t-4 11t3.5 11t10.5 6z"/>
<glyph glyph-name="six.001" horiz-adv-x="236" d="M289 226q-55 -5 -104.5 -34t-87.5 -68q41 9 76 -6q23 -12 29 -30.5t1 -37.5t-19 -36t-30 -27q-16 -9 -36 -16t-40 -7t-37.5 8.5t-27.5 28.5q-8 17 -5 32.5t11 31.5q-6 -4 -12 -7t-9 -5q-12 -8 -23 -15t-22 -16q-6 -7 -14.5 -10.5t-16.5 4.5q-9 9 -5 17.5t13.5 15.5 t20 12.5t15.5 8.5q17 9 38.5 20t45.5 20q21 24 45.5 45t49.5 41q49 37 106 57q10 3 25 8t24 -4q9 -8 5 -19t-16 -12zM78 -2q15 -3 36.5 1t39 15t26.5 27t1 37q-6 15 -17.5 21.5t-26.5 6.5t-32.5 -4.5t-34.5 -11.5q-10 -13 -17.5 -27.5t-8.5 -27.5t6.5 -23t27.5 -14z"/>
<glyph glyph-name="five.001" horiz-adv-x="270" d="M172 214q-14 -8 -25.5 -20t-21.5 -26q16 8 33 15t34 13q17 5 34.5 2t25.5 -19q8 -15 5.5 -32.5t-11 -34t-19.5 -31.5t-19 -26q-21 -28 -43.5 -54.5t-48.5 -50.5q-11 -11 -22.5 -21t-25.5 -15q-8 -3 -12.5 -0.5t-6.5 8t-2 12.5v12q5 36 25 66t46 55q7 8 17.5 18.5 t22.5 4.5q10 -5 11 -11t-3.5 -12t-11.5 -10.5t-12 -7.5q-23 -14 -43 -39t-21 -54q17 8 31 22.5t25 25.5q38 38 66 86q3 5 8.5 15t9.5 21t5.5 21t-2.5 15q-9 8 -25.5 5.5t-26.5 -6.5q-11 -5 -22.5 -11t-21.5 -12q-8 -5 -18 -14t-18 -11q-8 -3 -16 -2t-11 11q-3 11 8 21t19 18 q11 14 23 27.5t22 29.5q-8 -2 -15.5 -2.5t-15.5 -1.5q-6 -2 -15.5 -5t-16.5 0q-9 2 -8 11.5t10 11.5l186 30q7 1 18 3t22.5 3.5t22 0.5t15.5 -7q9 -11 5.5 -17t-12.5 -8.5t-19.5 -3t-14.5 -0.5q-24 1 -48 -1l-48 -4l-20 -2q0 -6 -8 -12z"/>
<glyph glyph-name="four.001" horiz-adv-x="223" d="M92 115q10 -9 26.5 -2.5t34 19t32.5 27t21 20.5q15 15 29 31t28 30q9 5 20.5 2t9.5 -18q-2 -9 -11 -15.5t-16 -12.5l-30 -33q-14 -17 -27.5 -35t-24.5 -37q-26 -37 -47.5 -76t-40.5 -80q-3 -6 -6 -16t-7.5 -20.5t-10.5 -17.5t-14 -7q-12 0 -14.5 6.5t-0.5 14.5t6.5 16 t6.5 13q26 48 53.5 95.5t57.5 93.5q-22 -17 -45.5 -25.5t-43.5 6.5q-16 12 -15.5 29.5t9 36.5t21 36t20.5 27q6 8 13.5 17.5t18.5 11.5q8 2 13 -1.5t6.5 -9.5t-0.5 -12.5t-8 -10.5q-3 -2 -16 -15.5t-26.5 -30.5t-21.5 -33t0 -24z"/>
<glyph glyph-name="three.001" horiz-adv-x="278" d="M109 197q11 18 29 35t39.5 28t45 15.5t45.5 -1.5q20 -6 35 -23t16 -39q0 -14 -6 -26t-15.5 -22t-21.5 -17.5t-23 -13.5t-22.5 -10.5t-24.5 -9.5q13 -12 22 -27t11 -32q3 -24 -6.5 -44.5t-27 -35t-39.5 -22.5t-44 -8q-23 0 -45.5 9t-40.5 25t-28 37.5t-8 46.5q0 6 2.5 17 t7 21.5t11.5 18.5t16 8q16 0 17 -8.5t-4 -19.5t-12.5 -22t-8.5 -15q-8 -23 5 -44t33 -32q23 -11 49.5 -8.5t49.5 11.5q23 8 39 26.5t9 44.5q-5 15 -15 26.5t-24 17.5q-5 -1 -9.5 -1.5t-9.5 -0.5q-12 -1 -24 -0.5t-23 5.5t-13.5 17.5t11.5 17.5q7 3 16.5 3t19.5 -2t19.5 -5 t16.5 -6q16 3 31.5 8.5t30.5 14.5q11 7 22 17.5t16 22.5t2.5 24.5t-18.5 21.5q-14 8 -29.5 8.5t-31 -5t-28.5 -14.5t-22 -21q-3 -5 -5 -11t-4 -12.5t-5.5 -11.5t-10.5 -6q-11 -3 -18 8t0 21z"/>
<glyph glyph-name="two.001" horiz-adv-x="311" d="M79 150q11 19 28 36t38 31t43.5 23.5t44.5 12.5q16 3 32.5 -1.5t22.5 -22.5q8 -18 -2 -35.5t-21 -31.5q-33 -38 -74 -69.5t-82 -60.5l-17 -12q45 4 90.5 -2.5t86.5 -23.5q6 -5 8 -12t-0.5 -13t-8 -9t-14.5 0q-11 5 -19.5 11t-19.5 11q-13 5 -26 8t-26 5q-27 4 -57.5 2.5 t-59.5 -9.5l-17 -12q-7 -5 -15 -11.5t-17 -12.5t-18 -11t-16 -6q-17 -5 -23 11q-4 12 6.5 20t18.5 14q18 12 38 19.5t40 12.5q19 13 37 26t35 26q36 26 72.5 56.5t58.5 70.5q8 13 10 21t-15 9q-23 1 -45.5 -7t-40.5 -22q-8 -5 -14.5 -11.5l-13.5 -13.5q-6 -9 -9.5 -18.5 t-8.5 -18.5q-5 -8 -12 -8.5t-12.5 3t-8 10.5t2.5 15z"/>
<glyph glyph-name="one" unicode="1" horiz-adv-x="868" d="M12 307q32 17 64 31.5t67 24.5q2 0 4 9.5t4 21t3.5 22.5t3.5 15q10 15 31 24t37 16q41 17 83 29t85 23q44 11 87.5 18.5t88.5 11.5q16 2 37.5 4t44 1.5t42.5 -5.5t32 -18q2 -2 0 -13.5t-3 -15.5l-3 -45q0 -2 2 -2q37 -11 71 -27t57 -48v-1q-8 2 -17.5 -1.5t-18.5 -9.5 t-17.5 -13t-12.5 -12q14 -8 22.5 -22t12.5 -31t3.5 -34t-5.5 -31q-8 20 -23.5 31t-34 16t-39.5 6.5t-39 2.5q-20 2 -43 1t-43 6q-8 3 -11 12t-3.5 20t1 22t2.5 17q-85 -6 -168.5 -25.5t-163.5 -47.5q-3 -2 -3 -3q1 -5 3.5 -16t5 -23t3 -22.5t-3.5 -13.5q-11 -8 -27 -10 t-30 -4q-18 -2 -36.5 -5t-36.5 -6q-32 -6 -60 -18q-7 -3 -13.5 -6t-13.5 -8q-3 -3 -8 -8.5t-8 -7.5q5 16 11.5 31t12.5 30q1 3 6 12t10 19t8.5 18t2.5 10q-11 16 -27 31t-36 17zM706 364q2 26 2 52t2 52q1 14 1.5 27t2.5 26q1 6 -2.5 10t-9.5 6.5t-12.5 3.5t-11.5 2 q-56 8 -115 0t-114 -19q-60 -12 -118.5 -28t-114.5 -41q-11 -5 -22 -10.5t-20 -13.5q-10 -8 -12 -23t-4 -26q-4 -31 -4 -61.5v-61.5q9 0 24 10t24 14q17 8 35 14t35 12q71 22 146 39q36 8 72 14.5t73 10.5q34 3 72.5 4.5t70.5 -13.5zM623 423l-7.5 -7.5t-8.5 -5.5 q-7 -2 -13 5q-8 -6 -14 -7q-14 -3 -20 9v1q-4 -4 -8 -7.5t-10 -5.5q-7 -3 -12 5q-3 6 -1.5 11t4 10.5t4 10.5t0.5 10q-8 -3 -11.5 -8.5t-5 -12t-2.5 -13.5t-4 -13q-3 -8 -12 -4q-3 1 -3 5q0 2 0.5 4t0.5 4q-7 -2 -9.5 -2t-7.5 -5t-11 -9t-14 -4q-5 1 -8 4t-5 7 q-8 -8 -19 -15.5t-22 -5.5q-7 1 -12 8q-5 -5 -10.5 -10t-12.5 -7q-14 -5 -16 10q-2 12 4 20t10 18q1 2 -1 2.5t-3 -1.5q-4 -9 -9 -20.5t-11.5 -21t-16 -16t-22.5 -5.5q-14 1 -16.5 10.5t2.5 21.5t14.5 21.5t19.5 10.5q6 0 8 -5q4 -6 1 -13q-3 -11 -12.5 -19t-20.5 -10 q1 -6 5 -6.5t8 1.5t8 5t6 5q11 10 16 21.5t10 23.5q2 3 -4 12t-4 15q4 13 16 11q5 0 7 -6q2 -5 1.5 -11t-1.5 -11q10 1 14 -0.5t-2 -12.5q-4 -8 -8.5 -16t-5.5 -17q0 -4 4 -4q10 -1 16 8.5t11.5 22t10.5 24t12 15.5q3 1 7 -1q3 -3 1 -6q-2 -5 -4.5 -9.5t-0.5 -10.5t5.5 -12 t2.5 -13h1q5 6 8.5 13.5l7 15t8 14t12.5 9.5q17 7 23 -9q4 -7 2.5 -12t-0.5 -13q4 1 7 4q7 6 8 16.5t4 18.5q1 3 4.5 3.5t6.5 -0.5q4 -2 3 -6v-1q5 5 11 8q10 4 14 -6q2 -6 0.5 -11t-4 -10t-4.5 -10t-1 -11q13 10 19 25.5t20 24.5q10 6 24 0q2 4 8.5 4.5t4.5 -6.5 q-2 -9 -7 -18.5t-5 -18.5q0 -6 4 -2q9 9 14 22t9.5 26.5t11 25t19.5 19.5q7 3 11 -4q6 -11 2 -22.5t-11 -19.5q-3 -4 -9 -9t-11.5 -11t-9 -12t-1.5 -12q2 -8 10 -6q7 2 10 8.5t7 11.5q3 3 6 1q4 0 4 -4l-2 -6q-8 -18 -25 -25q-12 -6 -20 7q-2 2 -2 5zM831 391 q-23 22 -51.5 35.5t-59.5 21.5q-1 -26 -1.5 -52.5t-2.5 -52.5l-1 1v-3q-12 -1 -29.5 -2t-34.5 -4t-32 -9.5t-23 -18.5q-3 -3 2 -4q25 -10 55.5 -8t56.5 0q27 -2 54 -9q14 -4 24 -11t22 -13q0 29 -9.5 49.5t-37.5 31.5q16 14 32 27t36 21zM144 352q-28 -7 -54 -17.5 t-52 -24.5q16 -10 28 -22.5t22 -27.5q1 -2 -1.5 -8t-6.5 -13t-7.5 -13.5t-4.5 -8.5l-10 -22t-9 -22q23 12 48 18t50.5 9.5l51 7t49.5 11.5q-8 9 -21.5 12t-29 3.5t-30.5 -1l-25 -2.5v60.5t2 60.5zM362 88q0 4 -4 10h26q13 -6 24 -24t16 -31q0 12 1.5 28t-6.5 27h35 q-5 -5 -5 -11.5v-13.5v-114v-15t5 -13h-96q5 6 6 16t0.5 21t-1.5 21t-1 18v81zM313 98q18 0 26 -9.5t10.5 -23.5t1.5 -30t-1 -28v-36q0 -23 -12.5 -32t-32.5 -8q-18 0 -26.5 9.5t-11 23.5t-1.5 30t1 28q0 9 -0.5 18t0.5 18q0 23 12.5 31.5t33.5 8.5zM263 453q6 0 9 -1 q17 -2 19 -21q3 -20 -10.5 -38.5t-30.5 -29.5q-9 -6 -13.5 -15t-8.5 -18t-9.5 -17.5t-15.5 -13.5q-11 -7 -25 -4t-12 18q0 10 7 17t17 9q2 1 6.5 -0.5t2.5 -6.5q-6 -4 -11 -4q-5 -2 -7 -7.5t1 -10.5q2 -2 8 -4q9 -1 15 5.5t10.5 15.5t6.5 19t4 16q-14 -12 -28 -16 q-13 -2 -21 5q-8 5 -8 17q0 13 6 24q14 29 41 46q10 6 24 11q5 2 10 5.5t10 4.5q4 0 3 -6zM361 209q-2 7 -5 18t-4 22.5t1 21.5t10 15q5 4 15 4.5t13 -7.5t-0.5 -10.5t-8.5 -1.5t-8.5 4t0.5 7q-8 -4 -8 -13.5t3 -20.5t7.5 -21t6.5 -16q6 -17 8.5 -40.5t-9.5 -39.5 q-5 -7 -16 -9t-23.5 -2t-24.5 1.5t-19 1.5q5 7 6.5 17.5t1 22t-1.5 22.5t-1 19v58v14.5t-5 13.5h35q-6 -6 -5.5 -15.5t0.5 -17.5v-65q0 -8 -0.5 -23t4.5 -22q4 -5 9 -5.5t9.5 2t8 7t4.5 8.5q3 12 1 25t-4 25zM556 231q-2 -4 -6.5 -14t-9 -21t-6 -21t4.5 -13q-2 6 3 6.5 t10 -2t6 -6.5t-8 -8q-11 -5 -16 4t-4 17q0 7 3 15t4 14.5t-2 10.5t-14 3v-73q8 0 20 -1t20 5q-2 -6 -3.5 -12t-3.5 -12h-64q5 5 5 11.5v13.5v114v14.5t-5 13.5h59q11 -12 11.5 -28t-4.5 -31zM473 285q0 -6 3.5 -13.5t6 -14.5t2 -13.5t-7.5 -12.5q-6 -5 -15 -4.5t-10 10.5 q0 5 3 7.5t7 2.5t7 -2.5t2 -6.5q6 1 6 6t-3.5 10t-8.5 9.5t-8 5.5q-7 2 -15.5 0.5t-11.5 -8.5q-6 -12 -2 -20.5t12 -15t17.5 -12.5t14.5 -13q7 -9 10.5 -22t2 -24.5t-9 -20.5t-22.5 -10q-13 -1 -25.5 -0.5t-24.5 0.5q4 1 2.5 8t-4 16t-4 18t2.5 14q5 6 15.5 7t12.5 -10 q0 -5 -3.5 -7.5t-7 -2.5t-6.5 2t-3 7q-6 -2 -6 -6.5t3.5 -10t8.5 -9.5t8 -5q6 -2 15.5 -1.5t14.5 5.5q10 10 8 19t-9.5 17t-17 14.5t-14.5 11.5q-8 7 -13.5 19.5t-5.5 24.5t6 22t20 13q12 2 25 1.5t25 -0.5zM134 -132l-19 -104h-20q-3 17 -5.5 34.5t-4.5 34.5 q-2 -17 -5 -34.5t-6 -34.5h-20l-18 104h21q2 -19 4 -38.5t5 -38.5q2 20 5 39l6 38h18l11 -77q3 40 9 77h19zM235 -132l-19 -104h-20q-3 17 -5.5 34.5t-4.5 34.5q-2 -17 -5 -34.5t-6 -34.5h-20l-18 104h21q2 -19 4 -38.5t5 -38.5q2 20 5 39l6 38h18l11 -77q3 40 9 77h19z M336 -132l-19 -104h-20q-3 17 -5.5 34.5t-4.5 34.5q-2 -17 -5 -34.5t-6 -34.5h-20l-18 104h21q2 -19 4 -38.5t5 -38.5q2 20 5 39l6 38h18l11 -77q3 40 9 77h19zM515 -187q7 -3 10 -9t4.5 -13t2.5 -14.5t4 -12.5h-24q-3 5 -4 12.5t-3 14t-6 10.5t-12 3v-40h-24v103q13 2 30 3 t28 -7q15 -11 11.5 -27t-17.5 -23zM707 -236h-24q-9 18 -17 36.5t-17 35.5q2 -18 2 -36v-36h-22v104h26l32 -70q-2 17 -2 35v35h22v-104zM459 -69q5 7 6.5 17.5t1 22t-1.5 22.5t-1 19v58v14.5t-5 13.5h35q-5 -5 -6.5 -14.5t-1 -20t1.5 -20.5t1 -16v-76h48q11 0 26.5 -1.5 t25.5 5.5q-2 -4 -3.5 -14t-6.5 -10h-120zM450 -236h-24l-7 24h-24l-5 -24h-25l28 104h30zM802 -232q-19 -7 -36.5 -4t-29.5 13.5t-15.5 27.5t6.5 37q6 14 19.5 20.5t28.5 6.5h5t8.5 -1t7.5 -2t3 -2l-4 -19q-12 6 -22.5 4t-17 -9t-9 -17t1.5 -22q6 -21 28 -19q5 1 4 10t-1 13 h-12v19h35v-56zM541 15q-11 20 -19 43q-4 11 -6 22t-11 18h37q-6 -13 0.5 -30.5t11.5 -28.5q6 14 11 29t0 30h37q-10 -6 -12 -18t-5 -22q-3 -9 -11 -22.5t-8 -22.5q0 -5 -0.5 -12t-0.5 -14t1 -13.5t5 -10.5h-35q8 8 6.5 24.5t-1.5 27.5zM325 58q0 7 -4.5 12.5t-10 7t-11 -1 t-6.5 -10.5q-1 -6 -0.5 -13t0.5 -13q0 -17 -1 -34.5t1 -34.5q0 -7 4.5 -12.5t9.5 -7t10 1t7 10.5q2 6 1.5 13t-0.5 13v69zM424 -54q-1 29 -9 59.5t-27 53.5v-107q0 -7 5.5 -11t12 -5t12 1.5t6.5 8.5zM245 439q-13 -3 -24.5 -11t-20.5 -18q-3 -3 -7.5 -11.5t-7.5 -18 t-1.5 -16.5t10.5 -7q14 0 23 9.5t14.5 22.5t8.5 27t5 23zM549 -132h24v-104h-24v104zM242 371q7 2 14 9t11.5 16t6.5 18.5t0 16.5q-3 10 -15 10q-6 -17 -9.5 -35t-7.5 -35zM521 270v-33q10 0 21.5 1t12.5 15q1 15 -11.5 16t-22.5 1zM599 455q-2 9 -7 7q-8 -4 -12.5 -11 t-6.5 -15q-2 -5 0.5 -12.5t10.5 -1.5q6 5 10 15t5 18zM456 421l2 -6q3 -9 11 -4q7 3 10.5 10.5t2.5 15.5q-1 5 -4.5 8t-10.5 -2q-9 -7 -11 -22zM328 -223q0 7 4.5 10.5t9.5 3.5t9.5 -3.5t4.5 -10.5t-4.5 -10.5t-9.5 -3.5t-9.5 3.5t-4.5 10.5zM587 -223q0 7 4.5 10.5t9.5 3.5 t9.5 -3.5t4.5 -10.5t-4.5 -10.5t-9.5 -3.5t-9.5 3.5t-4.5 10.5zM493 -178q9 0 12.5 5t3 10.5t-5.5 10t-13 3.5q-5 -1 -4 -12.5t1 -16.5h6zM417 -194q-2 11 -4.5 21.5t-5.5 21.5l-9 -43h19zM411 422q-3 -4 -7 -10.5t-3 -11.5q2 -6 8 -5t7 7q1 9 -5 20zM300 388q5 -1 13 7 t9 13q2 3 -1 5t-6 0q-5 -5 -8.5 -11.5t-6.5 -13.5zM666 507h-1q-17 -19 -23 -40q8 9 15 18.5t9 21.5zM358 442h1q0 3 1 6t-1 6q-2 0 -3 -3q-1 -4 2 -9z"/>
<glyph glyph-name="plus" unicode="+" horiz-adv-x="335" d="M110 13q18 26 32 60h-5q-17 0 -35 0.5t-36 0.5q-5 0 -11 1t-8 7q-4 6 0 12t12 4q45 -5 92 0l7 22q5 12 7.5 28.5t10.5 27.5q7 8 18.5 6t13.5 -13t-6.5 -25t-13.5 -25l-9 -18l21 3q16 2 35.5 7.5t35.5 3.5q13 -2 15.5 -14.5t-9.5 -18.5q-6 -4 -14 -5t-17 -1h-18h-16 q-23 -3 -45 -3q-4 -4 -6 -11q-5 -12 -12.5 -25t-14.5 -27q-2 -4 -5 -7.5t-9 -3.5q-6 -1 -9.5 4t-0.5 10z"/>
<glyph glyph-name="quotesingle" unicode="'" horiz-adv-x="2" d="M25 193q23 17 43.5 37.5t34.5 46.5q5 10 9.5 23.5t18.5 13.5q10 -1 14.5 -9.5t-0.5 -17.5q-8 -23 -28 -43.5t-37 -34.5q-9 -8 -19 -19t-21 -16q-5 -4 -9.5 -3t-7.5 5t-3 9t5 8z"/>
<glyph glyph-name="asterisk" unicode="*" horiz-adv-x="257" d="M236 168q6 -2 7 -8.5t-4 -11.5q-4 -4 -8 -2.5t-9 3.5l-52 27l-15 8h-1q-2 -3 -3 -5l-2 -4q-5 -13 -12.5 -25.5t-14.5 -27.5q-2 -3 -5 -6.5t-9 -3.5q-6 -2 -9.5 3.5t-0.5 10.5q8 11 14 22l12 22l-53 -21q-5 -2 -10.5 -3.5t-10.5 2.5q-6 5 -5 11.5t9 8.5q20 6 39 13.5 t37 17.5q-4 2 -7.5 4t-7.5 5q-10 6 -24.5 13t-22.5 18q-6 11 0 21.5t16 7.5q13 -5 25.5 -18t22.5 -21q3 -2 5.5 -4t5.5 -4l3 12q5 11 7.5 28t10.5 28q7 8 18.5 6t13.5 -13t-6.5 -25t-13.5 -25l-4 -10l10 7q13 8 29 21t31 18q13 3 20.5 -7.5t-0.5 -21.5t-26.5 -18t-31.5 -13 l-24 -12q14 -8 27.5 -15.5t28.5 -12.5z"/>
<glyph glyph-name="dotaccent.001" horiz-adv-x="118" d="M68 377q15 0 18 -9.5t-3 -21t-18 -20.5t-27 -9t-17.5 9.5t3.5 21t18 20.5t26 9z"/>
<glyph glyph-name="hungarumlaut" unicode="˝" horiz-adv-x="326" d="M181 373q-7 -15 -28 -23.5t-37 -13.5q-14 -5 -27 -8.5t-27 -7.5q-4 -1 -10.5 -3.5t-14 -4.5t-14.5 -2.5t-11 2.5q-8 8 1 15t24 12t30 8t18 5q7 3 17 7t19.5 9t17.5 10t10 10q3 8 10 9.5t13 -1t9.5 -9t-0.5 -14.5zM302 373q-7 -15 -28 -23.5t-36 -13.5q-14 -5 -27 -8.5 t-27 -7.5q-4 -1 -11 -3.5t-14.5 -4.5t-14.5 -2.5t-11 2.5q-8 8 1 15t24 12t30 8t18 5q7 3 17 7t19.5 9t17.5 10t10 10q4 8 10.5 9.5t12.5 -1t9.5 -9t-0.5 -14.5z"/>
<glyph glyph-name="dotlessi" unicode="ı" horiz-adv-x="304" d="M100 134q4 2 18.5 8t28.5 9t24 0.5t7 -18.5q-2 -9 -8.5 -18t-9.5 -18q-6 -13 -11.5 -32t3.5 -31q17 -2 37.5 4t37.5 12q5 2 19 10t29.5 15.5t28.5 11t16 -2.5q4 -7 -5 -15t-22.5 -14.5t-27.5 -12t-18 -7.5q-22 -11 -44.5 -21.5t-46.5 -14.5q-21 -3 -29 9t-8 30.5t5.5 40 t11.5 39.5q-23 -9 -45 -16.5t-43 -17.5q-18 -8 -36 -18q-11 -3 -17.5 5.5t5.5 14.5z"/>
<glyph glyph-name="asciitilde" unicode="~" horiz-adv-x="292" d="M35 89q18 14 37.5 29.5t42.5 20.5q14 3 21.5 -2t12 -14t6.5 -19.5t5 -19.5t11.5 -7t18 9t18.5 15.5t12 11.5q5 5 11 12t15 6q11 -1 15.5 -11.5t-3.5 -18.5q-7 -7 -16.5 -14.5t-21 -14.5t-23 -12t-21.5 -8q-14 -3 -22 2t-12.5 14t-6.5 20.5t-5 20.5q-3 8 -12 5 t-18.5 -10.5t-18 -16l-11.5 -11.5q-7 -8 -14 -15.5t-18 -2.5q-10 5 -10.5 14.5t7.5 16.5z"/>
<glyph glyph-name="asciicircum" unicode="^" horiz-adv-x="226" d="M106 239q20 7 39 17.5t39 21.5q5 3 13 11t17 14.5t17.5 9.5t14.5 -3q10 -11 15.5 -31.5t10.5 -33.5q2 -5 6 -14t3 -15q-2 -14 -12.5 -9t-14.5 13l-28 52q-43 -18 -82 -46q-8 -7 -18.5 -17t-22.5 -4q-11 5 -9.5 17.5t12.5 16.5z"/>
<glyph glyph-name="colon" unicode=":" horiz-adv-x="157" d="M78 62q15 0 18 -9.5t-3 -21t-18 -20.5t-27 -9q-15 1 -18 10.5t3 20.5t18.5 20t26.5 9zM145 186q15 0 18 -9.5t-3 -21t-18 -20.5t-27 -9t-18 9.5t3 21t18.5 20.5t26.5 9z"/>
<glyph glyph-name="semicolon" unicode=";" horiz-adv-x="157" d="M145 186q15 0 18 -9.5t-3 -21t-18 -20.5t-27 -9t-18 9.5t3 21t18.5 20.5t26.5 9zM-31 -48q23 17 43.5 37.5t34.5 46.5q5 10 9 23.5t18 13.5q11 -1 15.5 -9.5t-0.5 -17.5q-8 -23 -28 -43.5t-37 -34.5q-9 -8 -19.5 -19t-21.5 -16q-5 -4 -9.5 -3t-7 4.5t-2.5 8.5t5 9z"/>
<glyph glyph-name="dollar" unicode="$" horiz-adv-x="473" d="M121 -157q4 5 8 11.5t8 14.5q-23 8 -40 25t-25 40q-3 8 -4 17.5t-1 18.5q0 26 10.5 52.5t25.5 49.5q21 27 51.5 49t67.5 21q14 -2 26.5 -5t23.5 -11l28 53q-10 23 -16 46t-4 49q1 20 10.5 40t24.5 33.5t34.5 18.5t41.5 -4q2 4 4 9.5t5 17.5q5 11 13.5 15.5t15.5 2.5 t10 -9.5t-3 -19.5l-17 -34q14 -14 20 -32.5t6 -39.5q0 -9 -1 -19t-4 -18v1q-5 -19 -15 -35.5t-24 -36.5q-5 -7 -10.5 -11t-14.5 -2h1q-12 3 -13.5 14.5t7.5 18.5q11 10 21.5 23.5t17 28.5t8 31.5t-5.5 31.5q-2 4 -4.5 6.5l-6.5 6.5q-9 -21 -28.5 -57t-42.5 -81l8 -16 q15 -28 26.5 -56.5t7.5 -63.5t-23.5 -67.5t-48.5 -57t-65 -38.5t-72 -12q-5 -7 -7 -11t-4 -9q-2 -4 -7.5 -6t-11.5 -2t-10 2t-2 6zM251 103q-17 9 -33 9q-23 0 -45 -13.5t-37 -30.5q-17 -18 -27.5 -41.5t-10.5 -49.5q0 -19 9 -37q8 -17 21 -26t27 -11q22 38 49 89t54 105z M300 40q-5 -9 -12.5 -12t-13.5 -1t-8.5 8.5t2.5 17.5q2 4 2 9l-35 -66l-51 -96q7 2 15.5 4t17.5 5q27 7 50 22t40 35t26.5 44t9.5 50q0 17 -4 34t-11 32l-9 16l-3 4l-22 -40q9 -14 11.5 -31t-5.5 -35zM367 330q-14 2 -23.5 -5t-18.5 -18t-13 -24t-4 -26q0 -23 9 -47l25.5 51 t17.5 37q4 9 7.5 16t6.5 15q-2 0 -3.5 0.5t-3.5 0.5z"/>
<glyph glyph-name="numbersign" unicode="#" horiz-adv-x="313" d="M64 35h-33q-5 0 -10.5 1t-8.5 6q-4 6 0 12t12 5q14 -2 27 -2.5t27 0.5q9 15 17 31t16 33h-31q-5 0 -10.5 1t-8.5 6q-4 7 0.5 12.5t11.5 4.5q12 -2 24 -2h24q0 2 1 3q8 16 15.5 38t18.5 36q10 10 24 4.5t13 -19.5t-11.5 -30.5t-19.5 -30.5q14 2 26.5 3.5t26.5 3.5h3 q8 16 14.5 36t17.5 33q10 10 24 4.5t13 -19.5q-1 -10 -6.5 -21.5t-13.5 -22.5q5 1 9.5 1h9.5q12 -2 14.5 -14.5t-8.5 -19.5q-10 -5 -23.5 -5.5t-27.5 -0.5q-8 -11 -14.5 -23.5t-14.5 -24.5q7 2 13 2h11q13 -2 15.5 -15t-9.5 -19q-10 -7 -25.5 -7t-29.5 1l-12 -18t-13 -18 q-4 -6 -8 -11.5t-11 -4.5q-8 2 -10.5 9.5t3.5 12.5l21 29q-14 -1 -27.5 -1h-27.5h-10l-24 -34q-3 -6 -7 -11.5t-12 -4.5q-8 2 -10 9.5t3 12.5zM166 65q7 0 11 1q16 25 28 55q-14 -1 -27 -1h-27h-5q-8 -14 -16 -27.5t-17 -26.5q-2 -2 -2.5 -4t-2.5 -4q14 1 29 3t29 4z"/>
<glyph glyph-name="quotedbl" unicode=""" horiz-adv-x="167" d="M97 193q23 17 43.5 37.5t34.5 46.5q5 10 9.5 23.5t18.5 13.5q10 -1 14.5 -9.5t-0.5 -17.5q-8 -23 -28 -43.5t-37 -34.5q-9 -8 -19 -19t-21 -16q-5 -4 -9.5 -3t-7.5 5t-3 9t5 8zM157 193q23 17 43.5 37.5t34.5 46.5q5 10 9.5 23.5t18.5 13.5q10 -1 14.5 -9.5t-0.5 -17.5 q-8 -23 -28 -43.5t-37 -34.5q-9 -8 -19 -19t-21 -16q-5 -4 -9.5 -3t-7.5 5t-3 9t5 8z"/>
<glyph glyph-name="backslash" unicode="\" horiz-adv-x="223" d="M202 -109q-35 74 -73.5 144.5t-80.5 139.5l-38 67q-5 6 -12 15t-13.5 18.5t-11 19t-3.5 16.5q1 14 13.5 16.5t20.5 -9.5l42 -78q33 -62 65.5 -122.5t64.5 -123.5l35 -68l11 -23q3 -6 1 -10t-5.5 -6.5t-8 -1.5t-7.5 6z"/>
<glyph glyph-name="Euro" unicode="€" horiz-adv-x="430" d="M47 104q2 0 4 -0.5t4 -0.5l5 10q19 38 43 75t49 69q26 28 55 55t67 38q17 5 37 3.5t37 -12.5q14 -13 17.5 -33t0.5 -37q-8 -41 -26 -79.5t-39 -72.5v1q-11 -20 -22 -37t-22 -31q-9 -5 -17.5 -3.5t-13.5 6.5t-5 12.5t8 14.5q14 10 26.5 25.5t23 33.5t19.5 37t16 36 q8 18 13 38t3 40q-2 17 -13.5 21.5t-28.5 2.5q-18 -5 -36 -15.5t-35 -25t-32 -30t-27 -29.5q-20 -24 -38 -53.5t-32 -59.5q24 1 44.5 3.5t41.5 6.5q8 2 17.5 3.5t17.5 -0.5q14 -2 15.5 -15t-9.5 -19q-8 -5 -17 -5.5t-19 -0.5h-16q-13 -2 -28 -2.5t-29 -0.5h-33q0 -2 -1.5 -5 t-6.5 -18q15 0 31.5 2t33.5 4l20 4q9 2 18.5 4.5t17.5 0.5q6 -2 10 -6.5t5 -10.5t-1 -11t-8 -8q-8 -5 -17.5 -5.5t-19.5 -0.5h-16q-13 -1 -29 -2t-28 -1h-26q-1 -7 -1.5 -14.5t-0.5 -13.5q0 -17 6.5 -31.5t23.5 -19.5q18 -5 32 -5q30 0 64.5 9.5t69.5 26.5l76 39l40 19 q12 5 23 13.5t25 8.5q11 -2 12 -13t-7 -16t-14 -7t-21 -8l-84 -43q-35 -19 -73.5 -37t-75.5 -24q-9 -2 -18 -3.5t-20 -1.5q-30 0 -56.5 13t-34.5 48q-3 15 -2 30t5 32q-9 0 -13 5t-4 10.5t4 10t11 4.5q3 -2 11 -2l8 24q-7 3 -10 9q-5 6 1 13.5t14 7.5z"/>
<glyph glyph-name="Lslash" unicode="Ł" horiz-adv-x="644" d="M568 523q-35 -28 -63.5 -62t-53 -71.5t-46.5 -77t-44 -76.5l-59 -99l36 15q15 6 32.5 16t33.5 12q13 2 19 -9.5t-4 -20.5q-10 -10 -29.5 -14t-31.5 -9l-74 -21q-1 0 -1 -1q-2 -2 -3.5 -5t-3.5 -5q-20 -32 -43 -68t-54 -62l13 -7q45 -21 93 -18t95.5 18.5t93 38.5t84.5 43 l86 46q6 3 10.5 1t6.5 -5.5t1 -8t-6 -7.5q-12 -8 -25 -14l-26 -12q-23 -13 -46 -25.5t-47 -24.5q-38 -20 -75.5 -39.5t-78.5 -32.5q-26 -8 -51.5 -11t-50.5 1q-29 5 -52.5 17t-46.5 26l-20 -10q-25 -8 -51.5 -12t-50.5 7q-11 4 -18.5 12.5t-11 18.5t-1.5 20.5t12 19.5 q14 13 30 15t32.5 -2.5t33.5 -13.5t33 -19q34 19 59 48.5t46 61.5q-8 -2 -17 -4t-17 -4q-5 -1 -11 -2t-9 4q-6 5 -3.5 11.5t10.5 7.5q17 3 33.5 7t33.5 9q34 53 63.5 107.5t61.5 109.5q23 40 47.5 78.5t53.5 74.5q10 14 23.5 32t30.5 25q7 3 12.5 0.5t8.5 -7.5t3 -12t-6 -11 zM58 -11q-3 0 -7.5 -1t-8 -3t-5 -4.5t2.5 -6.5q9 -11 24 -10.5t26 2.5q6 2 12.5 3.5t12.5 4.5q-14 6 -28.5 10.5t-28.5 4.5z"/>
<glyph glyph-name="lslash" unicode="ł" horiz-adv-x="294" d="M0 86q31 14 60 31t58 37q14 28 31 54t33 51q8 11 15.5 21.5t15.5 21.5l-69 -16q-8 -2 -14.5 -4t-11.5 0q-8 5 -4.5 9.5t11.5 6.5q28 5 54 12.5t51 15.5l21 26q15 20 32.5 40.5t40.5 33.5q11 6 27 8.5t22 -14.5q4 -12 -1 -24.5t-13 -23.5l11 2q16 4 24 -3t-3 -15 q-10 -7 -26.5 -11t-32.5 -8q-39 -57 -88 -105t-105 -89q-5 -12 -11.5 -25.5t-11.5 -28.5t-7 -29.5t1 -27.5q11 2 20 3q8 1 15 1.5t9 1.5q30 6 59 16t57 22q8 2 19 8t19 1q11 -8 3 -14.5t-15 -9.5l-116 -43q-17 -6 -33 -12.5t-33 -7.5q-15 -2 -24 4.5t-12.5 17t-2.5 23 t4 23.5q7 24 18 48q-41 -27 -86 -49q-10 -2 -16.5 6.5t5.5 14.5zM203 223q47 44 86 95l6 7q-11 -3 -22.5 -6.5t-23.5 -6.5q-21 -27 -43 -58q-11 -16 -21 -31.5t-19 -31.5q9 7 18.5 15.5t18.5 16.5zM318 358l5 8q2 5 6 12.5t7 15.5q-14 -7 -26.5 -19t-20.5 -20l-15 -15l16 6z "/>
<glyph glyph-name="Zcaron" unicode="Ž" horiz-adv-x="744" d="M188 362q22 22 39.5 44.5t32 44.5t28 42.5t28.5 39.5q4 5 8.5 10t9.5 7t9.5 -0.5t8.5 -11.5q1 -4 -2 -12t-7.5 -17.5t-9 -18t-5.5 -14.5q-4 -25 7.5 -39t31 -20.5t42 -7.5t39.5 1q48 5 93 22t89 40l40 22q9 6 18.5 13.5t18.5 9.5q7 2 13 -1.5t8 -11.5q3 -8 0 -13t-8 -7 q-81 -88 -167.5 -168.5t-180.5 -153.5q-30 -23 -59.5 -45t-60.5 -43q19 2 39 -0.5t37 -12.5q12 -7 21.5 -16.5t18.5 -19.5t18 -19.5t20 -16.5q16 -10 36.5 -12t41.5 1t41.5 9t37.5 12q25 10 50 21.5t49 23.5q6 3 21.5 12.5t32 18t31 12.5t17.5 -3q4 -7 -4 -14.5t-20.5 -14 t-25.5 -11.5t-17 -7q-27 -14 -54 -27t-55 -26q-19 -8 -39.5 -18t-41.5 -16.5t-43 -8t-43 6.5q-24 11 -40 29t-33 37q-37 44 -95 38q-14 -2 -28.5 -5.5t-28.5 -8.5q-35 -20 -60.5 -34.5t-51.5 -27.5q-7 -3 -17 -9t-21 -11.5t-21.5 -8t-17.5 2.5q-4 2 -6 7.5t-1 8.5 q2 11 11.5 16.5t20.5 10.5q33 15 66 31t70 30q50 28 96.5 60t91.5 67q158 120 287 267q-29 -14 -58 -25.5t-58 -21.5q-20 -7 -43.5 -14.5t-48 -11t-48 -1.5t-44.5 14q-23 12 -32 34t-7 45q-15 -17 -27.5 -35t-25.5 -35l-19 -31q-5 -8 -9.5 -18.5t-12.5 -13.5q-7 -4 -13 -2 t-9.5 7t-4 11.5t4.5 11.5zM656 592q-18 -5 -36 -13.5t-35 -17.5l-41 -23q-6 -5 -14 -11.5t-16 -8.5q-10 -3 -15 4.5t-7.5 19t-3.5 23t-1 16.5q-2 7 -4 15t-1 15q-2 7 1.5 10t8 2t9 -4.5t6.5 -8.5q4 -13 7.5 -26t8.5 -26q24 8 47 20.5t44 26.5q9 5 20 14.5t22 7.5 q13 -4 13.5 -17.5t-13.5 -17.5z"/>
<glyph glyph-name="zcaron" unicode="ž" horiz-adv-x="439" d="M-2 85q20 10 41.5 22.5t44 23.5t45 19t45.5 10q8 0 14 -2t10 -9q1 -4 0 -8t-2.5 -7t-2.5 -5.5t1 -3.5q7 -4 14.5 -4t13.5 1q32 4 62 19.5t56 34.5q10 4 16 1t7.5 -9.5t-1.5 -14.5t-10 -13q-16 -10 -32.5 -18.5t-32.5 -17.5q-37 -20 -75 -39t-75 -42q21 3 42 3 q16 0 32.5 -1.5t33.5 -6.5l15 -6t14 -4q6 -2 13.5 0t13.5 4q47 15 88 40q4 2 14.5 10.5t22.5 16t22 11.5t15 -2q4 -5 1.5 -10t-7.5 -9.5t-11 -8t-9 -5.5q-27 -17 -54 -34.5t-55 -31.5q-18 -10 -31 -13t-25 -1.5t-24.5 7t-29.5 12.5q-20 8 -41 9t-41 -4q-11 -3 -21 -6.5 t-19 -6.5q-11 -5 -22 -13t-22 -10q-11 -3 -16.5 6.5t-3.5 18.5q6 12 20 19t25 12q36 19 72 38.5t71 39.5q-18 0 -35 6t-22 22q-23 -1 -49 -11.5t-46 -18.5q-15 -8 -29.5 -15t-28.5 -15q-6 -3 -10.5 -1.5t-7 5.5t-1.5 8.5t7 7.5zM451 390q-18 -5 -36 -13.5t-35 -17.5l-41 -23 q-6 -5 -14 -11.5t-16 -8.5q-10 -3 -15 4.5t-7.5 19t-3.5 23t-1 16.5q-2 7 -4 15t-1 15q-2 7 1.5 10t8 2t9 -4.5t6.5 -8.5q4 -13 7.5 -26t8.5 -26q24 8 47 20.5t44 26.5q9 5 20 14.5t22 7.5q13 -4 13.5 -17.5t-13.5 -17.5z"/>
<glyph glyph-name="fi" unicode="ﬁ" horiz-adv-x="580" d="M376 134q4 2 18.5 8t28.5 9t24 0.5t7 -18.5q-2 -9 -8.5 -18t-9.5 -18q-6 -13 -11.5 -32t3.5 -31q17 -2 37.5 4t37.5 12q5 2 19 10t29.5 15.5t28.5 11t16 -2.5q4 -7 -5 -15t-22.5 -14.5t-27.5 -12t-18 -7.5q-22 -11 -44.5 -21.5t-46.5 -14.5q-21 -3 -29 9t-8 31t5.5 41 t11.5 40q-47 -17 -86 -37.5t-81 -39.5q-21 -8 -46 -15.5t-48 -1.5q-19 7 -31 27q-20 -39 -41.5 -76.5t-44.5 -74.5q-3 -5 -11.5 -18t-18 -24t-19.5 -15t-17 9q-4 7 -4 17t2 20.5t5 20.5t5 17q7 21 22 47t35.5 51t44 46.5t47.5 33.5l9.5 19t9.5 18l-42 -29q-18 -11 -36.5 -22 t-37.5 -21l-14 -7t-14 0q-5 4 -4.5 11t6.5 10q44 20 85 46t79 55q19 36 37.5 73t40.5 72q8 15 18.5 32.5t24 33t29.5 26t36 10.5q21 0 25.5 -11t0 -25.5t-13.5 -29t-15 -21.5q-25 -37 -55 -70t-64 -62q-11 -11 -23 -21t-23 -20l-40 -76q-1 -29 11.5 -40t35.5 -8q14 3 27 7.5 t26 9.5q3 1 7.5 4t18 10t38.5 19.5t68 33.5zM493 336q5 13 15.5 22.5t23.5 15.5t27.5 9.5t27.5 5.5q36 2 71 -3q6 0 13.5 -2t6.5 -11q-1 -5 -5 -8.5t-9 -2.5q-29 6 -60.5 4.5t-56.5 -18.5q-10 -6 -14 -16t-12 -16q-10 -8 -21 0t-7 20zM290 308q23 26 38 51q5 7 10 17.5 t6 20.5q-11 -4 -20.5 -12.5t-17.5 -16.5q-19 -20 -34.5 -42t-29.5 -45q-8 -14 -15.5 -27.5t-15.5 -27.5q21 19 41 39t38 43zM-4 -97q29 32 53.5 70t46.5 77q-37 -26 -66.5 -65.5t-33.5 -81.5z"/>
<glyph glyph-name="fl" unicode="ﬂ" horiz-adv-x="570" d="M394 154q14 28 31 54t33 51q17 23 34 46.5t35 46.5q15 20 32.5 40.5t40.5 33.5q11 6 27 8.5t22 -14.5q4 -11 0.5 -21.5t-10.5 -21t-15 -20t-13 -16.5q-40 -57 -89.5 -106.5t-106.5 -91.5q-5 -12 -11.5 -25.5t-11.5 -28.5t-7 -29.5t1 -27.5q11 2 20 3q8 1 15 1.5t9 1.5 q30 6 59 16t57 22q8 2 19 8t19 1q11 -8 3 -14.5t-15 -9.5l-116 -43q-17 -6 -33 -12.5t-33 -7.5q-15 -2 -24 4.5t-12.5 17t-2.5 23t4 23.5q7 24 18 48q-10 -7 -21 -14t-25.5 -15t-34 -18.5t-47.5 -23.5q-21 -8 -46 -15.5t-48 -1.5q-19 7 -31 27q-20 -39 -41.5 -76.5 t-44.5 -74.5q-3 -5 -11.5 -18t-18 -24t-19.5 -15t-17 9q-4 7 -4 17t2 20.5t5 20.5t5 17q7 21 22 47t35.5 51t44 46.5t47.5 33.5l9.5 19t9.5 18l-42 -29q-18 -11 -36.5 -22t-37.5 -21l-14 -7t-14 0q-5 4 -4.5 11t6.5 10q44 20 85 46t79 55q19 36 37.5 73t40.5 72 q8 15 18.5 32.5t24 33t29.5 26t36 10.5q21 0 25.5 -11t0 -25.5t-13.5 -29t-15 -21.5q-25 -37 -55 -70t-64 -62q-11 -11 -23 -21t-23 -20l-40 -76q-1 -29 11.5 -40t35.5 -8q14 3 27 7.5t26 9.5q18 8 38.5 19t41 23t38.5 23.5t32 21.5zM479 223q47 44 86 95q18 21 34 48 q2 5 6 12.5t7 15.5q-14 -7 -26.5 -19t-20.5 -20q-23 -23 -43 -48.5t-40 -52.5q-11 -16 -21 -31.5t-19 -31.5q9 7 18.5 15.5t18.5 16.5zM290 308q23 26 38 51q5 7 10 17.5t6 20.5q-11 -4 -20.5 -12.5t-17.5 -16.5q-19 -20 -34.5 -42t-29.5 -45q-8 -14 -15.5 -27.5 t-15.5 -27.5q21 19 41 39t38 43zM-4 -97q29 32 53.5 70t46.5 77q-37 -26 -66.5 -65.5t-33.5 -81.5z"/>
<glyph glyph-name="underscore" unicode="_" horiz-adv-x="272" d="M-18 -11q35 -4 71 -1.5t71 7.5q15 2 34.5 7.5t35.5 3.5q13 -2 15.5 -14.5t-9.5 -19.5q-11 -7 -31 -6t-33 0q-20 -1 -38.5 -1.5t-37.5 -0.5q-17 0 -35 0.5t-36 0.5q-5 0 -10.5 1t-8.5 6q-4 7 0 12.5t12 4.5z"/>
<glyph glyph-name="quotesinglbase" unicode="‚" horiz-adv-x="154" d="M-31 -48q23 17 43.5 37.5t34.5 46.5q5 10 9 23.5t18 13.5q11 -1 15.5 -9.5t-0.5 -17.5q-8 -23 -28 -43.5t-37 -34.5q-9 -8 -19.5 -19t-21.5 -16q-5 -4 -9.5 -3t-7 4.5t-2.5 8.5t5 9z"/>
<glyph glyph-name="quotedblbase" unicode="„" horiz-adv-x="221" d="M-31 -48q23 17 43.5 37.5t34.5 46.5q5 10 9 23.5t18 13.5q11 -1 15.5 -9.5t-0.5 -17.5q-8 -23 -28 -43.5t-37 -34.5q-9 -8 -19.5 -19t-21.5 -16q-5 -4 -9.5 -3t-7 4.5t-2.5 8.5t5 9zM41 -48q23 17 43.5 37.5t34.5 46.5q5 10 9 23.5t18 13.5q11 -1 15.5 -9.5t-0.5 -17.5 q-8 -23 -28 -43.5t-37 -34.5q-9 -8 -19.5 -19t-21.5 -16q-5 -4 -9.5 -3t-7 4.5t-2.5 8.5t5 9z"/>
<glyph glyph-name="quotedblright" unicode="”" horiz-adv-x="167" d="M97 193q23 17 43.5 37.5t34.5 46.5q5 10 9.5 23.5t18.5 13.5q10 -1 14.5 -9.5t-0.5 -17.5q-8 -23 -28 -43.5t-37 -34.5q-9 -8 -19 -19t-21 -16q-5 -4 -9.5 -3t-7.5 5t-3 9t5 8zM157 193q23 17 43.5 37.5t34.5 46.5q5 10 9.5 23.5t18.5 13.5q10 -1 14.5 -9.5t-0.5 -17.5 q-8 -23 -28 -43.5t-37 -34.5q-9 -8 -19 -19t-21 -16q-5 -4 -9.5 -3t-7.5 5t-3 9t5 8z"/>
<glyph glyph-name="quotedblleft" unicode="“" horiz-adv-x="167" d="M271 284q-23 -16 -43.5 -37t-34.5 -47q-5 -10 -9 -23.5t-18 -13.5q-11 1 -15.5 10t0.5 18q8 23 28 43.5t37 34.5q9 8 19.5 19t21.5 16q4 4 9 2.5t7.5 -5t2.5 -8.5t-5 -9zM211 284q-23 -16 -43.5 -37t-34.5 -47q-5 -10 -9 -23.5t-18 -13.5q-11 1 -15.5 10t0.5 18 q8 23 28 43.5t37 34.5q9 8 19.5 19t21.5 16q4 4 9 2.5t7.5 -5t2.5 -8.5t-5 -9z"/>
<glyph glyph-name="quoteleft" unicode="‘" horiz-adv-x="167" d="M242 284q-23 -16 -43.5 -37t-34.5 -47q-5 -10 -9 -23.5t-18 -13.5q-10 1 -15 10t0 18q8 23 28 43.5t37 34.5q9 8 19.5 19t21.5 16q4 4 9 2.5t8 -5t2.5 -8.5t-5.5 -9z"/>
<glyph glyph-name="quoteright" unicode="’" horiz-adv-x="167" d="M126 193q23 17 43.5 37.5t34.5 46.5q5 10 9.5 23.5t18.5 13.5q10 -1 14.5 -9.5t-0.5 -17.5q-8 -23 -28 -43.5t-37 -34.5q-9 -8 -19.5 -19t-21.5 -16q-5 -4 -9.5 -3t-7 5t-2.5 9t5 8z"/>
<glyph glyph-name="florin" unicode="ƒ" horiz-adv-x="276" d="M2 86q44 20 85 46t79 55q19 36 37.5 73t40.5 72q8 15 18.5 32.5t24 33t29.5 26t36 10.5q21 0 25.5 -11t0 -25.5t-13.5 -29t-15 -21.5q-25 -37 -55 -70t-64 -62q-11 -11 -23 -21t-23 -20l-40 -76q-1 -29 11.5 -40t35.5 -8q14 3 27 7.5t26 9.5q9 4 21 12.5t22 8.5 q9 0 11.5 -9.5t-6.5 -13.5l-47 -22q-21 -8 -46 -15.5t-48 -1.5q-19 7 -31 27q-20 -39 -41.5 -76.5t-44.5 -74.5q-3 -5 -11.5 -18t-18 -24t-19.5 -15t-17 9q-4 7 -4 17t2 20.5t5 20.5t5 17q7 21 22 47t35.5 51t44 46.5t47.5 33.5l9.5 19t9.5 18l-42 -29q-18 -11 -36.5 -22 t-37.5 -21l-14 -7t-14 0q-5 4 -4.5 11t6.5 10zM290 308q23 26 38 51q5 7 10 17.5t6 20.5q-11 -4 -20.5 -12.5t-17.5 -16.5q-19 -20 -34.5 -42t-29.5 -45q-8 -14 -15.5 -27.5t-15.5 -27.5q21 19 41 39t38 43zM-4 -97q29 32 53.5 70t46.5 77q-37 -26 -66.5 -65.5t-33.5 -81.5z "/>
<glyph glyph-name="ellipsis" unicode="…" horiz-adv-x="472" d="M78 62q15 0 18 -9.5t-3 -21t-18 -20.5t-27 -9q-15 1 -18 10.5t3 20.5t18.5 20t26.5 9zM235 62q15 0 18 -9.5t-3 -21t-18 -20.5t-27 -9q-15 1 -18 10.5t3 20.5t18.5 20t26.5 9zM392 62q15 0 18 -9.5t-3 -21t-18 -20.5t-27 -9q-15 1 -17.5 10.5t3.5 20.5t18 20t26 9z"/>
<glyph glyph-name="dagger" unicode="†" horiz-adv-x="294" d="M92 260q45 -4 91 0l35 76q5 12 10 22.5t10 21.5q3 8 7 18.5t12 15.5q9 5 14 3t7.5 -8t2 -13.5t-3.5 -13.5l-44 -88l-15 -31l16 3q15 2 34.5 7.5t36.5 3.5q13 -2 15 -14.5t-9 -18.5q-12 -8 -31.5 -6.5t-33.5 0.5l-42 -3q-28 -54 -55.5 -108t-56.5 -108 q-11 -19 -20.5 -37.5t-19.5 -37.5l-15 -27q-3 -5 -7.5 -6t-8.5 0.5t-6 6t1 10.5q43 75 81 152t74 155h-1q-17 0 -34.5 0.5t-35.5 0.5q-6 0 -11.5 1t-8.5 7t1 12t11 4z"/>
<glyph glyph-name="daggerdbl" unicode="‡" horiz-adv-x="294" d="M92 260q45 -4 91 0l35 76q5 12 10 22.5t10 21.5q3 8 7 18.5t12 15.5q9 5 14 3t7.5 -8t2 -13.5t-3.5 -13.5l-44 -88l-15 -31l16 3q15 2 34.5 7.5t36.5 3.5q13 -2 15 -14.5t-9 -18.5q-12 -8 -31.5 -6.5t-33.5 0.5l-42 -3l-84 -162l16 2t16 3q16 2 35.5 7.5t35.5 3.5 q13 -2 15.5 -14.5t-9.5 -19.5q-6 -3 -14 -4.5t-17 -1.5h-18h-16q-14 -1 -28.5 -1.5t-28.5 -0.5l-15 -28q-11 -19 -20.5 -37.5t-19.5 -37.5l-15 -27q-3 -5 -7.5 -6t-8.5 0.5t-6 6t1 10.5q17 29 33 59t31 60q-15 0 -30.5 0.5t-31.5 0.5q-5 0 -11 1t-8 6q-4 7 0 12.5t12 4.5 q38 -4 82 -1q20 41 39.5 81.5t38.5 82.5h-1q-17 0 -34.5 0.5t-35.5 0.5q-6 0 -11.5 1t-8.5 7t1 12t11 4z"/>
<glyph glyph-name="perthousand" unicode="‰" horiz-adv-x="412" d="M373 26q7 -14 4 -28t-12 -26q-14 -18 -34.5 -34.5t-43.5 -21.5q-20 -3 -36 4.5t-22 21.5q-11 -9 -23.5 -16t-25.5 -10q-16 -3 -30 2t-22 14.5t-8.5 23t10.5 27.5q18 23 45 42.5t57 23.5q6 1 14 1.5t13 -4.5q11 -9 6 -18v-2h1l3 -9q16 12 33.5 21t35.5 11q7 1 15 1.5 t13 -4.5q9 -8 6 -18v-2h1zM178 274q11 3 26 0.5t24 -10.5q2 -2 3.5 -3t2.5 -3l4 -4v-1q7 -10 6.5 -22.5t-4.5 -24.5t-11 -23t-14 -19q-8 -10 -20 -19.5t-25.5 -16.5t-28 -10t-27.5 1q-26 8 -28 30.5t12 40.5q13 16 29.5 31t35.5 26q-4 8 0 16.5t15 10.5zM-4 -62 q66 48 126 101t119 109l58 52q5 6 12 14.5t15 17t16 14.5t16 7q14 2 19 -10t-5 -21l-67 -58q-54 -46 -107 -90.5t-107 -89.5l-59 -49l-20 -15q-5 -4 -9.5 -3t-7.5 4.5t-3.5 8t4.5 8.5zM214 228q-14 6 -33.5 -3t-36 -23.5t-24 -29t3.5 -18.5q9 -3 20 -1.5t22 6.5t20.5 12 t15.5 15q5 8 10.5 18.5t5.5 21.5zM150 -36q-2 -6 2.5 -9t11 -4t13.5 -0.5t10 1.5q13 4 24.5 11.5t21.5 16.5q7 8 10.5 18.5t-7.5 17.5q-11 3 -25 -1t-27 -11.5t-22.5 -18.5t-11.5 -21zM257 -36q-2 -6 2 -9t10.5 -4t13.5 -0.5t11 1.5q13 4 24 11.5t22 16.5q7 8 10 18.5 t-7 17.5q-11 3 -25 -1t-27 -11.5t-22.5 -18.5t-11.5 -21z"/>
<glyph glyph-name="guilsinglleft" unicode="‹" horiz-adv-x="288" d="M266 200q-42 -25 -85.5 -44t-85.5 -42q6 -15 14 -30t19 -26q17 -17 35 -21q9 -2 13.5 -10t-0.5 -16t-12.5 -9t-16.5 1.5t-17 7.5t-12 8q-20 16 -32.5 37.5t-23.5 44.5q-6 15 -6 25.5t20 15.5q24 5 47.5 14t46.5 20q20 11 39 23t36 29q7 7 14.5 5.5t12 -7t4 -13.5 t-9.5 -13z"/>
<glyph glyph-name="guilsinglright" unicode="›" horiz-adv-x="304" d="M155 223q6 -2 28 -11.5t44 -22t35 -27t0 -26.5q-39 -38 -81 -65.5t-90 -54.5q-5 -3 -14.5 -10.5t-19.5 -12t-18.5 -4.5t-12.5 12q-3 10 4 17t17.5 12t21.5 8.5t17 5.5q41 18 78 41.5t63 60.5q-14 16 -36 25t-39 15q-9 4 -16.5 9t-3.5 16q2 8 8.5 11t14.5 1z"/>
<glyph glyph-name="guillemotleft" unicode="«" horiz-adv-x="395" d="M266 200q-42 -25 -85.5 -44t-85.5 -42q6 -15 14 -30t19 -26q17 -17 35 -21q9 -2 13.5 -10t-0.5 -16t-12.5 -9t-16.5 1.5t-17 7.5t-12 8q-20 16 -32.5 37.5t-23.5 44.5q-6 15 -6 25.5t20 15.5q24 5 47.5 14t46.5 20q20 11 39 23t36 29q7 7 14.5 5.5t12 -7t4 -13.5 t-9.5 -13zM374 200q-42 -25 -85.5 -44t-85.5 -42q6 -15 14 -30t19 -26q17 -17 35 -21q9 -2 13.5 -10t-0.5 -16t-12.5 -9t-16.5 1.5t-17 7.5t-12 8q-20 16 -32.5 37.5t-23.5 44.5q-6 15 -6 25.5t20 15.5q24 5 47.5 14t46.5 20q20 11 39 23t36 29q7 7 14.5 5.5t12 -7t4 -13.5 t-9.5 -13z"/>
<glyph glyph-name="guillemotright" unicode="»" horiz-adv-x="403" d="M155 223q6 -2 28 -11.5t44 -22t35 -27t0 -26.5q-39 -38 -81 -65.5t-90 -54.5q-5 -3 -14.5 -10.5t-19.5 -12t-18.5 -4.5t-12.5 12q-3 10 4 17t17.5 12t21.5 8.5t17 5.5q41 18 78 41.5t63 60.5q-14 16 -36 25t-39 15q-9 4 -16.5 9t-3.5 16q2 8 8.5 11t14.5 1zM263 223 q6 -2 28 -11.5t44 -22t35 -27t0 -26.5q-39 -38 -81 -65.5t-90 -54.5q-5 -3 -14.5 -10.5t-19.5 -12t-18.5 -4.5t-12.5 12q-3 10 4 17t17.5 12t21.5 8.5t17 5.5q41 18 78 41.5t63 60.5q-14 16 -36 25t-39 15q-9 4 -16.5 9t-3.5 16q2 8 8.5 11t14.5 1z"/>
<glyph glyph-name="Scaron" unicode="Š" horiz-adv-x="487" d="M444 275q18 16 35 37t27 44.5t11 49t-11 49.5q-10 20 -28 35t-41 18q-23 2 -40 -10t-31 -29q-18 -22 -23.5 -47.5t-2.5 -52t12 -52.5t20 -49q12 -24 24 -47t21 -46.5t13.5 -49t1.5 -53.5q-5 -51 -33 -97.5t-69.5 -81.5t-92.5 -54t-103 -15q-43 3 -76 28.5t-47 67.5 q-8 25 -8 50.5t6.5 50t18 48t26.5 44.5q14 20 32.5 38t40.5 32t46 22t50 7q27 -1 51 -12.5t39 -30.5t19.5 -44t-6.5 -52q-5 -7 -12 -9t-13 0.5t-9 8t2 13.5q12 24 4.5 49t-30.5 38q-24 13 -49 13t-48.5 -9t-44.5 -24.5t-37 -33.5q-17 -20 -30.5 -44t-20.5 -50t-5.5 -52.5 t13.5 -50.5q12 -25 31 -39.5t42 -20t48.5 -3.5t49.5 10q53 16 96 50t68 79t27.5 98t-25.5 106q-13 25 -26.5 50.5t-23.5 51.5t-15 54t-2 58q2 26 13.5 51.5t30.5 44.5t43.5 27.5t53.5 -0.5q28 -8 46.5 -27.5t27.5 -44t9 -52.5t-7 -53q-8 -27 -22 -51t-31 -47 q-5 -8 -12.5 -16t-18.5 -3q-10 2 -11.5 12.5t6.5 17.5zM638 630q-18 -5 -36 -13.5t-35 -17.5l-41 -23q-6 -5 -14 -11.5t-16 -8.5q-10 -3 -15 4.5t-7.5 19t-3.5 23t-1 16.5q-2 7 -4 15t-1 15q-2 7 1.5 10t8 2t9 -4.5t6.5 -8.5q4 -13 7.5 -26t8.5 -26q24 8 47 20.5t44 26.5 q9 5 20 14.5t22 7.5q13 -4 13.5 -17.5t-13.5 -17.5z"/>
<glyph glyph-name="OE" unicode="Œ" horiz-adv-x="755" d="M533 268q51 11 101 38t81 72q5 7 10.5 18t9 22.5t2.5 23t-8 20.5q-8 10 -20 13t-25.5 2.5t-27 -3.5t-23.5 -6q-53 -15 -99 -45t-83 -71q-5 -6 -16.5 -20.5t-24 -33t-23 -39t-14.5 -38t1 -30t24 -15.5q22 -3 40 5t38 10q8 2 15.5 -4t5.5 -15q-2 -12 -17 -19t-24 -13 q-21 -13 -43 -28.5t-42.5 -33.5t-37.5 -39.5t-26 -45.5q-10 -26 3 -37.5t34.5 -15t46 -1t37.5 5.5q55 11 106.5 33.5t101.5 47.5l96 48q7 3 16 9t17 6q9 -1 10.5 -5t-0.5 -8.5t-6.5 -8.5t-7.5 -6q-17 -7 -34 -15t-34 -17q-61 -31 -123.5 -63.5t-129.5 -50.5 q-29 -9 -62 -11.5t-63 8.5q-49 19 -44 65q-34 -25 -71.5 -41t-79.5 -19q-23 -2 -47.5 2.5t-41.5 22.5q-19 20 -22 47t1 53q9 54 34.5 104.5t55.5 95.5q29 48 64 90.5t75 81.5q37 35 81.5 67t95.5 41q16 3 38.5 3t35.5 -11q6 -5 6.5 -11.5t-2.5 -11.5t-9 -7.5t-13 0.5 q-21 9 -43.5 7t-44.5 -10q41 2 72 -10t48 -38q55 41 121 66q16 6 35.5 9.5t39 2.5t36 -9t26.5 -26q10 -17 9 -34.5t-8 -35t-18 -33t-23 -27.5q-26 -29 -57.5 -50t-65.5 -38q-13 -6 -30 -15t-32 -10q-8 -1 -12.5 3.5t-5.5 11t2.5 12.5t11.5 8zM139 -44q51 10 95.5 38t81.5 62 q10 11 20 20.5t20 19.5l55 47q-16 1 -29.5 6t-24.5 18q-12 15 -12.5 33t5 36.5t15 35.5t18.5 30q40 65 101 115q-2 4 -5 7l-7 7q-18 17 -45 17.5t-50 -3.5q-9 -2 -16 5t-6 18q-20 -11 -39.5 -25t-33.5 -25q-44 -36 -80.5 -78.5t-68.5 -89.5q-31 -45 -55.5 -95.5 t-34.5 -104.5q-2 -10 -3 -22.5t0.5 -24.5t6 -22.5t14.5 -17.5q17 -12 38.5 -11.5t39.5 4.5z"/>
<glyph glyph-name="bullet" unicode="•" horiz-adv-x="257" d="M161 140q25 0 30 -16.5t-4.5 -36t-30.5 -35.5t-47 -15q-26 0 -30.5 16.5t5.5 35.5t31 35t46 16z"/>
<glyph glyph-name="periodcentered" unicode="·" horiz-adv-x="157" d="M97 118q15 0 18 -9.5t-3 -21t-18 -21t-27 -8.5q-15 0 -18 9.5t3 21t18.5 20.5t26.5 9z"/>
<glyph glyph-name="endash" unicode="–" horiz-adv-x="424" d="M60 98q18 -2 48.5 -2t64.5 1t64.5 2.5t48.5 4.5q15 2 34.5 7.5t35.5 3.5q13 -2 15.5 -14.5t-9.5 -18.5q-6 -4 -14 -5t-17 -1h-17.5h-15.5q-10 -1 -32.5 -1.5t-48 -1t-48 -0.5h-31.5q-17 0 -35 0.5t-36 0.5q-5 0 -10.5 1t-8.5 7q-4 6 0 12t12 4z"/>
<glyph glyph-name="emdash" unicode="—" horiz-adv-x="515" d="M60 98q12 -1 36 -1.5t54.5 -0.5t64.5 0.5t64.5 1.5t54.5 2.5t36 3.5q15 2 34.5 7.5t35.5 3.5q13 -2 15.5 -14.5t-9.5 -18.5q-6 -4 -14 -5t-17 -1h-17.5h-15.5q-6 -1 -25 -1t-44 -0.5t-53 -1t-53 -0.5h-44h-25q-17 0 -35 0.5t-36 0.5q-5 0 -10.5 1t-8.5 7q-4 6 0 12t12 4z "/>
<glyph glyph-name="trademark" unicode="™" horiz-adv-x="530" d="M215 206q13 15 31 35t41 40q-9 0 -17 3t-14 3q-32 0 -43.5 -1.5t-14.5 -1.5q-48 -48 -76 -88t-28 -76q0 -5 1 -6q8 -8 6 -17q-4 -9 -11 -9q-13 0 -16.5 12t-3.5 18q0 19 10 41.5t24 44t30 41t28 33.5q-15 -3 -26 -5.5t-20.5 -5t-20 -5t-24.5 -6.5q-18 -7 -28.5 -10.5 t-16 -5t-7 -2t-2.5 -0.5q-4 1 -8 3q-7 3 -7 12q0 5 10 10l30 7q32 8 63 16.5t63 14.5l19 4q13 11 30.5 25t36.5 14q9 -1 11.5 -3t2.5 -6q0 -6 -4 -8.5t-10 -4.5t-13 -4.5t-14 -9.5q5 2 10.5 2h10.5q8 0 17 -0.5t17 -2t13.5 -5t5.5 -10.5q22 17 45.5 28t49.5 11 q9 0 17.5 -4.5t8.5 -18.5q0 -16 -11.5 -33t-22.5 -33q34 29 57 45.5t46 16.5q5 0 9.5 -3t4.5 -11q0 -6 -4 -10.5t-9 -9.5l-19 -18q-11 -9 -22 -21t-20.5 -24.5t-16 -25.5t-6.5 -25q0 -7 9.5 -7t21 3t22.5 6.5t14 5.5q23 11 28.5 13t7.5 2q9 0 9 -11q0 -2 -1 -3.5t-6 -4.5 t-15.5 -7.5t-28.5 -12.5l-24 -9q-14 -7 -31 -7q-14 0 -22 8.5t-8 19.5q0 22 15.5 44t38.5 48l23 26h-1q-20 -9 -41.5 -23t-41.5 -31.5t-37 -38.5t-27 -43q-4 -8 -8.5 -10t-6.5 -2q-10 0 -14 10q0 5 2.5 10t5.5 8l44 58q5 8 16 21t21.5 27.5t18.5 28t8 22.5q-24 2 -46.5 -9 t-45 -29.5t-43.5 -40.5t-42 -43q-7 -7 -12.5 -20t-11.5 -25.5t-14 -21.5t-21 -9q-8 0 -8 9q0 11 11 26.5t21 28.5q3 10 1.5 16.5t-1.5 14.5q0 5 4.5 10.5t9.5 5.5q7 0 13 -14z"/>
<glyph glyph-name="scaron" unicode="š" horiz-adv-x="316" d="M-2 85q7 4 25.5 14.5t41 21.5t45.5 20.5t40 10.5q6 2 12.5 -0.5t9.5 -6.5q6 -10 1 -15.5t-13 -9.5t-17.5 -6.5t-12.5 -6.5q-5 -6 2.5 -11t18.5 -8t22 -5.5t14 -4.5q20 -11 23.5 -23.5t-4.5 -25.5l27 14l80 42q7 4 12.5 0.5t5.5 -11.5t-8.5 -11.5t-15.5 -6.5 q-24 -11 -48.5 -23.5t-48.5 -25.5q-29 -14 -55.5 -25t-54.5 -11q-20 0 -35.5 14t-15.5 32q-1 9 4 14.5t12 7t12.5 -2.5t6.5 -13q2 -20 17.5 -23.5t36.5 1.5q14 5 25.5 12.5t16.5 14.5q13 14 7 22t-20.5 13t-30.5 8.5t-22 8.5q-9 8 -10.5 16t0.5 16q-15 -6 -29.5 -12.5 t-26.5 -11.5q-9 -5 -21.5 -14.5t-22.5 -9.5q-5 -1 -8.5 1.5t-4 6t1 7.5t5.5 6zM361 390q-18 -5 -36 -13.5t-35 -17.5l-41 -23q-6 -5 -14 -11.5t-16 -8.5q-10 -3 -15 4.5t-7.5 19t-3.5 23t-1 16.5q-2 7 -4 15t-1 15q-2 7 1.5 10t8 2t9 -4.5t6.5 -8.5q4 -13 7.5 -26t8.5 -26 q24 8 47 20.5t44 26.5q9 5 20 14.5t22 7.5q13 -4 13.5 -17.5t-13.5 -17.5z"/>
<glyph glyph-name="oe" unicode="œ" horiz-adv-x="530" d="M104 131q20 8 41.5 14t41.5 12q13 7 29 11t29 -4q8 -6 6 -16q7 1 14 -4v-1q14 15 33.5 25.5t41.5 13.5q14 2 32.5 0t28.5 -15q7 -8 3.5 -17t-12 -17t-19 -14.5t-15.5 -9.5q-18 -11 -42 -19t-47 -8q4 -22 18.5 -33t33.5 -15t39.5 -2t37.5 5q25 5 48 12.5t45 17.5 q10 5 20 9.5t19 9.5q8 2 15 -2t2 -13q-5 -8 -14 -11t-16 -6l-50 -22q-46 -18 -91 -30q-20 -4 -40 -2.5t-37.5 8.5t-31 20t-20.5 34l-3 -4l-22 -23q-12 -11 -27 -22t-31.5 -18.5t-34.5 -9.5t-34 5q-20 9 -23.5 23.5t2.5 30.5t17 31t21 25l19 19q-23 -8 -45 -18t-44 -21 q-4 -2 -10 -5.5t-12 -6.5t-11.5 -4.5t-9.5 1.5q-7 4 -6 11t7 10zM138 96q-4 -4 -14.5 -15t-18.5 -23t-9.5 -22.5t12.5 -12.5q26 -4 49.5 2t42.5 23q8 8 19 19.5t14 22.5q-11 6 -11.5 19t7.5 24q-28 -2 -50.5 -12t-40.5 -25zM275 107q23 1 46.5 15.5t40.5 31.5q-14 5 -27.5 2 t-25.5 -10.5t-21 -18t-13 -20.5z"/>
<glyph glyph-name="Ydieresis" unicode="Ÿ" horiz-adv-x="641" d="M68 293q38 34 76.5 67t77.5 65q14 12 30 26.5t33 26.5t35.5 21t38.5 11q28 3 39 -16.5t6 -43.5q-6 -26 -21 -50t-31 -46q-2 -3 -14.5 -20t-28.5 -40.5t-32.5 -50.5t-28 -50t-15 -39t7.5 -17q15 -2 35 4.5t40.5 17t37.5 22t26 18.5q48 32 89.5 69.5t80.5 79.5l26 28 q14 24 29.5 48t30.5 49q8 11 17 24.5t19 26t21.5 21.5t24.5 12q12 3 17.5 -1.5t5 -12t-5 -16.5t-11.5 -16l-42 -48l-76 -87q-10 -16 -19.5 -30.5t-18.5 -29.5l-78 -123q-20 -30 -39 -64t-40 -67t-45 -63t-54 -52q32 7 62 17.5t59 23.5q54 23 105 47t103 51q5 3 9 1t6 -5.5 t1.5 -8t-5.5 -7.5l-44 -20l-110 -56q-53 -23 -104 -45t-107 -33q-57 -9 -112 1.5t-103 42.5q-6 4 -17.5 11t-22.5 15.5t-19 18t-8 18.5q0 16 8 16t21 -5q1 0 8.5 -5t15.5 -11t15.5 -11.5t10.5 -7.5q22 -15 46.5 -27.5t50.5 -19t52 -4.5t51 16q30 18 54 44.5t44.5 56.5 t38 61.5t35.5 59.5q17 27 34.5 53.5t33.5 52.5q-27 -28 -55.5 -54t-58.5 -50q-16 -13 -34 -26.5t-37.5 -25t-40 -20t-41.5 -10.5q-32 -3 -41.5 11.5t-7 35.5t12.5 43.5t18 36.5q23 42 50.5 80t50.5 79q4 7 10 18t11.5 23t8.5 23.5t0 20.5q-2 5 -11.5 3t-21 -7t-21.5 -10.5 t-12 -6.5q-41 -23 -78 -54t-70 -63l-32 -33q-8 -8 -16 -20t-17 -18q-7 -5 -13.5 -3t-10.5 7.5t-4.5 12t5.5 12.5zM595 508q-8 -11 -18.5 -26t-21.5 -21q-4 -5 -9 -4t-8 4.5t-3.5 8.5t4.5 9q13 10 22.5 24t17.5 29q3 5 6 12t6.5 14t8.5 11.5t12 4.5q11 -2 15.5 -11.5 t-2.5 -17.5zM538 532q-8 -17 -20 -33t-26 -29q-5 -3 -11 -8t-14 -2q-6 3 -7 6.5t1 7t5.5 6.5t6.5 5q8 5 13.5 13.5t9.5 16.5t4.5 18.5t6.5 18.5q5 7 12 8t12.5 -3t8 -11t-1.5 -14z"/>
<glyph glyph-name="exclamdown" unicode="¡" horiz-adv-x="115" d="M141 160q-23 -35 -46.5 -70.5t-50.5 -68.5q-13 -17 -27 -31.5t-29 -29.5q-5 -6 -11.5 -13t-14.5 -7q-9 0 -15 8.5t-2 17.5q3 6 9 10t12 9q9 7 17 15t17 16q16 14 29.5 30t27.5 32q14 17 25.5 34.5t23.5 35.5q4 6 10 18t15 12q8 0 11 -6.5t-1 -11.5zM192 260 q-15 0 -17.5 9.5t3 21t17.5 20.5t27 9q15 -1 18 -10.5t-3 -20.5t-18 -20t-27 -9z"/>
<glyph glyph-name="cent" unicode="¢" horiz-adv-x="356" d="M67 -60q11 20 21 38t19 36q-21 14 -30.5 36.5t3.5 51.5v1q-11 -6 -21.5 -13t-21.5 -12q-6 -4 -14.5 -10t-16.5 -4q-9 0 -10.5 9.5t6.5 12.5q26 11 49.5 25t48.5 26q9 4 17 8t17 6q9 4 20.5 7.5t24.5 5.5q5 13 9.5 25.5t9.5 24.5q3 7 7 17.5t12 15.5q9 6 14.5 3.5 t7.5 -8.5t2 -13.5t-3 -13.5q-8 -14 -13.5 -26t-11.5 -23h2q7 -2 11.5 -7.5t5 -11.5t-3 -11t-12.5 -6q-5 -2 -10 -1.5t-10 1.5q-11 -21 -18.5 -35.5t-13.5 -25t-10.5 -19t-9.5 -17.5q16 -5 35 -4.5t37.5 4t36 9t31.5 10.5q23 7 42 17t33 17q7 5 13.5 -1.5t1.5 -14.5 q-3 -8 -13.5 -12t-18.5 -6q-41 -20 -86 -37t-92 -17q-18 0 -36 5q-5 -9 -11 -20t-14 -27l-14 -27q-3 -5 -7.5 -6t-8.5 0.5t-6.5 6t0.5 10.5zM110 56q6 -8 13 -12q11 23 22 45t20 42q-17 -2 -32 -9q-20 -9 -29 -27.5t6 -38.5z"/>
<glyph glyph-name="sterling" unicode="£" horiz-adv-x="422" d="M144 92q8 -1 21 -1h21q35 64 66.5 114.5t69.5 101.5q1 2 6 9.5t12.5 16t16.5 15t17 6.5q12 0 12 -16q0 -13 -9 -20q-44 -38 -81 -95t-75 -129q14 0 28 4.5t29 4.5q22 0 22 -18q0 -13 -10 -15q-7 -3 -15 -3.5t-16 -0.5q-20 -1 -32.5 -1h-22.5l-19 -31q-11 -18 -26 -41 t-33 -40q4 -3 12 -5t16.5 -3.5t16 -2.5t10.5 -1q22 -1 44 4.5t43.5 14.5t42 19.5t39.5 19.5q10 5 22.5 12.5t24.5 14.5t21 11.5t14 4.5q4 0 7.5 -4.5t3.5 -9.5q0 -4 -3 -8t-6 -6q-17 -9 -27.5 -14.5t-17.5 -9t-11 -6t-8 -4.5q-29 -15 -53 -28.5t-46 -23.5t-43.5 -16 t-43.5 -6q-26 0 -46 9.5t-38 20.5q-15 -7 -26.5 -11t-26.5 -4q-19 0 -36.5 10.5t-17.5 31.5q0 15 13.5 24t25.5 9q16 0 31.5 -8t31.5 -17q11 7 22.5 18.5t21.5 25t18.5 26.5t14.5 24h-23q-22 0 -22 14q0 13 17 13zM35 -37q-7 0 -7 -3q3 -3 12 -3q6 0 14 2q-8 4 -19 4z"/>
<glyph glyph-name="currency" unicode="¤" horiz-adv-x="247" d="M91 34q-8 3 -15 8q-17 -12 -28 -23q-4 -4 -7.5 -9.5t-8 -9.5t-10 -6t-11.5 0q-10 4 -12 14t6 16q11 13 27 23t33 18q-2 14 3 29t14 29q-16 8 -30 18.5t-24 22.5q-7 8 -4.5 17.5t10.5 14.5q14 3 22 -8.5t15 -20.5q12 -14 27 -24q15 13 33.5 16t38.5 -11l2 -3q6 6 11.5 12 t10.5 12q7 9 13.5 21.5t20.5 9.5q10 -2 13 -12t-3 -18q-9 -14 -22.5 -25.5t-28.5 -20.5q5 -14 1 -28.5t-14 -28.5q14 -10 25 -21t19 -23q6 -8 2.5 -18t-11.5 -12q-14 -2 -21.5 10.5t-12.5 22.5q-8 13 -18 23q-15 -12 -32 -17t-34 2zM98 55q10 -3 23 4t22.5 18t12 22.5 t-6.5 18.5q-12 10 -25 3t-22 -20.5t-11.5 -27.5t7.5 -18z"/>
<glyph glyph-name="yen" unicode="¥" horiz-adv-x="498" d="M158 -1q23 -3 46 -1.5t46 4.5l12 17h-28h-35t-20.5 1t-10.5 3t-4 6q-2 2 -1 7t5 8q-15 2 -20 11t-5 22q0 16 7.5 35.5t13.5 31.5v-1q11 18 20.5 32t18.5 28q5 8 15 22.5t19.5 30.5t16 31t3.5 24q0 1 -5 -1t-12 -5t-13.5 -6.5t-9.5 -5.5q-25 -14 -50.5 -36.5t-50.5 -46.5 l-31 -34q-6 -11 -15 -16q-8 -4 -14.5 -2t-11 7.5t-5 12.5t4.5 13q29 23 56 46l54 46q25 25 49 42t50 19q25 3 33.5 -13t6.5 -36q-5 -19 -16 -36.5t-23 -34.5q-5 -7 -21.5 -29.5t-32 -47.5t-25.5 -44.5t-2 -20.5q10 -2 23.5 2.5t27 12t25 15t17.5 12.5q34 23 63 49t56 55 l18 19q13 21 22 35t14.5 23.5t9 15.5t7.5 11q10 13 22.5 27t29.5 19q10 2 15 -2t6 -10.5t-2.5 -14.5t-10.5 -15l-29 -34l-53 -62q-7 -10 -14 -21.5t-13 -20.5l-55 -86q-4 -5 -9 -13.5t-9.5 -16.5t-8.5 -14.5t-5 -7.5h10q13 -3 14.5 -14.5t-9.5 -19.5q-14 -6 -37 -6 q-2 -2 -3 -4.5t-3 -4.5h16q9 -2 13 -11t-1 -17q38 17 70.5 31.5t60.5 29.5q6 3 12 1.5t9.5 -5.5t3 -9t-6.5 -8l-36 -17l-85 -42l-22 -11q-28 -13 -59 -25.5t-62 -17.5q-9 -1 -19.5 -1h-18.5q-31 0 -61 7.5t-58 25.5l-8 5q-11 8 -26 19.5t-15 25.5q0 17 5 19t15 -1 q5 -2 14 -8t16 -12l16 -10q20 -14 43.5 -24.5t47.5 -10.5q10 0 22 3t22 8l20 14h-58q-5 0 -9.5 1t-9.5 9q-3 7 2 14t13 5zM294 71q22 35 29 48t11 18q-21 -19 -40 -34q-20 -16 -45.5 -33.5t-54.5 -23.5q20 -2 41.5 0t41.5 6l6 1zM246 -47l44 17h-28z"/>
<glyph glyph-name="section" unicode="§" horiz-adv-x="248" d="M79 80q-4 3 -8 9.5t-4 15t7.5 18.5t25.5 21q-4 4 -7 11.5t0 16.5t13.5 19t33.5 21q7 2 13 -0.5t9 -6.5q6 -10 1.5 -15.5t-13 -9.5t-17.5 -6.5t-13 -6.5q-5 -6 2.5 -11t18.5 -8t22.5 -5.5t14.5 -4.5q20 -11 23.5 -23.5t-4.5 -25.5q-11 -17 -25 -27q10 -15 0 -33 q-8 -13 -21 -23.5t-28 -18t-30.5 -12t-27.5 -4.5q-20 0 -35.5 14t-15.5 32q-1 9 4 14.5t12 7t12.5 -2.5t6.5 -13q2 -20 18 -23.5t36 1.5q14 5 25.5 12.5t16.5 14.5q13 14 7 22t-20.5 13t-30.5 8.5t-22 8.5zM156 75q11 9 14 13q10 10 8 17.5t-10 12t-20.5 8t-23.5 6.5 q-10 -5 -19.5 -11t-9.5 -14q0 -7 7.5 -11.5t17.5 -8t19.5 -5.5t12.5 -4z"/>
<glyph glyph-name="questiondown" unicode="¿" horiz-adv-x="314" d="M237 21q-6 -16 -19 -34.5t-29 -28.5q-14 -11 -32 -19t-38.5 -11.5t-40.5 -1.5t-37 13q-21 12 -29.5 30.5t-7 38.5t11.5 39t27 33q19 15 41 21.5t44.5 9.5t45.5 5.5t44 10.5q8 3 15.5 7.5t12.5 11.5q7 9 7.5 18.5t4.5 18.5q3 8 9 10.5t11.5 0t9.5 -8t3 -12.5 q-5 -24 -17.5 -39t-29 -24t-37 -12.5t-42.5 -5.5q-18 -2 -41.5 -6t-43.5 -13.5t-33 -25.5t-11 -42q2 -23 19 -34.5t39.5 -13.5t45 3.5t35.5 16.5q6 5 10 11.5t9 13.5q5 9 6 20.5t6 19.5q5 7 12 8t12.5 -3t8 -11t-1.5 -15zM329 257q-15 0 -18 9.5t3 21t18 20.5t27 9 q15 -1 17.5 -10.5t-3.5 -20.5t-18 -20t-26 -9z"/>
<glyph glyph-name="threequarters" unicode="¾" horiz-adv-x="608" d="M122 300q11 18 29 35t39.5 28t45 15.5t45.5 -1.5q20 -6 35 -23t16 -39q0 -14 -6 -26t-15.5 -22t-21.5 -17.5t-23 -13.5t-22.5 -10.5t-24.5 -9.5q13 -12 22 -27t11 -32q3 -24 -6.5 -44.5t-27 -35t-39.5 -22.5t-44 -8q-23 0 -45.5 9t-40.5 25t-28 37.5t-8 46.5q0 6 2.5 17 t7 21.5t11.5 18.5t16 8q16 0 17 -8.5t-4 -19.5t-12.5 -22t-8.5 -15q-8 -23 5 -44t33 -32q23 -11 49.5 -8.5t49.5 11.5q23 8 39 26.5t9 44.5q-5 15 -15 26.5t-24 17.5q-5 -1 -9.5 -1.5t-9.5 -0.5q-12 -1 -24 -0.5t-23 5.5t-13.5 17.5t11.5 17.5q7 3 16.5 3t19.5 -2t19.5 -5 t16.5 -6q16 3 31.5 8.5t30.5 14.5q11 7 22 17.5t16 22.5t2.5 24.5t-18.5 21.5q-14 8 -29.5 8.5t-31 -5t-28.5 -14.5t-22 -21q-3 -5 -5 -11t-4 -12.5t-5.5 -11.5t-10.5 -6q-11 -3 -18 8t0 21zM117 -62q66 48 126 101t119 109l58 52q5 6 12 14.5t15 17t16 14.5t16 7 q14 2 19 -10t-5 -21l-67 -58q-54 -46 -107 -90.5t-107 -89.5l-59 -49l-20 -15q-5 -4 -9.5 -3t-7.5 4.5t-3.5 8t4.5 8.5zM374 -22q10 -9 26.5 -2.5t34 19t32.5 27t21 20.5q15 15 29 31t28 30q9 5 20.5 2t9.5 -18q-2 -9 -11 -15.5t-16 -12.5l-30 -33q-14 -17 -27.5 -35 t-24.5 -37q-26 -37 -47.5 -76t-40.5 -80q-3 -6 -6 -16t-7.5 -20.5t-10.5 -17.5t-14 -7q-12 0 -14.5 6.5t-0.5 14.5t6.5 16t6.5 13q26 48 53.5 95.5t57.5 93.5q-22 -17 -45.5 -25.5t-43.5 6.5q-16 12 -15.5 29.5t9 36.5t21 36t20.5 27q6 8 13.5 17.5t18.5 11.5q8 2 13 -1.5 t6.5 -9.5t-0.5 -12.5t-8 -10.5q-3 -2 -16 -15.5t-26.5 -30.5t-21.5 -33t0 -24z"/>
<glyph glyph-name="onehalf" unicode="½" horiz-adv-x="486" d="M209 303q-32 -55 -62 -113t-50 -118q-3 -10 -6 -24.5t-16 -15.5q-11 -1 -17 7.5t-1 19.5q2 7 6.5 14.5t8.5 15.5q12 25 23.5 49.5t24.5 48.5q13 26 25 53t22 54q2 4 3.5 10.5t4.5 12.5t7 10t11 4q11 0 16 -9.5t0 -18.5zM21 -62q66 48 126 101t119 109l58 52q5 6 12 14.5 t15 17t16 14.5t16 7q14 2 19 -10t-5 -21l-67 -58q-54 -46 -107 -90.5t-107 -89.5l-59 -49l-20 -15q-5 -4 -9.5 -3t-7.5 4.5t-3.5 8t4.5 8.5zM236 22q11 19 28 36t38 31t43.5 23.5t44.5 12.5q16 3 32.5 -1.5t22.5 -22.5q8 -18 -2 -35.5t-21 -31.5q-33 -38 -74 -69.5 t-82 -60.5l-17 -12q45 4 90.5 -2.5t86.5 -23.5q6 -5 8 -12t-0.5 -13t-8 -9t-14.5 0q-11 5 -19.5 11t-19.5 11q-13 5 -26 8t-26 5q-27 4 -57.5 2.5t-59.5 -9.5l-17 -12q-7 -5 -15 -11.5t-17 -12.5t-18 -11t-16 -6q-17 -5 -23 11q-4 12 6.5 20t18.5 14q18 12 38 19.5t40 12.5 q19 13 37 26t35 26q36 26 72.5 56.5t58.5 70.5q8 13 10 21t-15 9q-23 1 -45.5 -7t-40.5 -22q-8 -5 -14.5 -11.5l-13.5 -13.5q-6 -9 -9.5 -18.5t-8.5 -18.5q-5 -8 -12 -8.5t-12.5 3t-8 10.5t2.5 15z"/>
<glyph glyph-name="onequarter" unicode="¼" horiz-adv-x="533" d="M210 294q-32 -55 -62 -113t-50 -118q-3 -10 -6 -24.5t-16 -15.5q-11 -1 -17 7.5t-1 19.5q2 7 6.5 14.5t8.5 15.5q12 25 23.5 49.5t24.5 48.5q13 26 25 53t22 54q2 4 3.5 10.5t4.5 12.5t7 10t11 4q11 0 16 -9.5t0 -18.5zM27 -62q66 48 126 101t119 109l58 52q5 6 12 14.5 t15 17t16 14.5t16 7q14 2 19 -10t-5 -21l-67 -58q-54 -46 -107 -90.5t-107 -89.5l-59 -49l-20 -15q-5 -4 -9.5 -3t-7.5 4.5t-3.5 8t4.5 8.5zM295 2q10 -9 26.5 -2.5t34 19t32.5 27t21 20.5q15 15 29 31t28 30q9 5 20.5 2t9.5 -18q-2 -9 -11 -15.5t-16 -12.5l-30 -33 q-14 -17 -27.5 -35t-24.5 -37q-26 -37 -47.5 -76t-40.5 -80q-3 -6 -6 -16t-7.5 -20.5t-10.5 -17.5t-14 -7q-12 0 -14.5 6.5t-0.5 14.5t6.5 16t6.5 13q26 48 53.5 95.5t57.5 93.5q-22 -17 -45.5 -25.5t-43.5 6.5q-16 12 -15.5 29.5t9 36.5t21 36t20.5 27q6 8 13.5 17.5 t18.5 11.5q8 2 13 -1.5t6.5 -9.5t-0.5 -12.5t-8 -10.5q-3 -2 -16 -15.5t-26.5 -30.5t-21.5 -33t0 -24z"/>
<glyph glyph-name="brokenbar" unicode="¦" horiz-adv-x="296" d="M144 187l70 149q5 12 9.5 22.5t9.5 21.5q4 8 7.5 18.5t11.5 15.5q9 5 14.5 3t7.5 -8t1.5 -13.5t-3.5 -13.5l-98 -196zM157 154l-69 -135q-11 -19 -21 -37.5t-20 -37.5l-15 -27q-3 -5 -7.5 -6t-8.5 0.5t-6 6t1 10.5q29 51 57.5 106.5t62.5 125.5z"/>
<glyph glyph-name="copyright" unicode="©" horiz-adv-x="487" d="M256 -91q-29 -18 -64.5 -33t-70.5 -13q-24 1 -42.5 11.5t-30.5 27t-18 37.5t-6 43q0 48 16.5 88t43.5 73t62.5 60t74.5 49q38 21 85.5 29t89.5 -6q45 -14 65 -53t7 -84q-6 -21 -17.5 -39t-25.5 -35q2 -6 0 -11q-5 -8 -21 -15l-14 -15q-18 -20 -39.5 -39t-41 -35 t-34.5 -26.5t-19 -13.5zM131 86q12 20 31 32.5t39 20t37.5 9.5t26.5 1q7 -2 11.5 -7.5t5 -11.5t-3 -11t-12.5 -6q-6 -1 -13.5 0t-14.5 2q-14 1 -28 -1t-26 -8q-20 -9 -29.5 -28t6.5 -38q14 -18 36.5 -23.5t47 -3.5t48.5 9t42 13q17 5 32 12.5t28 13.5q14 17 24 35.5t18 39.5 q7 24 2 47t-24 41q-20 20 -49 23t-55 1q-49 -3 -100.5 -28.5t-90.5 -65.5t-58.5 -90.5t-5.5 -104.5q10 -35 29.5 -49.5t45.5 -15t55.5 11t59 29.5t57 39.5t49.5 41.5q-33 -14 -67.5 -24.5t-69.5 -10.5q-21 0 -40.5 7.5t-32.5 22t-17 33.5t6 42z"/>
<glyph glyph-name="registered" unicode="®" horiz-adv-x="487" d="M256 -91q-29 -18 -64.5 -33t-70.5 -13q-24 1 -42.5 11.5t-30.5 27t-18 37.5t-6 43q0 48 16.5 88t43.5 73t62.5 60t74.5 49q38 21 85.5 29t89.5 -6q45 -14 65 -53t7 -84q-10 -33 -32.5 -61.5t-45.5 -53.5q-18 -20 -39.5 -39t-41 -35t-34.5 -26.5t-19 -13.5zM437 136 q7 24 2 47t-24 41q-20 20 -49 23t-55 1q-34 -3 -69.5 -16t-68 -34.5t-59.5 -50t-43 -61.5l56 34q-2 19 11.5 36t34.5 16q14 -2 18 -14.5t-4 -23.5t-21 -19q3 -2 8 -3.5t8 -1.5q22 -1 45 8.5t41 20.5q18 5 23 -5t-4 -24q-5 -8 -11.5 -20t-11 -25t-5.5 -25.5t7 -19.5 q6 -5 27 1t57 20l45 20q14 17 24 35.5t18 39.5zM56 -41q10 -35 30 -50t46 -15t56 12t59.5 30t57.5 40t49 42q-12 -6 -27.5 -15t-32 -14t-31 -4t-23.5 13q-5 7 -6 15.5t0.5 17t3.5 17t4 16.5l9 33q-5 -1 -20.5 -5t-33.5 -5.5t-35 0.5t-24 13q-2 1 -11 -4.5t-21 -13t-25 -15.5 t-22 -12q-8 -23 -9 -46.5t6 -49.5z"/>
<glyph glyph-name="ordfeminine" unicode="ª" horiz-adv-x="440" d="M61 197q12 6 30.5 15.5t39.5 18.5t40.5 17t32.5 13q7 3 25 9t38 11t37.5 7t25.5 -3q12 -11 4.5 -20t-18.5 -11l-45 -5q-14 -4 -23.5 -9.5t-21.5 -13.5q-5 -4 -17.5 -16.5t-24.5 -27t-19 -28t0 -19.5q6 -5 19.5 -2t27.5 9t26 12.5t16 9.5q29 18 47 38q9 10 19.5 2.5 t6.5 -20.5q-2 -7 -7 -12l-9.5 -9.5t-7.5 -12.5q-4 -7 -2 -10.5t7 -4.5q14 -2 35 2t43.5 11t44.5 16.5t38 17.5q4 1 11 5.5t14.5 7.5t14.5 3t10 -6q4 -6 -0.5 -11t-12.5 -8.5t-16 -6.5t-12 -5q-17 -8 -34 -15.5t-35 -15.5q-12 -5 -26 -12t-29 -12t-30.5 -7t-28.5 3 q-17 7 -20 19.5t1 26.5l-27 -16q-17 -10 -35.5 -20.5t-38.5 -12.5q-18 -1 -32 8t-15 28q0 10 8 25.5t20.5 32t27.5 30.5t28 21q-7 -2 -22.5 -9t-35 -17t-41 -20.5t-39.5 -19.5q-5 -3 -10 -1.5t-7.5 5t-2 8t6.5 7.5z"/>
<glyph glyph-name="minus" unicode="−" horiz-adv-x="340" d="M60 98q35 -3 71 -1t71 7q15 2 34.5 7.5t35.5 3.5q13 -2 15.5 -14.5t-9.5 -18.5q-6 -4 -14 -5t-17 -1h-17.5h-15.5q-39 -3 -76 -3q-17 0 -35 0.5t-36 0.5q-5 0 -10.5 1t-8.5 7q-4 6 0 12t12 4z"/>
<glyph glyph-name="logicalnot" unicode="¬" horiz-adv-x="340" d="M179 4q9 7 18 18t16.5 21.5t14 20t11.5 15.5l-25 -3q-20 -3 -38.5 -3h-37.5q-17 0 -35 0.5t-36 0.5q-5 0 -10.5 1t-8.5 7q-4 6 0 12t12 4q35 -3 71 -1t71 7q15 2 34.5 7.5t35.5 3.5q13 -2 14 -11.5t-8 -21.5q-11 -17 -24 -30.5t-25 -25.5l-27 -30q-8 -8 -13.5 -8.5t-9 2 t-4 7t3.5 7.5z"/>
<glyph glyph-name="degree" unicode="°" horiz-adv-x="184" d="M86 110q-17 5 -22.5 19.5t-2.5 31.5t13 34.5t24.5 28t32 12t35.5 -11.5q21 -17 19.5 -39.5t-16.5 -42t-38 -30t-45 -2.5zM94 132q10 -3 22.5 4t22 17.5t12 22t-6.5 18.5q-12 10 -25 3.5t-22 -20t-11.5 -27.5t8.5 -18z"/>
<glyph glyph-name="plusminus" unicode="±" horiz-adv-x="335" d="M110 13q18 26 32 60h-5q-17 0 -35 0.5t-36 0.5q-5 0 -11 1t-8 7q-4 6 0 12t12 4q45 -5 92 0l7 22q5 12 7.5 28.5t10.5 27.5q7 8 18.5 6t13.5 -13t-6.5 -25t-13.5 -25l-9 -18l21 3q16 2 35.5 7.5t35.5 3.5q13 -2 15.5 -14.5t-9.5 -18.5q-6 -4 -14 -5t-17 -1h-18h-16 q-23 -3 -45 -3q-4 -4 -6 -11q-5 -12 -12.5 -25t-14.5 -27q-2 -4 -5 -7.5t-9 -3.5q-6 -1 -9.5 4t-0.5 10zM2 -48q35 -4 71 -1.5t71 7.5q15 2 34.5 7.5t36.5 3.5q13 -2 15 -14.5t-9 -19.5q-12 -7 -31.5 -6t-33.5 0q-19 -1 -37.5 -1.5t-38.5 -0.5q-17 0 -34.5 0.5t-35.5 0.5 q-6 0 -11.5 1t-8.5 6q-3 7 1 12.5t11 4.5z"/>
<glyph glyph-name="twosuperior" unicode="²" horiz-adv-x="311" d="M150 296q11 19 28 36t38 31t43.5 23.5t44.5 12.5q16 3 32.5 -1.5t22.5 -22.5q8 -18 -2 -35.5t-21 -31.5q-33 -38 -74 -69.5t-82 -60.5l-17 -12q45 4 90.5 -2.5t86.5 -23.5q6 -5 8 -12t-0.5 -13t-8 -9t-14.5 0q-11 5 -19.5 11t-19.5 11q-13 5 -26 8t-26 5q-27 4 -57.5 2.5 t-59.5 -9.5l-17 -12q-7 -5 -15 -11.5t-17 -12.5t-18 -11t-16 -6q-17 -5 -23 11q-4 12 6.5 20t18.5 14q18 12 38 19.5t40 12.5q19 13 37 26t35 26q36 26 72.5 56.5t58.5 70.5q8 13 10 21t-15 9q-23 1 -45.5 -7t-40.5 -22q-8 -5 -14.5 -11.5l-13.5 -13.5q-6 -9 -9.5 -18.5 t-8.5 -18.5q-5 -8 -12 -8.5t-12.5 3t-8 10.5t2.5 15z"/>
<glyph glyph-name="threesuperior" unicode="³" horiz-adv-x="278" d="M185 321q11 18 29 35t39.5 28t45 15.5t45.5 -1.5q20 -6 35 -23t16 -39q0 -14 -6 -26t-15.5 -22t-21.5 -17.5t-23 -13.5t-22.5 -10.5t-24.5 -9.5q13 -12 22 -27t11 -32q3 -24 -6.5 -44.5t-27 -35t-39.5 -22.5t-44 -8q-23 0 -45.5 9t-40.5 25t-28 37.5t-8 46.5q0 6 2.5 17 t7 21.5t11.5 18.5t16 8q16 0 17 -8.5t-4 -19.5t-12.5 -22t-8.5 -15q-8 -23 5 -44t33 -32q23 -11 49.5 -8.5t49.5 11.5q23 8 39 26.5t9 44.5q-5 15 -15 26.5t-24 17.5q-5 -1 -9.5 -1.5t-9.5 -0.5q-12 -1 -24 -0.5t-23 5.5t-13.5 17.5t11.5 17.5q7 3 16.5 3t19.5 -2t19.5 -5 t16.5 -6q16 3 31.5 8.5t30.5 14.5q11 7 22 17.5t16 22.5t2.5 24.5t-18.5 21.5q-14 8 -29.5 8.5t-31 -5t-28.5 -14.5t-22 -21q-3 -5 -5 -11t-4 -12.5t-5.5 -11.5t-10.5 -6q-11 -3 -18 8t0 21z"/>
<glyph glyph-name="onesuperior" unicode="¹" horiz-adv-x="149" d="M227 360q-32 -55 -62 -113t-50 -118q-3 -10 -6 -24.5t-16 -15.5q-11 -1 -17 7.5t-1 19.5q2 7 6.5 14.5t8.5 15.5q12 25 23.5 49.5t24.5 48.5q13 26 25 53t22 54q2 4 3.5 10.5t4.5 12.5t7 10t11 4q11 0 16 -9.5t0 -18.5z"/>
<glyph glyph-name="ordmasculine" unicode="º" horiz-adv-x="392" d="M354 328q-14 3 -26 2q14 -35 13.5 -74.5t-17.5 -70.5q-8 -18 -24 -34.5t-36 -30t-42 -21.5t-42 -8q-21 0 -39.5 9.5t-27.5 29.5q-11 23 -2 47.5t23 43.5q29 41 68 74t84 53q-5 5 -11 9.5t-13 8.5q-16 6 -30 5q-8 -1 -16 -4t-16 3q-11 7 -7 17t15 15q34 6 60.5 -6.5 t43.5 -36.5q12 4 25 5.5t24 -2.5q9 -3 12.5 -9.5t2.5 -13t-7 -10.5t-15 -1zM222 277q-13 -10 -28 -23t-27 -28.5t-20 -32.5t-7 -35q0 -17 11.5 -24t27 -7t31.5 4t25 8q32 14 54.5 39.5t26.5 61.5q2 19 -1.5 42t-13.5 43q-23 -8 -43.5 -22t-35.5 -26z"/>
<glyph glyph-name="mu.001" horiz-adv-x="1000"/>
<glyph glyph-name="mu" unicode="µ" horiz-adv-x="470" d="M142 139q4 7 10.5 13.5t12.5 10.5t12 3t10 -8q4 -8 0.5 -16t-10 -15t-14.5 -13.5t-12 -10.5q-15 -15 -29 -33t-14 -38q18 0 38 9t35 15q48 22 95 50q26 16 47 32q9 6 18.5 0t7.5 -18q-2 -9 -8.5 -17.5t-11.5 -17.5q-5 -8 -9.5 -22t-0.5 -25q11 -6 27 -1.5t26 7.5 q43 15 80 34q7 3 17.5 8.5t15.5 -4.5q5 -9 -1.5 -13.5t-13.5 -7.5l-66 -31q-21 -9 -46 -20.5t-50 -5.5q-18 5 -20.5 20.5t2.5 29.5l15 36q-26 -12 -50.5 -25t-50.5 -24q-11 -6 -26 -14.5t-31.5 -16t-32.5 -11t-28 1.5q-6 1 -10 7q-21 -30 -40.5 -60.5t-39.5 -62.5l-37 -59 q-5 -10 -10 -18t-10 -17q-5 -5 -9 -13t-12 -12q-8 -3 -12 -0.5t-5.5 7.5t-0.5 11t4 10l46 67q35 52 70.5 103.5t71.5 105.5l4 5q5 8 11 16.5t12 16.5z"/>
<glyph glyph-name="paragraph" unicode="¶" horiz-adv-x="296" d="M100 -72q46 81 87 163t79 167l36 78q5 12 10 22.5t10 21.5v1l1 1h-63l-44 -88q-35 -69 -69.5 -137.5t-70.5 -137.5q-11 -19 -21 -37.5t-20 -37.5l-15 -27q-3 -5 -7.5 -6t-8.5 0.5t-6 6t1 10.5q46 81 87 163t80 167l10 23q-28 6 -34 28t6 46.5t38.5 44.5t64.5 20h71t33 -4 q8 -3 9 -14.5t-3 -19.5l-44 -88q-35 -69 -70 -137.5t-71 -137.5q-11 -19 -20.5 -37.5t-19.5 -37.5l-15 -27q-3 -5 -7.5 -6t-8.5 0.5t-6 6t1 10.5z"/>
<glyph glyph-name="divide" unicode="÷" horiz-adv-x="287" d="M118 62q15 0 18 -9.5t-3 -21t-18 -20.5t-27 -9q-15 1 -18 10.5t3 20.5t18.5 20t26.5 9zM185 186q15 0 18 -9.5t-3 -21t-18 -20.5t-27 -9t-18 9.5t3 21t18.5 20.5t26.5 9zM34 105q35 -3 71 -1t71 7q15 2 34.5 7.5t35.5 3.5q13 -2 15.5 -14.5t-9.5 -18.5q-6 -4 -14 -5 t-17 -1h-17.5h-15.5q-39 -3 -76 -3q-17 0 -35 0.5t-36 0.5q-5 0 -10.5 1t-8.5 7q-4 6 0 12t12 4z"/>
<glyph glyph-name="multiply" unicode="×" horiz-adv-x="247" d="M109 20v22.5t-3 23.5l-4 -2l-70 -45q-5 -2 -9.5 -4.5t-9.5 1.5q-7 3 -6.5 10t7.5 10q21 10 45 26t42 30l-5 23q-3 13 -9.5 28.5t-4.5 29.5q1 10 12 14t18 -5q3 -4 5 -10.5t2.5 -14t1 -14.5t1.5 -13l2 -21l16 15q6 5 15 13.5t18.5 17t19 16.5t16.5 11q11 4 20 -5t3 -20 q-3 -6 -12 -13.5t-19 -14.5t-20 -13t-15 -10l-39 -27v-5.5t1 -6.5q1 -7 1 -10.5v-7t0.5 -8t1.5 -11.5q1 -4 0 -8.5t-6 -8.5t-11 -1.5t-5 8.5z"/>
<glyph glyph-name="eth" unicode="ð" horiz-adv-x="392" d="M144 227q27 16 54 41l-10 33q-3 12 -6.5 23.5t-7.5 22.5q-3 7 -7 18t-1 19q3 10 8.5 12t11 -1t10.5 -9t7 -12l21 -80l18 19q11 10 21.5 25.5t23.5 23.5q10 6 18 -3t3 -21q-5 -11 -19.5 -22t-23.5 -20q-8 -8 -16.5 -15t-16.5 -14l38 -129q8 -13 3.5 -29t-14.5 -31 q4 -5 12 -10q16 -10 35 -9t36 6q5 1 15 6t20.5 9.5t19.5 6t12 -4.5q4 -8 -1 -13.5t-13.5 -9t-17.5 -6.5l-12 -4q-15 -5 -31.5 -8t-32.5 -3t-31 4.5t-26 15.5l-22 -23q-12 -11 -27 -22t-31.5 -18.5t-34.5 -9.5t-34 5q-20 9 -23.5 23.5t2.5 30.5t17 31t21 25l19 19 q-23 -8 -45 -18t-44 -21q-4 -2 -10 -5.5t-12 -6.5t-11.5 -4.5t-9.5 1.5q-7 4 -6 11t7 10l104 45q20 8 41.5 14t41.5 12q9 5 20.5 9t22.5 2l-16 50l-9 27q-10 -8 -21 -16t-22 -18q-4 -2 -8.5 -5t-9.5 0t-5 10t5 11zM138 96q-4 -4 -14.5 -15t-18.5 -23t-9.5 -22.5t12.5 -12.5 q26 -4 49.5 2t42.5 23l15 15t12 16q-5 13 -5.5 28t7.5 26q-28 -2 -50.5 -12t-40.5 -25z"/>
<glyph glyph-name="macron" unicode="¯" horiz-adv-x="344" d="M62 355q35 -4 71 -1.5t71 7.5q15 2 34.5 7.5t36.5 3.5q13 -2 15 -14.5t-9 -19.5q-12 -7 -31.5 -5.5t-33.5 -0.5q-19 -1 -37.5 -1.5t-38.5 -0.5q-17 0 -34.5 0.5t-35.5 0.5q-6 0 -11.5 1t-8.5 6q-3 7 1 12.5t11 4.5z"/>
<glyph glyph-name="Agrave" unicode="À" horiz-adv-x="730" d="M8 25q35 17 73 28.5t76 20.5l25 39q33 47 67 91t71 88q36 42 74.5 82.5t81.5 75.5q21 17 43 32t45 27q6 3 19.5 9t27.5 9.5t26 2.5t16 -12q2 -7 -1.5 -14.5t-5.5 -13.5l-23 -47l-19 -39q-20 -39 -38.5 -78t-36.5 -80q-16 -36 -31 -72t-28 -74q8 0 15.5 -1t13.5 -3 q12 -5 11.5 -17.5t-12.5 -16.5q-9 -2 -19 -1t-21 3l-4 -21q-6 -21 -11.5 -44.5t-9 -47t-4.5 -46.5t3 -44q28 28 53 54t55 49q45 35 92.5 65t97.5 57q5 3 9 1.5t6.5 -5.5t2 -8.5t-5.5 -7.5l-41 -22q-26 -15 -51.5 -30.5t-49.5 -33.5q-77 -56 -139 -132q-5 -8 -10.5 -14 t-16.5 -8q-14 -2 -22 4t-12.5 16t-5.5 22t0 22q1 44 13 89t26 87q-17 1 -34 1.5t-34 0.5q-36 2 -72 0t-71 -7l-46 -7l-14 -26q-12 -23 -25 -48t-16 -51q-1 -8 -3.5 -16t-13.5 -9q-9 0 -14.5 6t-4.5 14q1 25 13.5 49t23.5 45q4 8 8 14t9 14q-14 -3 -26.5 -6.5t-26.5 -8.5 q-18 -5 -34.5 -12t-33.5 -15q-5 -3 -9.5 -1t-6 6t-0.5 8.5t6 7.5zM446 102q26 69 54.5 135t57.5 133q14 30 27 60.5t25 62.5q-23 -4 -46 -15.5t-44 -26.5t-39.5 -31t-34.5 -30q-84 -77 -156 -170q-51 -68 -97 -138l83 12q37 3 74 4.5t75 -0.5h20q0 3 1 4zM564 643 q3 -5 11.5 -11t19 -11.5t21.5 -10.5t19 -8q14 -5 30 -8t27 -11q8 -2 9.5 -8t-3.5 -11q-5 -7 -13 -4t-14 5q-31 10 -63.5 20t-59.5 28q-5 4 -10.5 9t-7.5 13q-1 7 3 11.5t10 6t12 -0.5t9 -9z"/>
<glyph glyph-name="Aacute" unicode="Á" horiz-adv-x="730" d="M8 25q35 17 73 28.5t76 20.5l25 39q33 47 67 91t71 88q36 42 74.5 82.5t81.5 75.5q21 17 43 32t45 27q6 3 19.5 9t27.5 9.5t26 2.5t16 -12q2 -7 -1.5 -14.5t-5.5 -13.5l-23 -47l-19 -39q-20 -39 -38.5 -78t-36.5 -80q-16 -36 -31 -72t-28 -74q8 0 15.5 -1t13.5 -3 q12 -5 11.5 -17.5t-12.5 -16.5q-9 -2 -19 -1t-21 3l-4 -21q-6 -21 -11.5 -44.5t-9 -47t-4.5 -46.5t3 -44q28 28 53 54t55 49q45 35 92.5 65t97.5 57q5 3 9 1.5t6.5 -5.5t2 -8.5t-5.5 -7.5l-41 -22q-26 -15 -51.5 -30.5t-49.5 -33.5q-77 -56 -139 -132q-5 -8 -10.5 -14 t-16.5 -8q-14 -2 -22 4t-12.5 16t-5.5 22t0 22q1 44 13 89t26 87q-17 1 -34 1.5t-34 0.5q-36 2 -72 0t-71 -7l-46 -7l-14 -26q-12 -23 -25 -48t-16 -51q-1 -8 -3.5 -16t-13.5 -9q-9 0 -14.5 6t-4.5 14q1 25 13.5 49t23.5 45q4 8 8 14t9 14q-14 -3 -26.5 -6.5t-26.5 -8.5 q-18 -5 -34.5 -12t-33.5 -15q-5 -3 -9.5 -1t-6 6t-0.5 8.5t6 7.5zM446 102q26 69 54.5 135t57.5 133q14 30 27 60.5t25 62.5q-23 -4 -46 -15.5t-44 -26.5t-39.5 -31t-34.5 -30q-84 -77 -156 -170q-51 -68 -97 -138l83 12q37 3 74 4.5t75 -0.5h20q0 3 1 4zM753 635 q-7 -15 -28 -23.5t-37 -13.5q-14 -5 -27 -8.5t-27 -7.5q-4 -1 -10.5 -3.5t-14 -4.5t-14.5 -2.5t-11 2.5q-8 8 1 15t24 12t30 8t18 5q7 3 17 7t19.5 9t17.5 10t10 10q3 8 10 9.5t13 -1t9.5 -9t-0.5 -14.5z"/>
<glyph glyph-name="Acircumflex" unicode="Â" horiz-adv-x="730" d="M8 25q35 17 73 28.5t76 20.5l25 39q33 47 67 91t71 88q36 42 74.5 82.5t81.5 75.5q21 17 43 32t45 27q6 3 19.5 9t27.5 9.5t26 2.5t16 -12q2 -7 -1.5 -14.5t-5.5 -13.5l-23 -47l-19 -39q-20 -39 -38.5 -78t-36.5 -80q-16 -36 -31 -72t-28 -74q8 0 15.5 -1t13.5 -3 q12 -5 11.5 -17.5t-12.5 -16.5q-9 -2 -19 -1t-21 3l-4 -21q-6 -21 -11.5 -44.5t-9 -47t-4.5 -46.5t3 -44q28 28 53 54t55 49q45 35 92.5 65t97.5 57q5 3 9 1.5t6.5 -5.5t2 -8.5t-5.5 -7.5l-41 -22q-26 -15 -51.5 -30.5t-49.5 -33.5q-77 -56 -139 -132q-5 -8 -10.5 -14 t-16.5 -8q-14 -2 -22 4t-12.5 16t-5.5 22t0 22q1 44 13 89t26 87q-17 1 -34 1.5t-34 0.5q-36 2 -72 0t-71 -7l-46 -7l-14 -26q-12 -23 -25 -48t-16 -51q-1 -8 -3.5 -16t-13.5 -9q-9 0 -14.5 6t-4.5 14q1 25 13.5 49t23.5 45q4 8 8 14t9 14q-14 -3 -26.5 -6.5t-26.5 -8.5 q-18 -5 -34.5 -12t-33.5 -15q-5 -3 -9.5 -1t-6 6t-0.5 8.5t6 7.5zM446 102q26 69 54.5 135t57.5 133q14 30 27 60.5t25 62.5q-23 -4 -46 -15.5t-44 -26.5t-39.5 -31t-34.5 -30q-84 -77 -156 -170q-51 -68 -97 -138l83 12q37 3 74 4.5t75 -0.5h20q0 3 1 4zM556 595 q21 8 40 18t38 22q5 3 13.5 10.5t17.5 14.5t17.5 9.5t14.5 -3.5q11 -11 16 -31t10 -34q2 -5 6 -13.5t3 -15.5q-2 -14 -12.5 -9t-14.5 13l-29 53q-21 -9 -41.5 -21t-39.5 -26q-4 -3 -8.5 -8t-10 -8.5t-11 -5t-11.5 1.5q-11 5 -10 17t12 16z"/>
<glyph glyph-name="Atilde" unicode="Ã" horiz-adv-x="730" d="M8 25q35 17 73 28.5t76 20.5l25 39q33 47 67 91t71 88q36 42 74.5 82.5t81.5 75.5q21 17 43 32t45 27q6 3 19.5 9t27.5 9.5t26 2.5t16 -12q2 -7 -1.5 -14.5t-5.5 -13.5l-23 -47l-19 -39q-20 -39 -38.5 -78t-36.5 -80q-16 -36 -31 -72t-28 -74q8 0 15.5 -1t13.5 -3 q12 -5 11.5 -17.5t-12.5 -16.5q-9 -2 -19 -1t-21 3l-4 -21q-6 -21 -11.5 -44.5t-9 -47t-4.5 -46.5t3 -44q28 28 53 54t55 49q45 35 92.5 65t97.5 57q5 3 9 1.5t6.5 -5.5t2 -8.5t-5.5 -7.5l-41 -22q-26 -15 -51.5 -30.5t-49.5 -33.5q-77 -56 -139 -132q-5 -8 -10.5 -14 t-16.5 -8q-14 -2 -22 4t-12.5 16t-5.5 22t0 22q1 44 13 89t26 87q-17 1 -34 1.5t-34 0.5q-36 2 -72 0t-71 -7l-46 -7l-14 -26q-12 -23 -25 -48t-16 -51q-1 -8 -3.5 -16t-13.5 -9q-9 0 -14.5 6t-4.5 14q1 25 13.5 49t23.5 45q4 8 8 14t9 14q-14 -3 -26.5 -6.5t-26.5 -8.5 q-18 -5 -34.5 -12t-33.5 -15q-5 -3 -9.5 -1t-6 6t-0.5 8.5t6 7.5zM446 102q26 69 54.5 135t57.5 133q14 30 27 60.5t25 62.5q-23 -4 -46 -15.5t-44 -26.5t-39.5 -31t-34.5 -30q-84 -77 -156 -170q-51 -68 -97 -138l83 12q37 3 74 4.5t75 -0.5h20q0 3 1 4zM547 612 q18 14 37.5 29.5t42.5 20.5q14 3 21.5 -2t12 -14t6.5 -19.5t5 -19.5t11.5 -7t18 9t18.5 15.5t12 11.5q5 5 11 12t15 6q11 -1 15.5 -11.5t-3.5 -18.5q-7 -7 -16.5 -14.5t-21 -14.5t-23 -12t-21.5 -8q-14 -3 -22 2t-12.5 14t-6.5 20.5t-5 20.5q-3 8 -12 5t-18.5 -10.5t-18 -16 l-11.5 -11.5q-7 -8 -14 -15.5t-18 -2.5q-10 5 -10.5 14.5t7.5 16.5z"/>
<glyph glyph-name="Adieresis" unicode="Ä" horiz-adv-x="730" d="M8 25q35 17 73 28.5t76 20.5l25 39q33 47 67 91t71 88q36 42 74.5 82.5t81.5 75.5q21 17 43 32t45 27q6 3 19.5 9t27.5 9.5t26 2.5t16 -12q2 -7 -1.5 -14.5t-5.5 -13.5l-23 -47l-19 -39q-20 -39 -38.5 -78t-36.5 -80q-16 -36 -31 -72t-28 -74q8 0 15.5 -1t13.5 -3 q12 -5 11.5 -17.5t-12.5 -16.5q-9 -2 -19 -1t-21 3l-4 -21q-6 -21 -11.5 -44.5t-9 -47t-4.5 -46.5t3 -44q28 28 53 54t55 49q45 35 92.5 65t97.5 57q5 3 9 1.5t6.5 -5.5t2 -8.5t-5.5 -7.5l-41 -22q-26 -15 -51.5 -30.5t-49.5 -33.5q-77 -56 -139 -132q-5 -8 -10.5 -14 t-16.5 -8q-14 -2 -22 4t-12.5 16t-5.5 22t0 22q1 44 13 89t26 87q-17 1 -34 1.5t-34 0.5q-36 2 -72 0t-71 -7l-46 -7l-14 -26q-12 -23 -25 -48t-16 -51q-1 -8 -3.5 -16t-13.5 -9q-9 0 -14.5 6t-4.5 14q1 25 13.5 49t23.5 45q4 8 8 14t9 14q-14 -3 -26.5 -6.5t-26.5 -8.5 q-18 -5 -34.5 -12t-33.5 -15q-5 -3 -9.5 -1t-6 6t-0.5 8.5t6 7.5zM446 102q26 69 54.5 135t57.5 133q14 30 27 60.5t25 62.5q-23 -4 -46 -15.5t-44 -26.5t-39.5 -31t-34.5 -30q-84 -77 -156 -170q-51 -68 -97 -138l83 12q37 3 74 4.5t75 -0.5h20q0 3 1 4zM738 634 q-8 -11 -18.5 -26t-21.5 -21q-4 -5 -9 -4t-8 4.5t-3.5 8.5t4.5 9q13 10 22.5 24t17.5 29q3 5 6 12t6.5 14t8.5 11.5t12 4.5q11 -2 15.5 -11.5t-2.5 -17.5zM681 658q-8 -17 -20 -33t-26 -29q-5 -3 -11 -8t-14 -2q-6 3 -7 6.5t1 7t5.5 6.5t6.5 5q8 5 13.5 13.5t9.5 16.5 t4.5 18.5t6.5 18.5q5 7 12 8t12.5 -3t8 -11t-1.5 -14z"/>
<glyph glyph-name="Aring" unicode="Å" horiz-adv-x="730" d="M8 25q35 17 73 28.5t76 20.5l25 39q33 47 67 91t71 88q36 42 74.5 82.5t81.5 75.5q21 17 43 32t45 27q6 3 19.5 9t27.5 9.5t26 2.5t16 -12q2 -7 -1.5 -14.5t-5.5 -13.5l-23 -47l-19 -39q-20 -39 -38.5 -78t-36.5 -80q-16 -36 -31 -72t-28 -74q8 0 15.5 -1t13.5 -3 q12 -5 11.5 -17.5t-12.5 -16.5q-9 -2 -19 -1t-21 3l-4 -21q-6 -21 -11.5 -44.5t-9 -47t-4.5 -46.5t3 -44q28 28 53 54t55 49q45 35 92.5 65t97.5 57q5 3 9 1.5t6.5 -5.5t2 -8.5t-5.5 -7.5l-41 -22q-26 -15 -51.5 -30.5t-49.5 -33.5q-77 -56 -139 -132q-5 -8 -10.5 -14 t-16.5 -8q-14 -2 -22 4t-12.5 16t-5.5 22t0 22q1 44 13 89t26 87q-17 1 -34 1.5t-34 0.5q-36 2 -72 0t-71 -7l-46 -7l-14 -26q-12 -23 -25 -48t-16 -51q-1 -8 -3.5 -16t-13.5 -9q-9 0 -14.5 6t-4.5 14q1 25 13.5 49t23.5 45q4 8 8 14t9 14q-14 -3 -26.5 -6.5t-26.5 -8.5 q-18 -5 -34.5 -12t-33.5 -15q-5 -3 -9.5 -1t-6 6t-0.5 8.5t6 7.5zM446 102q26 69 54.5 135t57.5 133q14 30 27 60.5t25 62.5q-23 -4 -46 -15.5t-44 -26.5t-39.5 -31t-34.5 -30q-84 -77 -156 -170q-51 -68 -97 -138l83 12q37 3 74 4.5t75 -0.5h20q0 3 1 4zM654 580 q-17 5 -22.5 19.5t-3 31.5t12.5 34t24.5 28t32 12.5t35.5 -11.5q21 -17 19.5 -40t-16.5 -42t-38 -29.5t-44 -2.5zM661 601q10 -3 22.5 4t22 18t12 22.5t-6.5 18.5q-12 10 -25 3t-22 -20.5t-11.5 -27.5t8.5 -18z"/>
<glyph glyph-name="AE" unicode="Æ" horiz-adv-x="835" d="M612 268q51 11 101 38t81 72q5 7 10.5 18t9 22.5t2.5 23t-8 20.5q-8 10 -20 13t-25.5 2.5t-27 -3.5t-23.5 -6q-53 -15 -99 -45t-83 -71q-6 -6 -17 -20.5t-23.5 -33t-23 -39t-14.5 -38t1 -30t24 -15.5q22 -3 40 5t38 10q8 2 15.5 -4t5.5 -15q-2 -12 -17 -19t-24 -13 q-21 -13 -43 -28.5t-42.5 -33.5t-37.5 -39.5t-26 -45.5q-10 -26 3 -37.5t34.5 -15t46 -1t37.5 5.5q55 11 106.5 33.5t101.5 47.5l96 48q7 3 16 9t17 6q9 -1 10.5 -5t-0.5 -8.5t-6.5 -8.5t-7.5 -6q-17 -7 -34 -15t-34 -17q-61 -31 -123.5 -63.5t-129.5 -50.5 q-29 -9 -62 -11.5t-63 8.5q-29 11 -39.5 34.5t1.5 52.5q8 19 21 35.5t28 32.5q-11 0 -20.5 0.5t-19.5 0.5q-36 2 -72 0t-71 -7l-46 -7l-14 -26q-12 -23 -25 -48t-16 -51q-1 -8 -3.5 -16t-13.5 -9q-9 0 -14.5 6t-4.5 14q1 25 13.5 49t23.5 45q4 8 8 14t9 14 q-14 -3 -26.5 -6.5t-26.5 -8.5q-18 -5 -34.5 -12t-33.5 -15q-5 -3 -9.5 -1t-6 6t-0.5 8.5t6 7.5q35 17 73 28.5t76 20.5l25 39q33 47 67 91t71 88q36 42 74.5 82.5t81.5 75.5q21 17 43 32t45 27q6 3 19.5 9t27.5 9.5t26 2.5t16 -12q2 -7 -1.5 -14.5t-5.5 -13.5l-10 -23 q17 10 34 17.5t34 14.5q16 6 35.5 9.5t39 2.5t36 -9t26.5 -26q10 -17 9 -34.5t-8 -35t-18 -33t-23 -27.5q-26 -29 -57.5 -50t-65.5 -38q-13 -6 -30 -15t-32 -10q-8 -1 -12.5 3.5t-5.5 11t2.5 12.5t11.5 8zM276 94q37 3 74 3.5t75 0.5h12l53 45q-16 1 -29.5 6t-24.5 18 q-12 15 -12.5 33t5 36.5t15 35.5t18.5 30q24 38 56 72t70 62l22 57q-23 -4 -46 -15.5t-44 -26.5t-39.5 -31t-34.5 -30q-84 -77 -156 -170q-51 -68 -97 -138z"/>
<glyph glyph-name="Ccedilla" unicode="Ç" horiz-adv-x="500" d="M277 130q20 15 37 36t31.5 45t26 48.5t20.5 47.5q11 25 17 52t4 54q-2 29 -20.5 36t-44.5 2q-27 -5 -51.5 -18.5t-46.5 -32.5t-41.5 -40.5t-35.5 -41.5q-36 -45 -65.5 -93.5t-49.5 -102.5q-8 -18 -15.5 -45t-8.5 -54t8.5 -49t36.5 -30t55.5 -6t57.5 9.5t57 18.5t52 21 q26 11 51.5 23.5t51.5 25.5l52 25l12.5 7.5t16 9.5t16.5 8t14 3q9 -1 10 -10.5t-7 -12.5q-8 -8 -21 -11.5t-23 -8.5q-28 -14 -55.5 -28.5t-56.5 -28.5q-46 -23 -93.5 -46t-99.5 -34q-11 -2 -21.5 -3t-21.5 -2l-24 -30q21 -5 41.5 -15t22.5 -28q1 -9 -3 -16.5t-11 -13 t-14.5 -9.5t-14.5 -7q-35 -13 -72 -18.5t-73 -10.5q-13 -2 -19 10t3 20q8 8 23.5 6.5t25.5 -0.5q13 0 31.5 1t37 4t34.5 9t26 17q5 6 -5 10t-25 7t-28.5 4.5t-15.5 1.5q-12 5 -12.5 12t4 14.5t12 14t12.5 10.5l10 9q-29 5 -52.5 21.5t-31.5 50.5q-5 24 -2.5 50t10 51.5 t18 49.5t21.5 45q50 102 123 187q16 18 33 37t36.5 35.5t41 29.5t45.5 19q21 7 46.5 6.5t43.5 -16.5t21 -38.5t-1 -44.5q-9 -53 -33 -103t-50 -96q-14 -23 -28 -45.5t-32 -42.5q-8 -5 -15.5 -3.5t-12 6.5t-4.5 12t8 13z"/>
<glyph glyph-name="Egrave" unicode="È" horiz-adv-x="490" d="M268 268q51 11 101 38t81 72q5 7 10.5 18t9 22.5t2.5 23t-8 20.5q-8 10 -20 13t-25.5 2.5t-27 -3.5t-23.5 -6q-53 -15 -99 -45t-83 -71q-5 -6 -16.5 -20.5t-24 -33t-23 -39t-14.5 -38t1 -30t24 -15.5q22 -3 40 5t38 10q8 2 15.5 -4t5.5 -15q-2 -12 -17 -19t-24 -13 q-21 -13 -43 -28.5t-42.5 -33.5t-37.5 -39.5t-26 -45.5q-10 -26 3 -37.5t34.5 -15t46 -1t37.5 5.5q55 11 106.5 33.5t101.5 47.5l96 48q7 3 16 9t17 6q9 -1 10.5 -5t-0.5 -8.5t-6.5 -8.5t-7.5 -6q-17 -7 -34 -15t-34 -17q-61 -31 -123.5 -63.5t-129.5 -50.5 q-29 -9 -62 -11.5t-63 8.5q-29 11 -39.5 34.5t1.5 52.5t34.5 52.5t44.5 44.5l55 47q-16 1 -29.5 6t-24.5 18q-12 15 -12.5 33t5 36.5t15 35.5t18.5 30q42 66 105.5 118.5t136.5 78.5q16 6 35.5 9.5t39 2.5t36 -9t26.5 -26q10 -17 9 -34.5t-8 -35t-18 -33t-23 -27.5 q-26 -29 -57.5 -50t-65.5 -38q-13 -6 -30 -15t-32 -10q-8 -1 -12.5 3.5t-5.5 11t2.5 12.5t11.5 8zM353 617q3 -5 11.5 -11t19 -11.5t21.5 -10.5t19 -8q14 -5 30 -8t27 -11q8 -2 9.5 -8t-3.5 -11q-5 -7 -13 -4t-14 5q-31 10 -63.5 20t-59.5 28q-5 4 -10.5 9t-7.5 13 q-1 7 3 11.5t10 6t12 -0.5t9 -9z"/>
<glyph glyph-name="Eacute" unicode="É" horiz-adv-x="490" d="M268 268q51 11 101 38t81 72q5 7 10.5 18t9 22.5t2.5 23t-8 20.5q-8 10 -20 13t-25.5 2.5t-27 -3.5t-23.5 -6q-53 -15 -99 -45t-83 -71q-5 -6 -16.5 -20.5t-24 -33t-23 -39t-14.5 -38t1 -30t24 -15.5q22 -3 40 5t38 10q8 2 15.5 -4t5.5 -15q-2 -12 -17 -19t-24 -13 q-21 -13 -43 -28.5t-42.5 -33.5t-37.5 -39.5t-26 -45.5q-10 -26 3 -37.5t34.5 -15t46 -1t37.5 5.5q55 11 106.5 33.5t101.5 47.5l96 48q7 3 16 9t17 6q9 -1 10.5 -5t-0.5 -8.5t-6.5 -8.5t-7.5 -6q-17 -7 -34 -15t-34 -17q-61 -31 -123.5 -63.5t-129.5 -50.5 q-29 -9 -62 -11.5t-63 8.5q-29 11 -39.5 34.5t1.5 52.5t34.5 52.5t44.5 44.5l55 47q-16 1 -29.5 6t-24.5 18q-12 15 -12.5 33t5 36.5t15 35.5t18.5 30q42 66 105.5 118.5t136.5 78.5q16 6 35.5 9.5t39 2.5t36 -9t26.5 -26q10 -17 9 -34.5t-8 -35t-18 -33t-23 -27.5 q-26 -29 -57.5 -50t-65.5 -38q-13 -6 -30 -15t-32 -10q-8 -1 -12.5 3.5t-5.5 11t2.5 12.5t11.5 8zM533 606q-7 -15 -28 -23.5t-37 -13.5q-14 -5 -27 -8.5t-27 -7.5q-4 -1 -10.5 -3.5t-14 -4.5t-14.5 -2.5t-11 2.5q-8 8 1 15t24 12t30 8t18 5q7 3 17 7t19.5 9t17.5 10t10 10 q3 8 10 9.5t13 -1t9.5 -9t-0.5 -14.5z"/>
<glyph glyph-name="Ecircumflex" unicode="Ê" horiz-adv-x="490" d="M268 268q51 11 101 38t81 72q5 7 10.5 18t9 22.5t2.5 23t-8 20.5q-8 10 -20 13t-25.5 2.5t-27 -3.5t-23.5 -6q-53 -15 -99 -45t-83 -71q-5 -6 -16.5 -20.5t-24 -33t-23 -39t-14.5 -38t1 -30t24 -15.5q22 -3 40 5t38 10q8 2 15.5 -4t5.5 -15q-2 -12 -17 -19t-24 -13 q-21 -13 -43 -28.5t-42.5 -33.5t-37.5 -39.5t-26 -45.5q-10 -26 3 -37.5t34.5 -15t46 -1t37.5 5.5q55 11 106.5 33.5t101.5 47.5l96 48q7 3 16 9t17 6q9 -1 10.5 -5t-0.5 -8.5t-6.5 -8.5t-7.5 -6q-17 -7 -34 -15t-34 -17q-61 -31 -123.5 -63.5t-129.5 -50.5 q-29 -9 -62 -11.5t-63 8.5q-29 11 -39.5 34.5t1.5 52.5t34.5 52.5t44.5 44.5l55 47q-16 1 -29.5 6t-24.5 18q-12 15 -12.5 33t5 36.5t15 35.5t18.5 30q42 66 105.5 118.5t136.5 78.5q16 6 35.5 9.5t39 2.5t36 -9t26.5 -26q10 -17 9 -34.5t-8 -35t-18 -33t-23 -27.5 q-26 -29 -57.5 -50t-65.5 -38q-13 -6 -30 -15t-32 -10q-8 -1 -12.5 3.5t-5.5 11t2.5 12.5t11.5 8zM342 576q21 8 40 18t38 22q5 3 13.5 10.5t17.5 14.5t17.5 9.5t14.5 -3.5q11 -11 16 -31t10 -34q2 -5 6 -13.5t3 -15.5q-2 -14 -12.5 -9t-14.5 13l-29 53q-21 -9 -41.5 -21 t-39.5 -26q-4 -3 -8.5 -8t-10 -8.5t-11 -5t-11.5 1.5q-11 5 -10 17t12 16z"/>
<glyph glyph-name="Edieresis" unicode="Ë" horiz-adv-x="490" d="M268 268q51 11 101 38t81 72q5 7 10.5 18t9 22.5t2.5 23t-8 20.5q-8 10 -20 13t-25.5 2.5t-27 -3.5t-23.5 -6q-53 -15 -99 -45t-83 -71q-5 -6 -16.5 -20.5t-24 -33t-23 -39t-14.5 -38t1 -30t24 -15.5q22 -3 40 5t38 10q8 2 15.5 -4t5.5 -15q-2 -12 -17 -19t-24 -13 q-21 -13 -43 -28.5t-42.5 -33.5t-37.5 -39.5t-26 -45.5q-10 -26 3 -37.5t34.5 -15t46 -1t37.5 5.5q55 11 106.5 33.5t101.5 47.5l96 48q7 3 16 9t17 6q9 -1 10.5 -5t-0.5 -8.5t-6.5 -8.5t-7.5 -6q-17 -7 -34 -15t-34 -17q-61 -31 -123.5 -63.5t-129.5 -50.5 q-29 -9 -62 -11.5t-63 8.5q-29 11 -39.5 34.5t1.5 52.5t34.5 52.5t44.5 44.5l55 47q-16 1 -29.5 6t-24.5 18q-12 15 -12.5 33t5 36.5t15 35.5t18.5 30q42 66 105.5 118.5t136.5 78.5q16 6 35.5 9.5t39 2.5t36 -9t26.5 -26q10 -17 9 -34.5t-8 -35t-18 -33t-23 -27.5 q-26 -29 -57.5 -50t-65.5 -38q-13 -6 -30 -15t-32 -10q-8 -1 -12.5 3.5t-5.5 11t2.5 12.5t11.5 8zM506 600q-8 -11 -18.5 -26t-21.5 -21q-4 -5 -9 -4t-8 4.5t-3.5 8.5t4.5 9q13 10 22.5 24t17.5 29q3 5 6 12t6.5 14t8.5 11.5t12 4.5q11 -2 15.5 -11.5t-2.5 -17.5zM449 624 q-8 -17 -20 -33t-26 -29q-5 -3 -11 -8t-14 -2q-6 3 -7 6.5t1 7t5.5 6.5t6.5 5q8 5 13.5 13.5t9.5 16.5t4.5 18.5t6.5 18.5q5 7 12 8t12.5 -3t8 -11t-1.5 -14z"/>
<glyph glyph-name="Igrave" unicode="Ì" horiz-adv-x="413" d="M184 448q32 -3 64 -1t63 13h1q3 5 5.5 9t6.5 9q7 9 17.5 23.5t23 27t27 20t28.5 2.5q19 -6 18.5 -18t-9.5 -25.5t-22.5 -25t-20.5 -15.5q-11 -8 -23.5 -13t-24.5 -10q-16 -22 -30.5 -44t-30.5 -45l-127 -199q-14 -24 -29 -48t-26 -49l-9 -18t-11.5 -26t-7.5 -26t4 -18 q7 -6 34 -1.5t58 12t58 16t35 10.5q26 9 51 21t49 26l50 28q5 2 10 4.5t10 -1.5q6 -3 5.5 -10t-5.5 -10q-46 -24 -92 -47.5t-95 -40.5q-35 -12 -69 -25.5t-72 -18.5q-19 -2 -37.5 3.5t-24.5 25.5q-4 12 -2.5 24t6 24t10.5 23.5t12 21.5q24 43 51 83.5t53 81.5 q33 51 62.5 103.5t61.5 103.5q-14 -3 -27 -5.5t-27 -4.5q-6 -1 -14.5 -3t-17.5 -3.5t-17.5 -1.5t-13.5 4q-6 4 -7.5 10t0.5 11.5t6.5 9t11.5 3.5zM335 661q3 -5 11.5 -11t19 -11.5t21.5 -10.5t19 -8q14 -5 30 -8t27 -11q8 -2 9.5 -8t-3.5 -11q-5 -7 -13 -4t-14 5 q-31 10 -63.5 20t-59.5 28q-5 4 -10.5 9t-7.5 13q-1 7 3 11.5t10 6t12 -0.5t9 -9zM395 510q-14 -9 -24 -24q7 5 13.5 11.5t10.5 12.5z"/>
<glyph glyph-name="Iacute" unicode="Í" horiz-adv-x="413" d="M184 448q32 -3 64 -1t63 13h1q3 5 5.5 9t6.5 9q7 9 17.5 23.5t23 27t27 20t28.5 2.5q19 -6 18.5 -18t-9.5 -25.5t-22.5 -25t-20.5 -15.5q-11 -8 -23.5 -13t-24.5 -10q-16 -22 -30.5 -44t-30.5 -45l-127 -199q-14 -24 -29 -48t-26 -49l-9 -18t-11.5 -26t-7.5 -26t4 -18 q7 -6 34 -1.5t58 12t58 16t35 10.5q26 9 51 21t49 26l50 28q5 2 10 4.5t10 -1.5q6 -3 5.5 -10t-5.5 -10q-46 -24 -92 -47.5t-95 -40.5q-35 -12 -69 -25.5t-72 -18.5q-19 -2 -37.5 3.5t-24.5 25.5q-4 12 -2.5 24t6 24t10.5 23.5t12 21.5q24 43 51 83.5t53 81.5 q33 51 62.5 103.5t61.5 103.5q-14 -3 -27 -5.5t-27 -4.5q-6 -1 -14.5 -3t-17.5 -3.5t-17.5 -1.5t-13.5 4q-6 4 -7.5 10t0.5 11.5t6.5 9t11.5 3.5zM497 643q-7 -15 -28 -23.5t-37 -13.5q-14 -5 -27 -8.5t-27 -7.5q-4 -1 -10.5 -3.5t-14 -4.5t-14.5 -2.5t-11 2.5q-8 8 1 15 t24 12t30 8t18 5q7 3 17 7t19.5 9t17.5 10t10 10q3 8 10 9.5t13 -1t9.5 -9t-0.5 -14.5zM395 510q-14 -9 -24 -24q7 5 13.5 11.5t10.5 12.5z"/>
<glyph glyph-name="Icircumflex" unicode="Î" horiz-adv-x="413" d="M184 448q32 -3 64 -1t63 13h1q3 5 5.5 9t6.5 9q7 9 17.5 23.5t23 27t27 20t28.5 2.5q19 -6 18.5 -18t-9.5 -25.5t-22.5 -25t-20.5 -15.5q-11 -8 -23.5 -13t-24.5 -10q-16 -22 -30.5 -44t-30.5 -45l-127 -199q-14 -24 -29 -48t-26 -49l-9 -18t-11.5 -26t-7.5 -26t4 -18 q7 -6 34 -1.5t58 12t58 16t35 10.5q26 9 51 21t49 26l50 28q5 2 10 4.5t10 -1.5q6 -3 5.5 -10t-5.5 -10q-46 -24 -92 -47.5t-95 -40.5q-35 -12 -69 -25.5t-72 -18.5q-19 -2 -37.5 3.5t-24.5 25.5q-4 12 -2.5 24t6 24t10.5 23.5t12 21.5q24 43 51 83.5t53 81.5 q33 51 62.5 103.5t61.5 103.5q-14 -3 -27 -5.5t-27 -4.5q-6 -1 -14.5 -3t-17.5 -3.5t-17.5 -1.5t-13.5 4q-6 4 -7.5 10t0.5 11.5t6.5 9t11.5 3.5zM328 612q21 8 40 18t38 22q5 3 13.5 10.5t17.5 14.5t17.5 9.5t14.5 -3.5q11 -11 16 -31t10 -34q2 -5 6 -13.5t3 -15.5 q-2 -14 -12.5 -9t-14.5 13l-29 53q-21 -9 -41.5 -21t-39.5 -26q-4 -3 -8.5 -8t-10 -8.5t-11 -5t-11.5 1.5q-11 5 -10 17t12 16zM395 510q-14 -9 -24 -24q7 5 13.5 11.5t10.5 12.5z"/>
<glyph glyph-name="Idieresis" unicode="Ï" horiz-adv-x="413" d="M184 448q32 -3 64 -1t63 13h1q3 5 5.5 9t6.5 9q7 9 17.5 23.5t23 27t27 20t28.5 2.5q19 -6 18.5 -18t-9.5 -25.5t-22.5 -25t-20.5 -15.5q-11 -8 -23.5 -13t-24.5 -10q-16 -22 -30.5 -44t-30.5 -45l-127 -199q-14 -24 -29 -48t-26 -49l-9 -18t-11.5 -26t-7.5 -26t4 -18 q7 -6 34 -1.5t58 12t58 16t35 10.5q26 9 51 21t49 26l50 28q5 2 10 4.5t10 -1.5q6 -3 5.5 -10t-5.5 -10q-46 -24 -92 -47.5t-95 -40.5q-35 -12 -69 -25.5t-72 -18.5q-19 -2 -37.5 3.5t-24.5 25.5q-4 12 -2.5 24t6 24t10.5 23.5t12 21.5q24 43 51 83.5t53 81.5 q33 51 62.5 103.5t61.5 103.5q-14 -3 -27 -5.5t-27 -4.5q-6 -1 -14.5 -3t-17.5 -3.5t-17.5 -1.5t-13.5 4q-6 4 -7.5 10t0.5 11.5t6.5 9t11.5 3.5zM523 640q-8 -11 -18.5 -26t-21.5 -21q-4 -5 -9 -4t-8 4.5t-3.5 8.5t4.5 9q13 10 22.5 24t17.5 29q3 5 6 12t6.5 14t8.5 11.5 t12 4.5q11 -2 15.5 -11.5t-2.5 -17.5zM466 664q-8 -17 -20 -33t-26 -29q-5 -3 -11 -8t-14 -2q-6 3 -7 6.5t1 7t5.5 6.5t6.5 5q8 5 13.5 13.5t9.5 16.5t4.5 18.5t6.5 18.5q5 7 12 8t12.5 -3t8 -11t-1.5 -14zM395 510q-14 -9 -24 -24q7 5 13.5 11.5t10.5 12.5z"/>
<glyph glyph-name="Eth" unicode="Ð" horiz-adv-x="673" d="M184 179q20 -2 41 -2.5t42 1.5q14 30 30 59t33 58q15 27 32 53t35 52q-52 -20 -96 -44t-83 -54q-9 -7 -17.5 -14.5t-16.5 -15.5q-8 -7 -15.5 -17t-16.5 -15q-7 -4 -13 -2t-10 7.5t-3.5 12t6.5 11.5q42 37 89.5 67t97.5 55q26 13 53 24.5t54 21.5l38 43q18 19 38.5 37 t44.5 27q6 2 17.5 4t22 1t17.5 -6.5t3 -18.5q-2 -7 -9 -10t-15 0q-9 4 -19 2t-20 -7t-19 -12t-15 -12q-11 -8 -20 -17l-18 -18q14 4 29 6.5t31 4.5q25 3 53 2t55 -8.5t49.5 -22.5t35.5 -40q12 -23 11 -48.5t-9.5 -51t-22 -48.5t-27.5 -42q-66 -90 -160.5 -153t-200.5 -92 q-44 -11 -87 -18q2 -12 6 -21.5t13 -17.5q8 -7 7 -14t-7 -11t-14.5 -3.5t-15.5 9.5q-9 12 -13.5 26t-6.5 29q-28 -2 -56.5 -2.5t-57.5 1.5q-7 0 -20.5 0.5t-27 3t-22.5 8.5t-7 17q1 8 7.5 12t14.5 2q16 -5 32 -8t33 -5q25 -4 51 -4.5t52 1.5q2 34 12.5 68t20.5 61 q6 16 12 31.5t14 31.5q-16 0 -32 0.5t-33 0.5q-5 0 -11 1t-8 6q-4 6 0 12t12 5zM439 414q-42 -54 -73.5 -103t-57.5 -99l-15 -32l16 2t16 3q16 2 35 7.5t36 3.5q13 -2 15.5 -15t-9.5 -19q-12 -8 -31.5 -6.5t-33.5 0.5t-28.5 -1.5t-28.5 -0.5q-17 -40 -31 -81.5t-19 -83.5 q-1 -5 -1.5 -11t-0.5 -14q63 8 124 28.5t116 54.5q42 26 80.5 58t70.5 70q14 17 28.5 37t26 41.5t19 44.5t7.5 46q0 22 -11 37.5t-28 26t-37 16t-38 7.5q-38 2 -74.5 -2.5t-72.5 -14.5z"/>
<glyph glyph-name="Ntilde" unicode="Ñ" d="M16 336q60 46 122.5 89t133.5 73q13 6 30 12t34.5 9t34.5 1.5t31 -10.5q15 -11 19 -26t0.5 -31.5t-11 -33t-14.5 -28.5q-18 -29 -40 -56l-44 -54q-23 -31 -46 -62.5t-46 -63.5l-69 -94q35 31 70 60.5t71 58.5q74 60 153 117t166 99q18 9 36.5 16.5t38.5 9.5 q8 1 15.5 -0.5t12.5 -5t5.5 -9.5t-5.5 -15q-10 -14 -25 -26t-28 -26q-46 -52 -88 -106t-71 -114q-6 -13 -14.5 -31t-14.5 -36.5t-7 -34t7 -24.5q9 -9 24.5 -8t32.5 7t34 13.5t28 11.5q38 14 76 31.5t75 36.5q6 4 12 0.5t5 -10.5q0 -8 -9 -12t-14 -6l-84 -40 q-37 -17 -75.5 -36.5t-80.5 -24.5q-28 -3 -41.5 6t-17.5 25t0 37t11.5 42t16.5 39.5t15 29.5q37 64 81 126t94 120q-12 -4 -24.5 -10t-23.5 -11q-28 -13 -55 -27.5t-53 -31.5q-48 -30 -94 -64t-90 -70q-47 -36 -89.5 -74.5t-83.5 -79.5q-21 -20 -40 -41t-38 -44 q-7 -7 -14.5 -19.5t-18.5 -15.5t-18.5 7t-1.5 20q5 10 14.5 20t16.5 19q4 6 9.5 13.5t17 23t31.5 41.5t53 70l67 90q28 39 57 77t56 78q5 7 17 24.5t22.5 37t15 38t-5.5 27.5q-6 5 -15 6.5t-19.5 0.5t-20.5 -3.5t-16 -3.5q-44 -11 -85 -31q-38 -18 -71.5 -42t-65.5 -51 l-32 -28q-6 -6 -13 -14t-15 -10q-14 -2 -19.5 10.5t5.5 21.5zM486 502q18 14 37.5 29.5t42.5 20.5q14 3 21.5 -2t12 -14t6.5 -19.5t5 -19.5t11.5 -7t18 9t18.5 15.5t12 11.5q5 5 11 12t15 6q11 -1 15.5 -11.5t-3.5 -18.5q-7 -7 -16.5 -14.5t-21 -14.5t-23 -12t-21.5 -8 q-14 -3 -22 2t-12.5 14t-6.5 20.5t-5 20.5q-3 8 -12 5t-18.5 -10.5t-18 -16l-11.5 -11.5q-7 -8 -14 -15.5t-18 -2.5q-10 5 -10.5 14.5t7.5 16.5z"/>
<glyph glyph-name="Ograve" unicode="Ò" horiz-adv-x="445" d="M472 484q-21 9 -43.5 7t-44.5 -10q63 3 102 -27.5t34 -93.5q-5 -55 -30.5 -107t-56.5 -98q-26 -39 -59 -79.5t-73 -74t-85.5 -57t-95.5 -27.5q-23 -2 -47.5 2.5t-41.5 22.5q-19 20 -22 47t1 53q9 54 34.5 104.5t55.5 95.5q29 48 64 90.5t75 81.5q37 35 81.5 67t95.5 41 q16 3 38.5 3t35.5 -11q6 -5 6.5 -11.5t-2.5 -11.5t-9 -7.5t-13 0.5zM282 418q-44 -36 -80.5 -78.5t-68.5 -89.5q-31 -45 -55.5 -95.5t-34.5 -104.5q-2 -10 -3 -22.5t0.5 -24.5t6 -22.5t14.5 -17.5q17 -12 38.5 -11.5t39.5 4.5q54 11 100 42t85 67q41 38 74.5 82t57.5 94 q9 18 20 43.5t16.5 52.5t2 52t-22.5 42q-18 17 -45 17.5t-50 -3.5q-9 -2 -16 5t-6 18q-20 -11 -39.5 -25t-33.5 -25zM385 619q3 -5 11.5 -11t19 -11.5t21.5 -10.5t19 -8q14 -5 30 -8t27 -11q8 -2 9.5 -8t-3.5 -11q-5 -7 -13 -4t-14 5q-31 10 -63.5 20t-59.5 28q-5 4 -10.5 9 t-7.5 13q-1 7 3 11.5t10 6t12 -0.5t9 -9z"/>
<glyph glyph-name="Oacute" unicode="Ó" horiz-adv-x="445" d="M472 484q-21 9 -43.5 7t-44.5 -10q63 3 102 -27.5t34 -93.5q-5 -55 -30.5 -107t-56.5 -98q-26 -39 -59 -79.5t-73 -74t-85.5 -57t-95.5 -27.5q-23 -2 -47.5 2.5t-41.5 22.5q-19 20 -22 47t1 53q9 54 34.5 104.5t55.5 95.5q29 48 64 90.5t75 81.5q37 35 81.5 67t95.5 41 q16 3 38.5 3t35.5 -11q6 -5 6.5 -11.5t-2.5 -11.5t-9 -7.5t-13 0.5zM282 418q-44 -36 -80.5 -78.5t-68.5 -89.5q-31 -45 -55.5 -95.5t-34.5 -104.5q-2 -10 -3 -22.5t0.5 -24.5t6 -22.5t14.5 -17.5q17 -12 38.5 -11.5t39.5 4.5q54 11 100 42t85 67q41 38 74.5 82t57.5 94 q9 18 20 43.5t16.5 52.5t2 52t-22.5 42q-18 17 -45 17.5t-50 -3.5q-9 -2 -16 5t-6 18q-20 -11 -39.5 -25t-33.5 -25zM573 615q-7 -15 -28 -23.5t-37 -13.5q-14 -5 -27 -8.5t-27 -7.5q-4 -1 -10.5 -3.5t-14 -4.5t-14.5 -2.5t-11 2.5q-8 8 1 15t24 12t30 8t18 5q7 3 17 7 t19.5 9t17.5 10t10 10q3 8 10 9.5t13 -1t9.5 -9t-0.5 -14.5z"/>
<glyph glyph-name="Ocircumflex" unicode="Ô" horiz-adv-x="445" d="M472 484q-21 9 -43.5 7t-44.5 -10q63 3 102 -27.5t34 -93.5q-5 -55 -30.5 -107t-56.5 -98q-26 -39 -59 -79.5t-73 -74t-85.5 -57t-95.5 -27.5q-23 -2 -47.5 2.5t-41.5 22.5q-19 20 -22 47t1 53q9 54 34.5 104.5t55.5 95.5q29 48 64 90.5t75 81.5q37 35 81.5 67t95.5 41 q16 3 38.5 3t35.5 -11q6 -5 6.5 -11.5t-2.5 -11.5t-9 -7.5t-13 0.5zM282 418q-44 -36 -80.5 -78.5t-68.5 -89.5q-31 -45 -55.5 -95.5t-34.5 -104.5q-2 -10 -3 -22.5t0.5 -24.5t6 -22.5t14.5 -17.5q17 -12 38.5 -11.5t39.5 4.5q54 11 100 42t85 67q41 38 74.5 82t57.5 94 q9 18 20 43.5t16.5 52.5t2 52t-22.5 42q-18 17 -45 17.5t-50 -3.5q-9 -2 -16 5t-6 18q-20 -11 -39.5 -25t-33.5 -25zM372 578q21 8 40 18t38 22q5 3 13.5 10.5t17.5 14.5t17.5 9.5t14.5 -3.5q11 -11 16 -31t10 -34q2 -5 6 -13.5t3 -15.5q-2 -14 -12.5 -9t-14.5 13l-29 53 q-21 -9 -41.5 -21t-39.5 -26q-4 -3 -8.5 -8t-10 -8.5t-11 -5t-11.5 1.5q-11 5 -10 17t12 16z"/>
<glyph glyph-name="Otilde" unicode="Õ" horiz-adv-x="445" d="M472 484q-21 9 -43.5 7t-44.5 -10q63 3 102 -27.5t34 -93.5q-5 -55 -30.5 -107t-56.5 -98q-26 -39 -59 -79.5t-73 -74t-85.5 -57t-95.5 -27.5q-23 -2 -47.5 2.5t-41.5 22.5q-19 20 -22 47t1 53q9 54 34.5 104.5t55.5 95.5q29 48 64 90.5t75 81.5q37 35 81.5 67t95.5 41 q16 3 38.5 3t35.5 -11q6 -5 6.5 -11.5t-2.5 -11.5t-9 -7.5t-13 0.5zM282 418q-44 -36 -80.5 -78.5t-68.5 -89.5q-31 -45 -55.5 -95.5t-34.5 -104.5q-2 -10 -3 -22.5t0.5 -24.5t6 -22.5t14.5 -17.5q17 -12 38.5 -11.5t39.5 4.5q54 11 100 42t85 67q41 38 74.5 82t57.5 94 q9 18 20 43.5t16.5 52.5t2 52t-22.5 42q-18 17 -45 17.5t-50 -3.5q-9 -2 -16 5t-6 18q-20 -11 -39.5 -25t-33.5 -25zM387 585q18 14 37.5 29.5t42.5 20.5q14 3 21.5 -2t12 -14t6.5 -19.5t5 -19.5t11.5 -7t18 9t18.5 15.5t12 11.5q5 5 11 12t15 6q11 -1 15.5 -11.5 t-3.5 -18.5q-7 -7 -16.5 -14.5t-21 -14.5t-23 -12t-21.5 -8q-14 -3 -22 2t-12.5 14t-6.5 20.5t-5 20.5q-3 8 -12 5t-18.5 -10.5t-18 -16l-11.5 -11.5q-7 -8 -14 -15.5t-18 -2.5q-10 5 -10.5 14.5t7.5 16.5z"/>
<glyph glyph-name="Odieresis" unicode="Ö" horiz-adv-x="445" d="M472 484q-21 9 -43.5 7t-44.5 -10q63 3 102 -27.5t34 -93.5q-5 -55 -30.5 -107t-56.5 -98q-26 -39 -59 -79.5t-73 -74t-85.5 -57t-95.5 -27.5q-23 -2 -47.5 2.5t-41.5 22.5q-19 20 -22 47t1 53q9 54 34.5 104.5t55.5 95.5q29 48 64 90.5t75 81.5q37 35 81.5 67t95.5 41 q16 3 38.5 3t35.5 -11q6 -5 6.5 -11.5t-2.5 -11.5t-9 -7.5t-13 0.5zM282 418q-44 -36 -80.5 -78.5t-68.5 -89.5q-31 -45 -55.5 -95.5t-34.5 -104.5q-2 -10 -3 -22.5t0.5 -24.5t6 -22.5t14.5 -17.5q17 -12 38.5 -11.5t39.5 4.5q54 11 100 42t85 67q41 38 74.5 82t57.5 94 q9 18 20 43.5t16.5 52.5t2 52t-22.5 42q-18 17 -45 17.5t-50 -3.5q-9 -2 -16 5t-6 18q-20 -11 -39.5 -25t-33.5 -25zM559 608q-8 -11 -18.5 -26t-21.5 -21q-4 -5 -9 -4t-8 4.5t-3.5 8.5t4.5 9q13 10 22.5 24t17.5 29q3 5 6 12t6.5 14t8.5 11.5t12 4.5q11 -2 15.5 -11.5 t-2.5 -17.5zM502 632q-8 -17 -20 -33t-26 -29q-5 -3 -11 -8t-14 -2q-6 3 -7 6.5t1 7t5.5 6.5t6.5 5q8 5 13.5 13.5t9.5 16.5t4.5 18.5t6.5 18.5q5 7 12 8t12.5 -3t8 -11t-1.5 -14z"/>
<glyph glyph-name="Oslash" unicode="Ø" horiz-adv-x="445" d="M472 484q-21 9 -43.5 7t-44.5 -10q39 2 69.5 -9.5t47.5 -34.5l28 25q5 5 12 13.5t15 17t16.5 15t15.5 7.5q14 2 19.5 -10t-5.5 -21l-67 -58q-8 -8 -20 -17q7 -20 5 -49q-5 -55 -30.5 -107t-56.5 -98q-26 -39 -59 -79.5t-73 -74t-85.5 -57t-95.5 -27.5q-23 -2 -47.5 2.5 t-41.5 22.5q-12 13 -18 30l-18 -16l-20 -16q-5 -4 -9.5 -3t-7.5 4.5t-3.5 8t4.5 8.5l49 38q-1 21 2 46q9 54 34.5 104.5t55.5 95.5q29 48 64 90.5t75 81.5q37 35 81.5 67t95.5 41q16 3 38.5 3t35.5 -11q6 -5 6.5 -11.5t-2.5 -11.5t-9 -7.5t-13 0.5zM42 -5q2 -9 6.5 -17.5 t12.5 -14.5q17 -12 38.5 -11.5t39.5 4.5q54 11 100 42t85 67q41 38 74.5 82t57.5 94q7 13 15 31.5t14 38.5t9 40.5t0 38.5q-29 -25 -68.5 -59.5t-83 -73t-88.5 -78t-84 -74t-70 -61t-46 -39.5zM282 418q-44 -36 -80.5 -78.5t-68.5 -89.5q-31 -45 -55.5 -95.5t-34.5 -104.5 q-2 -7 -2.5 -14t-1.5 -15q43 35 83.5 72t81.5 75l278 251q-2 3 -4.5 6t-5.5 6q-18 17 -45 17.5t-50 -3.5q-9 -2 -16 5t-6 18q-20 -11 -39.5 -25t-33.5 -25z"/>
<glyph glyph-name="Ugrave" unicode="Ù" d="M16 336q62 49 128.5 94t141.5 74q14 5 33.5 10.5t38.5 6.5t35.5 -5.5t24.5 -24.5q7 -18 4 -37t-11.5 -37.5t-20.5 -35t-22 -29.5q-32 -43 -68 -83t-71 -81q-28 -32 -54.5 -64.5t-52.5 -67.5q-11 -15 -22.5 -31t-22.5 -33q-8 -11 -20 -29.5t-10 -32.5q7 1 17 5.5t20 10.5 t18.5 11.5t12.5 7.5q22 14 43.5 27.5t43.5 27.5q44 30 86 61t84 63t83.5 66t82.5 68q35 31 71 61.5t68 64.5q5 7 10 12.5t13 7.5q11 1 17 -7t2 -19q-4 -8 -12.5 -15t-17.5 -13q-42 -40 -78 -86t-69 -93q-19 -29 -35 -59t-27 -62q-6 -17 -10 -38t2 -37l1 -1q13 -5 29.5 -1.5 t30.5 7.5q55 15 109 38l97 47q4 2 9 2.5t8.5 -1t4 -5.5t-3.5 -11q-5 -9 -21.5 -14t-25.5 -10q-24 -12 -49 -25.5t-51.5 -26t-53 -22.5t-53.5 -14q-39 -8 -56 13.5t-10 57.5q4 25 14 50.5t23.5 49.5t28.5 47t30 44l35 49l-120 -96q-48 -38 -95 -75t-96 -74 q-22 -17 -45.5 -35.5t-48 -35.5t-50.5 -31.5t-53 -22.5q-20 -5 -30.5 0t-14 16.5t-1 26t9.5 28.5q24 50 62 93t74 85q39 44 78.5 87.5t75.5 90.5q4 6 14 19.5t21 31t21 36.5t14 34.5t-0.5 26.5t-21.5 12q-25 1 -51.5 -5t-52 -16.5t-49.5 -24t-45 -26.5q-21 -14 -41 -30.5 t-40 -33.5q-5 -4 -14.5 -14.5t-20.5 -19.5t-21.5 -12t-16.5 9q-7 13 6 23zM506 553q3 -5 11.5 -11t19 -11.5t21.5 -10.5t19 -8q14 -5 30 -8t27 -11q8 -2 9.5 -8t-3.5 -11q-5 -7 -13 -4t-14 5q-31 10 -63.5 20t-59.5 28q-5 4 -10.5 9t-7.5 13q-1 7 3 11.5t10 6t12 -0.5t9 -9z "/>
<glyph glyph-name="Uacute" unicode="Ú" d="M16 336q62 49 128.5 94t141.5 74q14 5 33.5 10.5t38.5 6.5t35.5 -5.5t24.5 -24.5q7 -18 4 -37t-11.5 -37.5t-20.5 -35t-22 -29.5q-32 -43 -68 -83t-71 -81q-28 -32 -54.5 -64.5t-52.5 -67.5q-11 -15 -22.5 -31t-22.5 -33q-8 -11 -20 -29.5t-10 -32.5q7 1 17 5.5t20 10.5 t18.5 11.5t12.5 7.5q22 14 43.5 27.5t43.5 27.5q44 30 86 61t84 63t83.5 66t82.5 68q35 31 71 61.5t68 64.5q5 7 10 12.5t13 7.5q11 1 17 -7t2 -19q-4 -8 -12.5 -15t-17.5 -13q-42 -40 -78 -86t-69 -93q-19 -29 -35 -59t-27 -62q-6 -17 -10 -38t2 -37l1 -1q13 -5 29.5 -1.5 t30.5 7.5q55 15 109 38l97 47q4 2 9 2.5t8.5 -1t4 -5.5t-3.5 -11q-5 -9 -21.5 -14t-25.5 -10q-24 -12 -49 -25.5t-51.5 -26t-53 -22.5t-53.5 -14q-39 -8 -56 13.5t-10 57.5q4 25 14 50.5t23.5 49.5t28.5 47t30 44l35 49l-120 -96q-48 -38 -95 -75t-96 -74 q-22 -17 -45.5 -35.5t-48 -35.5t-50.5 -31.5t-53 -22.5q-20 -5 -30.5 0t-14 16.5t-1 26t9.5 28.5q24 50 62 93t74 85q39 44 78.5 87.5t75.5 90.5q4 6 14 19.5t21 31t21 36.5t14 34.5t-0.5 26.5t-21.5 12q-25 1 -51.5 -5t-52 -16.5t-49.5 -24t-45 -26.5q-21 -14 -41 -30.5 t-40 -33.5q-5 -4 -14.5 -14.5t-20.5 -19.5t-21.5 -12t-16.5 9q-7 13 6 23zM685 522q-7 -15 -28 -23.5t-37 -13.5q-14 -5 -27 -8.5t-27 -7.5q-4 -1 -10.5 -3.5t-14 -4.5t-14.5 -2.5t-11 2.5q-8 8 1 15t24 12t30 8t18 5q7 3 17 7t19.5 9t17.5 10t10 10q3 8 10 9.5t13 -1 t9.5 -9t-0.5 -14.5z"/>
<glyph glyph-name="Ucircumflex" unicode="Û" d="M16 336q62 49 128.5 94t141.5 74q14 5 33.5 10.5t38.5 6.5t35.5 -5.5t24.5 -24.5q7 -18 4 -37t-11.5 -37.5t-20.5 -35t-22 -29.5q-32 -43 -68 -83t-71 -81q-28 -32 -54.5 -64.5t-52.5 -67.5q-11 -15 -22.5 -31t-22.5 -33q-8 -11 -20 -29.5t-10 -32.5q7 1 17 5.5t20 10.5 t18.5 11.5t12.5 7.5q22 14 43.5 27.5t43.5 27.5q44 30 86 61t84 63t83.5 66t82.5 68q35 31 71 61.5t68 64.5q5 7 10 12.5t13 7.5q11 1 17 -7t2 -19q-4 -8 -12.5 -15t-17.5 -13q-42 -40 -78 -86t-69 -93q-19 -29 -35 -59t-27 -62q-6 -17 -10 -38t2 -37l1 -1q13 -5 29.5 -1.5 t30.5 7.5q55 15 109 38l97 47q4 2 9 2.5t8.5 -1t4 -5.5t-3.5 -11q-5 -9 -21.5 -14t-25.5 -10q-24 -12 -49 -25.5t-51.5 -26t-53 -22.5t-53.5 -14q-39 -8 -56 13.5t-10 57.5q4 25 14 50.5t23.5 49.5t28.5 47t30 44l35 49l-120 -96q-48 -38 -95 -75t-96 -74 q-22 -17 -45.5 -35.5t-48 -35.5t-50.5 -31.5t-53 -22.5q-20 -5 -30.5 0t-14 16.5t-1 26t9.5 28.5q24 50 62 93t74 85q39 44 78.5 87.5t75.5 90.5q4 6 14 19.5t21 31t21 36.5t14 34.5t-0.5 26.5t-21.5 12q-25 1 -51.5 -5t-52 -16.5t-49.5 -24t-45 -26.5q-21 -14 -41 -30.5 t-40 -33.5q-5 -4 -14.5 -14.5t-20.5 -19.5t-21.5 -12t-16.5 9q-7 13 6 23zM487 491q21 8 40 18t38 22q5 3 13.5 10.5t17.5 14.5t17.5 9.5t14.5 -3.5q11 -11 16 -31t10 -34q2 -5 6 -13.5t3 -15.5q-2 -14 -12.5 -9t-14.5 13l-29 53q-21 -9 -41.5 -21t-39.5 -26q-4 -3 -8.5 -8 t-10 -8.5t-11 -5t-11.5 1.5q-11 5 -10 17t12 16z"/>
<glyph glyph-name="Udieresis" unicode="Ü" d="M16 336q62 49 128.5 94t141.5 74q14 5 33.5 10.5t38.5 6.5t35.5 -5.5t24.5 -24.5q7 -18 4 -37t-11.5 -37.5t-20.5 -35t-22 -29.5q-32 -43 -68 -83t-71 -81q-28 -32 -54.5 -64.5t-52.5 -67.5q-11 -15 -22.5 -31t-22.5 -33q-8 -11 -20 -29.5t-10 -32.5q7 1 17 5.5t20 10.5 t18.5 11.5t12.5 7.5q22 14 43.5 27.5t43.5 27.5q44 30 86 61t84 63t83.5 66t82.5 68q35 31 71 61.5t68 64.5q5 7 10 12.5t13 7.5q11 1 17 -7t2 -19q-4 -8 -12.5 -15t-17.5 -13q-42 -40 -78 -86t-69 -93q-19 -29 -35 -59t-27 -62q-6 -17 -10 -38t2 -37l1 -1q13 -5 29.5 -1.5 t30.5 7.5q55 15 109 38l97 47q4 2 9 2.5t8.5 -1t4 -5.5t-3.5 -11q-5 -9 -21.5 -14t-25.5 -10q-24 -12 -49 -25.5t-51.5 -26t-53 -22.5t-53.5 -14q-39 -8 -56 13.5t-10 57.5q4 25 14 50.5t23.5 49.5t28.5 47t30 44l35 49l-120 -96q-48 -38 -95 -75t-96 -74 q-22 -17 -45.5 -35.5t-48 -35.5t-50.5 -31.5t-53 -22.5q-20 -5 -30.5 0t-14 16.5t-1 26t9.5 28.5q24 50 62 93t74 85q39 44 78.5 87.5t75.5 90.5q4 6 14 19.5t21 31t21 36.5t14 34.5t-0.5 26.5t-21.5 12q-25 1 -51.5 -5t-52 -16.5t-49.5 -24t-45 -26.5q-21 -14 -41 -30.5 t-40 -33.5q-5 -4 -14.5 -14.5t-20.5 -19.5t-21.5 -12t-16.5 9q-7 13 6 23zM648 513q-8 -11 -18.5 -26t-21.5 -21q-4 -5 -9 -4t-8 4.5t-3.5 8.5t4.5 9q13 10 22.5 24t17.5 29q3 5 6 12t6.5 14t8.5 11.5t12 4.5q11 -2 15.5 -11.5t-2.5 -17.5zM591 537q-8 -17 -20 -33t-26 -29 q-5 -3 -11 -8t-14 -2q-6 3 -7 6.5t1 7t5.5 6.5t6.5 5q8 5 13.5 13.5t9.5 16.5t4.5 18.5t6.5 18.5q5 7 12 8t12.5 -3t8 -11t-1.5 -14z"/>
<glyph glyph-name="Yacute" unicode="Ý" horiz-adv-x="641" d="M68 293q38 34 76.5 67t77.5 65q14 12 30 26.5t33 26.5t35.5 21t38.5 11q28 3 39 -16.5t6 -43.5q-6 -26 -21 -50t-31 -46q-2 -3 -14.5 -20t-28.5 -40.5t-32.5 -50.5t-28 -50t-15 -39t7.5 -17q15 -2 35 4.5t40.5 17t37.5 22t26 18.5q48 32 89.5 69.5t80.5 79.5l26 28 q14 24 29.5 48t30.5 49q8 11 17 24.5t19 26t21.5 21.5t24.5 12q12 3 17.5 -1.5t5 -12t-5 -16.5t-11.5 -16l-42 -48l-76 -87q-10 -16 -19.5 -30.5t-18.5 -29.5l-78 -123q-20 -30 -39 -64t-40 -67t-45 -63t-54 -52q32 7 62 17.5t59 23.5q54 23 105 47t103 51q5 3 9 1t6 -5.5 t1.5 -8t-5.5 -7.5l-44 -20l-110 -56q-53 -23 -104 -45t-107 -33q-57 -9 -112 1.5t-103 42.5q-6 4 -17.5 11t-22.5 15.5t-19 18t-8 18.5q0 16 8 16t21 -5q1 0 8.5 -5t15.5 -11t15.5 -11.5t10.5 -7.5q22 -15 46.5 -27.5t50.5 -19t52 -4.5t51 16q30 18 54 44.5t44.5 56.5 t38 61.5t35.5 59.5q17 27 34.5 53.5t33.5 52.5q-27 -28 -55.5 -54t-58.5 -50q-16 -13 -34 -26.5t-37.5 -25t-40 -20t-41.5 -10.5q-32 -3 -41.5 11.5t-7 35.5t12.5 43.5t18 36.5q23 42 50.5 80t50.5 79q4 7 10 18t11.5 23t8.5 23.5t0 20.5q-2 5 -11.5 3t-21 -7t-21.5 -10.5 t-12 -6.5q-41 -23 -78 -54t-70 -63l-32 -33q-8 -8 -16 -20t-17 -18q-7 -5 -13.5 -3t-10.5 7.5t-4.5 12t5.5 12.5zM657 596q-7 -15 -28 -23.5t-37 -13.5q-14 -5 -27 -8.5t-27 -7.5q-4 -1 -10.5 -3.5t-14 -4.5t-14.5 -2.5t-11 2.5q-8 8 1 15t24 12t30 8t18 5q7 3 17 7t19.5 9 t17.5 10t10 10q3 8 10 9.5t13 -1t9.5 -9t-0.5 -14.5z"/>
<glyph glyph-name="agrave" unicode="à" horiz-adv-x="440" d="M-1 85q12 6 30.5 15.5t39.5 18.5t40.5 17t32.5 13q7 3 25 9t38 11t37.5 7t25.5 -3q12 -11 4.5 -20t-18.5 -11l-45 -5q-14 -4 -23.5 -9.5t-21.5 -13.5q-5 -4 -17.5 -16.5t-24.5 -27t-19 -28t0 -19.5q6 -5 19.5 -2t27.5 9t26 12.5t16 9.5q29 18 47 38q9 10 19.5 2.5 t6.5 -20.5q-2 -7 -7 -12l-9.5 -9.5t-7.5 -12.5q-4 -7 -2 -10.5t7 -4.5q14 -2 35 2t43.5 11t44.5 16.5t38 17.5q4 1 11 5.5t14.5 7.5t14.5 3t10 -6q4 -6 -0.5 -11t-12.5 -8.5t-16 -6.5t-12 -5q-17 -8 -34 -15.5t-35 -15.5q-12 -5 -26 -12t-29 -12t-30.5 -7t-28.5 3 q-17 7 -20 19.5t1 26.5l-27 -16q-17 -10 -35.5 -20.5t-38.5 -12.5q-18 -1 -32 8t-15 28q0 10 8 25.5t20.5 32t27.5 30.5t28 21q-7 -2 -22.5 -9t-35 -17t-41 -20.5t-39.5 -19.5q-5 -3 -10 -1.5t-7.5 5t-2 8t6.5 7.5zM223 390q3 -5 11.5 -11t19 -11.5t21.5 -10.5t19 -8 q14 -5 30 -8t27 -11q8 -2 9.5 -8t-3.5 -11q-5 -7 -13 -4t-14 5q-31 10 -63.5 20t-59.5 28q-5 4 -10.5 9t-7.5 13q-1 7 3 11.5t10 6t12 -0.5t9 -9z"/>
<glyph glyph-name="aacute" unicode="á" horiz-adv-x="440" d="M-1 85q12 6 30.5 15.5t39.5 18.5t40.5 17t32.5 13q7 3 25 9t38 11t37.5 7t25.5 -3q12 -11 4.5 -20t-18.5 -11l-45 -5q-14 -4 -23.5 -9.5t-21.5 -13.5q-5 -4 -17.5 -16.5t-24.5 -27t-19 -28t0 -19.5q6 -5 19.5 -2t27.5 9t26 12.5t16 9.5q29 18 47 38q9 10 19.5 2.5 t6.5 -20.5q-2 -7 -7 -12l-9.5 -9.5t-7.5 -12.5q-4 -7 -2 -10.5t7 -4.5q14 -2 35 2t43.5 11t44.5 16.5t38 17.5q4 1 11 5.5t14.5 7.5t14.5 3t10 -6q4 -6 -0.5 -11t-12.5 -8.5t-16 -6.5t-12 -5q-17 -8 -34 -15.5t-35 -15.5q-12 -5 -26 -12t-29 -12t-30.5 -7t-28.5 3 q-17 7 -20 19.5t1 26.5l-27 -16q-17 -10 -35.5 -20.5t-38.5 -12.5q-18 -1 -32 8t-15 28q0 10 8 25.5t20.5 32t27.5 30.5t28 21q-7 -2 -22.5 -9t-35 -17t-41 -20.5t-39.5 -19.5q-5 -3 -10 -1.5t-7.5 5t-2 8t6.5 7.5zM393 373q-7 -15 -28 -23.5t-37 -13.5q-14 -5 -27 -8.5 t-27 -7.5q-4 -1 -10.5 -3.5t-14 -4.5t-14.5 -2.5t-11 2.5q-8 8 1 15t24 12t30 8t18 5q7 3 17 7t19.5 9t17.5 10t10 10q3 8 10 9.5t13 -1t9.5 -9t-0.5 -14.5z"/>
<glyph glyph-name="acircumflex" unicode="â" horiz-adv-x="440" d="M-1 85q12 6 30.5 15.5t39.5 18.5t40.5 17t32.5 13q7 3 25 9t38 11t37.5 7t25.5 -3q12 -11 4.5 -20t-18.5 -11l-45 -5q-14 -4 -23.5 -9.5t-21.5 -13.5q-5 -4 -17.5 -16.5t-24.5 -27t-19 -28t0 -19.5q6 -5 19.5 -2t27.5 9t26 12.5t16 9.5q29 18 47 38q9 10 19.5 2.5 t6.5 -20.5q-2 -7 -7 -12l-9.5 -9.5t-7.5 -12.5q-4 -7 -2 -10.5t7 -4.5q14 -2 35 2t43.5 11t44.5 16.5t38 17.5q4 1 11 5.5t14.5 7.5t14.5 3t10 -6q4 -6 -0.5 -11t-12.5 -8.5t-16 -6.5t-12 -5q-17 -8 -34 -15.5t-35 -15.5q-12 -5 -26 -12t-29 -12t-30.5 -7t-28.5 3 q-17 7 -20 19.5t1 26.5l-27 -16q-17 -10 -35.5 -20.5t-38.5 -12.5q-18 -1 -32 8t-15 28q0 10 8 25.5t20.5 32t27.5 30.5t28 21q-7 -2 -22.5 -9t-35 -17t-41 -20.5t-39.5 -19.5q-5 -3 -10 -1.5t-7.5 5t-2 8t6.5 7.5zM214 355q21 8 40 18t38 22q5 3 13.5 10.5t17.5 14.5 t17.5 9.5t14.5 -3.5q11 -11 16 -31t10 -34q2 -5 6 -13.5t3 -15.5q-2 -14 -12.5 -9t-14.5 13l-29 53q-21 -9 -41.5 -21t-39.5 -26q-4 -3 -8.5 -8t-10 -8.5t-11 -5t-11.5 1.5q-11 5 -10 17t12 16z"/>
<glyph glyph-name="atilde" unicode="ã" horiz-adv-x="440" d="M-1 85q12 6 30.5 15.5t39.5 18.5t40.5 17t32.5 13q7 3 25 9t38 11t37.5 7t25.5 -3q12 -11 4.5 -20t-18.5 -11l-45 -5q-14 -4 -23.5 -9.5t-21.5 -13.5q-5 -4 -17.5 -16.5t-24.5 -27t-19 -28t0 -19.5q6 -5 19.5 -2t27.5 9t26 12.5t16 9.5q29 18 47 38q9 10 19.5 2.5 t6.5 -20.5q-2 -7 -7 -12l-9.5 -9.5t-7.5 -12.5q-4 -7 -2 -10.5t7 -4.5q14 -2 35 2t43.5 11t44.5 16.5t38 17.5q4 1 11 5.5t14.5 7.5t14.5 3t10 -6q4 -6 -0.5 -11t-12.5 -8.5t-16 -6.5t-12 -5q-17 -8 -34 -15.5t-35 -15.5q-12 -5 -26 -12t-29 -12t-30.5 -7t-28.5 3 q-17 7 -20 19.5t1 26.5l-27 -16q-17 -10 -35.5 -20.5t-38.5 -12.5q-18 -1 -32 8t-15 28q0 10 8 25.5t20.5 32t27.5 30.5t28 21q-7 -2 -22.5 -9t-35 -17t-41 -20.5t-39.5 -19.5q-5 -3 -10 -1.5t-7.5 5t-2 8t6.5 7.5zM211 347q18 14 37.5 29.5t42.5 20.5q14 3 21.5 -2t12 -14 t6.5 -19.5t5 -19.5t11.5 -7t18 9t18.5 15.5t12 11.5q5 5 11 12t15 6q11 -1 15.5 -11.5t-3.5 -18.5q-7 -7 -16.5 -14.5t-21 -14.5t-23 -12t-21.5 -8q-14 -3 -22 2t-12.5 14t-6.5 20.5t-5 20.5q-3 8 -12 5t-18.5 -10.5t-18 -16l-11.5 -11.5q-7 -8 -14 -15.5t-18 -2.5 q-10 5 -10.5 14.5t7.5 16.5z"/>
<glyph glyph-name="adieresis" unicode="ä" horiz-adv-x="440" d="M-1 85q12 6 30.5 15.5t39.5 18.5t40.5 17t32.5 13q7 3 25 9t38 11t37.5 7t25.5 -3q12 -11 4.5 -20t-18.5 -11l-45 -5q-14 -4 -23.5 -9.5t-21.5 -13.5q-5 -4 -17.5 -16.5t-24.5 -27t-19 -28t0 -19.5q6 -5 19.5 -2t27.5 9t26 12.5t16 9.5q29 18 47 38q9 10 19.5 2.5 t6.5 -20.5q-2 -7 -7 -12l-9.5 -9.5t-7.5 -12.5q-4 -7 -2 -10.5t7 -4.5q14 -2 35 2t43.5 11t44.5 16.5t38 17.5q4 1 11 5.5t14.5 7.5t14.5 3t10 -6q4 -6 -0.5 -11t-12.5 -8.5t-16 -6.5t-12 -5q-17 -8 -34 -15.5t-35 -15.5q-12 -5 -26 -12t-29 -12t-30.5 -7t-28.5 3 q-17 7 -20 19.5t1 26.5l-27 -16q-17 -10 -35.5 -20.5t-38.5 -12.5q-18 -1 -32 8t-15 28q0 10 8 25.5t20.5 32t27.5 30.5t28 21q-7 -2 -22.5 -9t-35 -17t-41 -20.5t-39.5 -19.5q-5 -3 -10 -1.5t-7.5 5t-2 8t6.5 7.5zM373 340q-8 -11 -18.5 -26t-21.5 -21q-4 -5 -9 -4t-8 4.5 t-3.5 8.5t4.5 9q13 10 22.5 24t17.5 29q3 5 6 12t6.5 14t8.5 11.5t12 4.5q11 -2 15.5 -11.5t-2.5 -17.5zM316 364q-8 -17 -20 -33t-26 -29q-5 -3 -11 -8t-14 -2q-6 3 -7 6.5t1 7t5.5 6.5t6.5 5q8 5 13.5 13.5t9.5 16.5t4.5 18.5t6.5 18.5q5 7 12 8t12.5 -3t8 -11t-1.5 -14z "/>
<glyph glyph-name="aring" unicode="å" horiz-adv-x="440" d="M-1 85q12 6 30.5 15.5t39.5 18.5t40.5 17t32.5 13q7 3 25 9t38 11t37.5 7t25.5 -3q12 -11 4.5 -20t-18.5 -11l-45 -5q-14 -4 -23.5 -9.5t-21.5 -13.5q-5 -4 -17.5 -16.5t-24.5 -27t-19 -28t0 -19.5q6 -5 19.5 -2t27.5 9t26 12.5t16 9.5q29 18 47 38q9 10 19.5 2.5 t6.5 -20.5q-2 -7 -7 -12l-9.5 -9.5t-7.5 -12.5q-4 -7 -2 -10.5t7 -4.5q14 -2 35 2t43.5 11t44.5 16.5t38 17.5q4 1 11 5.5t14.5 7.5t14.5 3t10 -6q4 -6 -0.5 -11t-12.5 -8.5t-16 -6.5t-12 -5q-17 -8 -34 -15.5t-35 -15.5q-12 -5 -26 -12t-29 -12t-30.5 -7t-28.5 3 q-17 7 -20 19.5t1 26.5l-27 -16q-17 -10 -35.5 -20.5t-38.5 -12.5q-18 -1 -32 8t-15 28q0 10 8 25.5t20.5 32t27.5 30.5t28 21q-7 -2 -22.5 -9t-35 -17t-41 -20.5t-39.5 -19.5q-5 -3 -10 -1.5t-7.5 5t-2 8t6.5 7.5zM288 298q-17 5 -22.5 19.5t-3 31.5t12.5 34t24.5 28 t32 12.5t35.5 -11.5q21 -17 19.5 -40t-16.5 -42t-38 -29.5t-44 -2.5zM295 319q10 -3 22.5 4t22 18t12 22.5t-6.5 18.5q-12 10 -25 3t-22 -20.5t-11.5 -27.5t8.5 -18z"/>
<glyph glyph-name="ae" unicode="æ" horiz-adv-x="542" d="M-1 85q12 6 30.5 15.5t39.5 18.5t40.5 17t32.5 13q7 3 25 9t38 11t37.5 7t25.5 -3q12 -11 4.5 -20t-18.5 -11l-45 -5q-14 -4 -23.5 -9.5t-21.5 -13.5q-5 -4 -17.5 -16.5t-24.5 -27t-19 -28t0 -19.5q6 -5 19.5 -2t27.5 9t26 12.5t16 9.5q14 8 34 25t36 42l2 6 q13 23 37 37.5t51 19.5q14 2 32.5 0t28.5 -15q7 -8 3.5 -17t-12 -17t-19 -14.5t-15.5 -9.5q-18 -11 -39.5 -16.5t-43.5 -3.5h-4q4 -22 18 -34t33 -17.5t39 -4.5t37 4q25 5 48 12.5t45 17.5q10 5 20 9.5t19 9.5q8 2 15 -2t2 -13q-5 -8 -14 -11t-16 -6l-50 -22 q-46 -18 -91 -30q-36 -7 -71.5 3.5t-52.5 43.5q-3 -13 -5.5 -24t-5.5 -20q-3 -12 -10 -15.5t-14 -2t-11 6.5t-2 11l19 48q-40 -38 -72.5 -51t-49.5 -15q-18 -1 -32 8t-15 28q0 10 8 25.5t20.5 32t27.5 30.5t28 21q-7 -2 -22.5 -9t-35 -17t-41 -20.5t-39.5 -19.5 q-5 -3 -10 -1.5t-7.5 5t-2 8t6.5 7.5zM289 114q23 1 45.5 12t39.5 28q-14 5 -27 3t-24.5 -8t-20.5 -15.5t-13 -19.5z"/>
<glyph glyph-name="ccedilla" unicode="ç" horiz-adv-x="356" d="M2 86q26 11 49.5 25t48.5 26q9 4 17 8t17 6q17 7 40 12t41 3q7 -2 11.5 -7.5t5 -11.5t-3 -11t-12.5 -6q-6 -2 -13.5 -0.5t-15.5 2.5q-14 1 -27.5 -1t-26.5 -9q-20 -9 -29 -27.5t6 -38.5q15 -18 37 -23.5t46.5 -3t48.5 9.5t42 13q23 7 42 17t33 17q7 5 13.5 -1.5 t1.5 -14.5q-3 -8 -13.5 -12t-18.5 -6q-35 -17 -74 -32.5t-80 -19.5l-23 -29q21 -5 41.5 -15t22.5 -28q1 -9 -3 -16.5t-11 -13t-14.5 -9.5t-14.5 -7q-35 -13 -72 -18.5t-73 -10.5q-13 -2 -19 10t3 20q8 8 23.5 6.5t25.5 -0.5q13 0 31.5 1t37 4t34.5 9t26 17q5 6 -5 10t-25 7 t-28.5 4.5t-15.5 1.5q-12 5 -12.5 12t4 14.5t12 14t12.5 10.5l5 5q-19 1 -35.5 10t-27 23t-13.5 32t6 38v1q-11 -6 -21.5 -13t-21.5 -12q-6 -4 -14.5 -10t-16.5 -4q-9 0 -10.5 9.5t6.5 12.5z"/>
<glyph glyph-name="egrave" unicode="è" horiz-adv-x="355" d="M2 86q18 9 37.5 20t39.5 19q13 23 37 37.5t51 19.5q14 2 32.5 0t28.5 -15q7 -8 3.5 -17t-12 -17t-19 -14.5t-15.5 -9.5q-18 -11 -39.5 -16.5t-43.5 -3.5h-4q4 -22 18 -34t33 -17.5t39.5 -4.5t37.5 4q24 5 47 12.5t45 17.5q10 5 20.5 9.5t19.5 9.5q7 2 14.5 -2t1.5 -13 q-5 -8 -14 -11t-16 -6l-50 -22q-46 -18 -91 -30q-20 -4 -40.5 -2.5t-38 9t-31.5 21.5t-20 36q-2 8 -3.5 16t0.5 15q-11 -5 -21.5 -11.5t-18.5 -11.5q-5 -2 -13 -7.5t-16 -0.5q-6 4 -5.5 11t6.5 9zM104 114q24 1 46.5 12t39.5 28q-14 5 -27.5 3t-25 -8t-20.5 -15.5t-13 -19.5 zM179 390q3 -5 11.5 -11t19 -11.5t21.5 -10.5t19 -8q14 -5 30 -8t27 -11q8 -2 9.5 -8t-3.5 -11q-5 -7 -13 -4t-14 5q-31 10 -63.5 20t-59.5 28q-5 4 -10.5 9t-7.5 13q-1 7 3 11.5t10 6t12 -0.5t9 -9z"/>
<glyph glyph-name="eacute" unicode="é" horiz-adv-x="355" d="M2 86q18 9 37.5 20t39.5 19q13 23 37 37.5t51 19.5q14 2 32.5 0t28.5 -15q7 -8 3.5 -17t-12 -17t-19 -14.5t-15.5 -9.5q-18 -11 -39.5 -16.5t-43.5 -3.5h-4q4 -22 18 -34t33 -17.5t39.5 -4.5t37.5 4q24 5 47 12.5t45 17.5q10 5 20.5 9.5t19.5 9.5q7 2 14.5 -2t1.5 -13 q-5 -8 -14 -11t-16 -6l-50 -22q-46 -18 -91 -30q-20 -4 -40.5 -2.5t-38 9t-31.5 21.5t-20 36q-2 8 -3.5 16t0.5 15q-11 -5 -21.5 -11.5t-18.5 -11.5q-5 -2 -13 -7.5t-16 -0.5q-6 4 -5.5 11t6.5 9zM104 114q24 1 46.5 12t39.5 28q-14 5 -27.5 3t-25 -8t-20.5 -15.5t-13 -19.5 zM330 373q-7 -15 -28 -23.5t-37 -13.5q-14 -5 -27 -8.5t-27 -7.5q-4 -1 -10.5 -3.5t-14 -4.5t-14.5 -2.5t-11 2.5q-8 8 1 15t24 12t30 8t18 5q7 3 17 7t19.5 9t17.5 10t10 10q3 8 10 9.5t13 -1t9.5 -9t-0.5 -14.5z"/>
<glyph glyph-name="ecircumflex" unicode="ê" horiz-adv-x="355" d="M2 86q18 9 37.5 20t39.5 19q13 23 37 37.5t51 19.5q14 2 32.5 0t28.5 -15q7 -8 3.5 -17t-12 -17t-19 -14.5t-15.5 -9.5q-18 -11 -39.5 -16.5t-43.5 -3.5h-4q4 -22 18 -34t33 -17.5t39.5 -4.5t37.5 4q24 5 47 12.5t45 17.5q10 5 20.5 9.5t19.5 9.5q7 2 14.5 -2t1.5 -13 q-5 -8 -14 -11t-16 -6l-50 -22q-46 -18 -91 -30q-20 -4 -40.5 -2.5t-38 9t-31.5 21.5t-20 36q-2 8 -3.5 16t0.5 15q-11 -5 -21.5 -11.5t-18.5 -11.5q-5 -2 -13 -7.5t-16 -0.5q-6 4 -5.5 11t6.5 9zM104 114q24 1 46.5 12t39.5 28q-14 5 -27.5 3t-25 -8t-20.5 -15.5t-13 -19.5 zM154 348q21 8 40 18t38 22q5 3 13.5 10.5t17.5 14.5t17.5 9.5t14.5 -3.5q11 -11 16 -31t10 -34q2 -5 6 -13.5t3 -15.5q-2 -14 -12.5 -9t-14.5 13l-29 53q-21 -9 -41.5 -21t-39.5 -26q-4 -3 -8.5 -8t-10 -8.5t-11 -5t-11.5 1.5q-11 5 -10 17t12 16z"/>
<glyph glyph-name="edieresis" unicode="ë" horiz-adv-x="355" d="M2 86q18 9 37.5 20t39.5 19q13 23 37 37.5t51 19.5q14 2 32.5 0t28.5 -15q7 -8 3.5 -17t-12 -17t-19 -14.5t-15.5 -9.5q-18 -11 -39.5 -16.5t-43.5 -3.5h-4q4 -22 18 -34t33 -17.5t39.5 -4.5t37.5 4q24 5 47 12.5t45 17.5q10 5 20.5 9.5t19.5 9.5q7 2 14.5 -2t1.5 -13 q-5 -8 -14 -11t-16 -6l-50 -22q-46 -18 -91 -30q-20 -4 -40.5 -2.5t-38 9t-31.5 21.5t-20 36q-2 8 -3.5 16t0.5 15q-11 -5 -21.5 -11.5t-18.5 -11.5q-5 -2 -13 -7.5t-16 -0.5q-6 4 -5.5 11t6.5 9zM104 114q24 1 46.5 12t39.5 28q-14 5 -27.5 3t-25 -8t-20.5 -15.5t-13 -19.5 zM292 340q-8 -11 -18.5 -26t-21.5 -21q-4 -5 -9 -4t-8 4.5t-3.5 8.5t4.5 9q13 10 22.5 24t17.5 29q3 5 6 12t6.5 14t8.5 11.5t12 4.5q11 -2 15.5 -11.5t-2.5 -17.5zM235 364q-8 -17 -20 -33t-26 -29q-5 -3 -11 -8t-14 -2q-6 3 -7 6.5t1 7t5.5 6.5t6.5 5q8 5 13.5 13.5 t9.5 16.5t4.5 18.5t6.5 18.5q5 7 12 8t12.5 -3t8 -11t-1.5 -14z"/>
<glyph glyph-name="igrave" unicode="ì" horiz-adv-x="304" d="M100 134q4 2 18.5 8t28.5 9t24 0.5t7 -18.5q-2 -9 -8.5 -18t-9.5 -18q-6 -13 -11.5 -32t3.5 -31q17 -2 37.5 4t37.5 12q5 2 19 10t29.5 15.5t28.5 11t16 -2.5q4 -7 -5 -15t-22.5 -14.5t-27.5 -12t-18 -7.5q-22 -11 -44.5 -21.5t-46.5 -14.5q-21 -3 -29 9t-8 30.5t5.5 40 t11.5 39.5q-23 -9 -45 -16.5t-43 -17.5q-18 -8 -36 -18q-11 -3 -17.5 5.5t5.5 14.5zM150 390q3 -5 11.5 -11t19 -11.5t21.5 -10.5t19 -8q14 -5 30 -8t27 -11q8 -2 9.5 -8t-3.5 -11q-5 -7 -13 -4t-14 5q-31 10 -63.5 20t-59.5 28q-5 4 -10.5 9t-7.5 13q-1 7 3 11.5t10 6 t12 -0.5t9 -9z"/>
<glyph glyph-name="iacute" unicode="í" horiz-adv-x="304" d="M100 134q4 2 18.5 8t28.5 9t24 0.5t7 -18.5q-2 -9 -8.5 -18t-9.5 -18q-6 -13 -11.5 -32t3.5 -31q17 -2 37.5 4t37.5 12q5 2 19 10t29.5 15.5t28.5 11t16 -2.5q4 -7 -5 -15t-22.5 -14.5t-27.5 -12t-18 -7.5q-22 -11 -44.5 -21.5t-46.5 -14.5q-21 -3 -29 9t-8 30.5t5.5 40 t11.5 39.5q-23 -9 -45 -16.5t-43 -17.5q-18 -8 -36 -18q-11 -3 -17.5 5.5t5.5 14.5zM323 369q-7 -15 -28 -23.5t-37 -13.5q-14 -5 -27 -8.5t-27 -7.5q-4 -1 -10.5 -3.5t-14 -4.5t-14.5 -2.5t-11 2.5q-8 8 1 15t24 12t30 8t18 5q7 3 17 7t19.5 9t17.5 10t10 10q3 8 10 9.5 t13 -1t9.5 -9t-0.5 -14.5z"/>
<glyph glyph-name="icircumflex" unicode="î" horiz-adv-x="304" d="M100 134q4 2 18.5 8t28.5 9t24 0.5t7 -18.5q-2 -9 -8.5 -18t-9.5 -18q-6 -13 -11.5 -32t3.5 -31q17 -2 37.5 4t37.5 12q5 2 19 10t29.5 15.5t28.5 11t16 -2.5q4 -7 -5 -15t-22.5 -14.5t-27.5 -12t-18 -7.5q-22 -11 -44.5 -21.5t-46.5 -14.5q-21 -3 -29 9t-8 30.5t5.5 40 t11.5 39.5q-23 -9 -45 -16.5t-43 -17.5q-18 -8 -36 -18q-11 -3 -17.5 5.5t5.5 14.5zM148 351q21 8 40 18t38 22q5 3 13.5 10.5t17.5 14.5t17.5 9.5t14.5 -3.5q11 -11 16 -31t10 -34q2 -5 6 -13.5t3 -15.5q-2 -14 -12.5 -9t-14.5 13l-29 53q-21 -9 -41.5 -21t-39.5 -26 q-4 -3 -8.5 -8t-10 -8.5t-11 -5t-11.5 1.5q-11 5 -10 17t12 16z"/>
<glyph glyph-name="idieresis" unicode="ï" horiz-adv-x="304" d="M100 134q4 2 18.5 8t28.5 9t24 0.5t7 -18.5q-2 -9 -8.5 -18t-9.5 -18q-6 -13 -11.5 -32t3.5 -31q17 -2 37.5 4t37.5 12q5 2 19 10t29.5 15.5t28.5 11t16 -2.5q4 -7 -5 -15t-22.5 -14.5t-27.5 -12t-18 -7.5q-22 -11 -44.5 -21.5t-46.5 -14.5q-21 -3 -29 9t-8 30.5t5.5 40 t11.5 39.5q-23 -9 -45 -16.5t-43 -17.5q-18 -8 -36 -18q-11 -3 -17.5 5.5t5.5 14.5zM302 340q-8 -11 -18.5 -26t-21.5 -21q-4 -5 -9 -4t-8 4.5t-3.5 8.5t4.5 9q13 10 22.5 24t17.5 29q3 5 6 12t6.5 14t8.5 11.5t12 4.5q11 -2 15.5 -11.5t-2.5 -17.5zM245 364q-8 -17 -20 -33 t-26 -29q-5 -3 -11 -8t-14 -2q-6 3 -7 6.5t1 7t5.5 6.5t6.5 5q8 5 13.5 13.5t9.5 16.5t4.5 18.5t6.5 18.5q5 7 12 8t12.5 -3t8 -11t-1.5 -14z"/>
<glyph glyph-name="ntilde" unicode="ñ" horiz-adv-x="454" d="M-2 85q11 6 38 20.5t55.5 27.5t52.5 18t30 -8q4 -10 -2.5 -19.5t-9.5 -17.5l-12 -28q13 8 26 14l26 12q32 17 66 36t69 29q13 3 23 0.5t15.5 -9t5.5 -17t-8 -22.5q-9 -14 -19.5 -25t-21.5 -24q-2 -3 -7 -8t-10.5 -11.5t-10 -13t-5.5 -11.5q7 -2 17.5 0t21 5.5t20 7.5 t14.5 6l41 18q4 2 10.5 6t13.5 7.5t13.5 6.5t10.5 3q9 0 9 -9t-8 -14q-9 -5 -19 -9.5t-21 -9.5q-14 -8 -27 -14t-27 -13q-8 -4 -25.5 -11.5t-35 -11t-30.5 1t-13 24.5q0 10 5 18t11.5 15.5t14 14.5t13.5 13q6 5 20 21t18 30q-27 -3 -54.5 -14t-50.5 -23q-29 -14 -60 -31.5 t-54 -41.5q-5 -4 -10.5 -4.5t-10.5 2t-7.5 7.5t-0.5 13q3 9 15 16q5 8 10 18.5t7 12.5q2 7 4 14.5t3 15.5q-11 -3 -22 -7t-17 -6q-14 -6 -28 -11.5t-28 -12.5q-8 -4 -14.5 -8t-14.5 -7q-6 -3 -11.5 -1.5t-8.5 4.5t-2.5 7.5t7.5 7.5zM231 335q18 14 37.5 29.5t42.5 20.5 q14 3 21.5 -2t12 -14t6.5 -19.5t5 -19.5t11.5 -7t18 9t18.5 15.5t12 11.5q5 5 11 12t15 6q11 -1 15.5 -11.5t-3.5 -18.5q-7 -7 -16.5 -14.5t-21 -14.5t-23 -12t-21.5 -8q-14 -3 -22 2t-12.5 14t-6.5 20.5t-5 20.5q-3 8 -12 5t-18.5 -10.5t-18 -16l-11.5 -11.5 q-7 -8 -14 -15.5t-18 -2.5q-10 5 -10.5 14.5t7.5 16.5z"/>
<glyph glyph-name="ograve" unicode="ò" horiz-adv-x="392" d="M104 131q20 8 41.5 14t41.5 12q13 7 29 11t29 -4q8 -6 6 -16q7 1 14 -4q13 -13 9 -31t-15 -35q4 -5 12 -10q16 -10 35 -9t36 6q5 1 15 6t20.5 9.5t19.5 6t12 -4.5q4 -8 -1 -13.5t-13.5 -9t-17.5 -6.5l-12 -4q-15 -5 -31.5 -8t-32.5 -3t-31 4.5t-26 15.5l-22 -23 q-12 -11 -27 -22t-31.5 -18.5t-34.5 -9.5t-34 5q-20 9 -23.5 23.5t2.5 30.5t17 31t21 25l19 19q-23 -8 -45 -18t-44 -21q-4 -2 -10 -5.5t-12 -6.5t-11.5 -4.5t-9.5 1.5q-7 4 -6 11t7 10zM138 96q-4 -4 -14.5 -15t-18.5 -23t-9.5 -22.5t12.5 -12.5q26 -4 49.5 2t42.5 23 l15 15t12 16q-5 13 -5.5 28t7.5 26q-28 -2 -50.5 -12t-40.5 -25zM214 390q3 -5 11.5 -11t19 -11.5t21.5 -10.5t19 -8q14 -5 30 -8t27 -11q8 -2 9.5 -8t-3.5 -11q-5 -7 -13 -4t-14 5q-31 10 -63.5 20t-59.5 28q-5 4 -10.5 9t-7.5 13q-1 7 3 11.5t10 6t12 -0.5t9 -9z"/>
<glyph glyph-name="oacute" unicode="ó" horiz-adv-x="392" d="M104 131q20 8 41.5 14t41.5 12q13 7 29 11t29 -4q8 -6 6 -16q7 1 14 -4q13 -13 9 -31t-15 -35q4 -5 12 -10q16 -10 35 -9t36 6q5 1 15 6t20.5 9.5t19.5 6t12 -4.5q4 -8 -1 -13.5t-13.5 -9t-17.5 -6.5l-12 -4q-15 -5 -31.5 -8t-32.5 -3t-31 4.5t-26 15.5l-22 -23 q-12 -11 -27 -22t-31.5 -18.5t-34.5 -9.5t-34 5q-20 9 -23.5 23.5t2.5 30.5t17 31t21 25l19 19q-23 -8 -45 -18t-44 -21q-4 -2 -10 -5.5t-12 -6.5t-11.5 -4.5t-9.5 1.5q-7 4 -6 11t7 10zM138 96q-4 -4 -14.5 -15t-18.5 -23t-9.5 -22.5t12.5 -12.5q26 -4 49.5 2t42.5 23 l15 15t12 16q-5 13 -5.5 28t7.5 26q-28 -2 -50.5 -12t-40.5 -25zM360 373q-7 -15 -28 -23.5t-37 -13.5q-14 -5 -27 -8.5t-27 -7.5q-4 -1 -10.5 -3.5t-14 -4.5t-14.5 -2.5t-11 2.5q-8 8 1 15t24 12t30 8t18 5q7 3 17 7t19.5 9t17.5 10t10 10q3 8 10 9.5t13 -1t9.5 -9 t-0.5 -14.5z"/>
<glyph glyph-name="ocircumflex" unicode="ô" horiz-adv-x="392" d="M104 131q20 8 41.5 14t41.5 12q13 7 29 11t29 -4q8 -6 6 -16q7 1 14 -4q13 -13 9 -31t-15 -35q4 -5 12 -10q16 -10 35 -9t36 6q5 1 15 6t20.5 9.5t19.5 6t12 -4.5q4 -8 -1 -13.5t-13.5 -9t-17.5 -6.5l-12 -4q-15 -5 -31.5 -8t-32.5 -3t-31 4.5t-26 15.5l-22 -23 q-12 -11 -27 -22t-31.5 -18.5t-34.5 -9.5t-34 5q-20 9 -23.5 23.5t2.5 30.5t17 31t21 25l19 19q-23 -8 -45 -18t-44 -21q-4 -2 -10 -5.5t-12 -6.5t-11.5 -4.5t-9.5 1.5q-7 4 -6 11t7 10zM138 96q-4 -4 -14.5 -15t-18.5 -23t-9.5 -22.5t12.5 -12.5q26 -4 49.5 2t42.5 23 l15 15t12 16q-5 13 -5.5 28t7.5 26q-28 -2 -50.5 -12t-40.5 -25zM178 336q21 8 40 18t38 22q5 3 13.5 10.5t17.5 14.5t17.5 9.5t14.5 -3.5q11 -11 16 -31t10 -34q2 -5 6 -13.5t3 -15.5q-2 -14 -12.5 -9t-14.5 13l-29 53q-21 -9 -41.5 -21t-39.5 -26q-4 -3 -8.5 -8t-10 -8.5 t-11 -5t-11.5 1.5q-11 5 -10 17t12 16z"/>
<glyph glyph-name="otilde" unicode="õ" horiz-adv-x="392" d="M104 131q20 8 41.5 14t41.5 12q13 7 29 11t29 -4q8 -6 6 -16q7 1 14 -4q13 -13 9 -31t-15 -35q4 -5 12 -10q16 -10 35 -9t36 6q5 1 15 6t20.5 9.5t19.5 6t12 -4.5q4 -8 -1 -13.5t-13.5 -9t-17.5 -6.5l-12 -4q-15 -5 -31.5 -8t-32.5 -3t-31 4.5t-26 15.5l-22 -23 q-12 -11 -27 -22t-31.5 -18.5t-34.5 -9.5t-34 5q-20 9 -23.5 23.5t2.5 30.5t17 31t21 25l19 19q-23 -8 -45 -18t-44 -21q-4 -2 -10 -5.5t-12 -6.5t-11.5 -4.5t-9.5 1.5q-7 4 -6 11t7 10zM138 96q-4 -4 -14.5 -15t-18.5 -23t-9.5 -22.5t12.5 -12.5q26 -4 49.5 2t42.5 23 l15 15t12 16q-5 13 -5.5 28t7.5 26q-28 -2 -50.5 -12t-40.5 -25zM167 343q18 14 37.5 29.5t42.5 20.5q14 3 21.5 -2t12 -14t6.5 -19.5t5 -19.5t11.5 -7t18 9t18.5 15.5t12 11.5q5 5 11 12t15 6q11 -1 15.5 -11.5t-3.5 -18.5q-7 -7 -16.5 -14.5t-21 -14.5t-23 -12t-21.5 -8 q-14 -3 -22 2t-12.5 14t-6.5 20.5t-5 20.5q-3 8 -12 5t-18.5 -10.5t-18 -16l-11.5 -11.5q-7 -8 -14 -15.5t-18 -2.5q-10 5 -10.5 14.5t7.5 16.5z"/>
<glyph glyph-name="odieresis" unicode="ö" horiz-adv-x="392" d="M104 131q20 8 41.5 14t41.5 12q13 7 29 11t29 -4q8 -6 6 -16q7 1 14 -4q13 -13 9 -31t-15 -35q4 -5 12 -10q16 -10 35 -9t36 6q5 1 15 6t20.5 9.5t19.5 6t12 -4.5q4 -8 -1 -13.5t-13.5 -9t-17.5 -6.5l-12 -4q-15 -5 -31.5 -8t-32.5 -3t-31 4.5t-26 15.5l-22 -23 q-12 -11 -27 -22t-31.5 -18.5t-34.5 -9.5t-34 5q-20 9 -23.5 23.5t2.5 30.5t17 31t21 25l19 19q-23 -8 -45 -18t-44 -21q-4 -2 -10 -5.5t-12 -6.5t-11.5 -4.5t-9.5 1.5q-7 4 -6 11t7 10zM138 96q-4 -4 -14.5 -15t-18.5 -23t-9.5 -22.5t12.5 -12.5q26 -4 49.5 2t42.5 23 l15 15t12 16q-5 13 -5.5 28t7.5 26q-28 -2 -50.5 -12t-40.5 -25zM342 340q-8 -11 -18.5 -26t-21.5 -21q-4 -5 -9 -4t-8 4.5t-3.5 8.5t4.5 9q13 10 22.5 24t17.5 29q3 5 6 12t6.5 14t8.5 11.5t12 4.5q11 -2 15.5 -11.5t-2.5 -17.5zM285 364q-8 -17 -20 -33t-26 -29 q-5 -3 -11 -8t-14 -2q-6 3 -7 6.5t1 7t5.5 6.5t6.5 5q8 5 13.5 13.5t9.5 16.5t4.5 18.5t6.5 18.5q5 7 12 8t12.5 -3t8 -11t-1.5 -14z"/>
<glyph glyph-name="oslash" unicode="ø" horiz-adv-x="392" d="M-17 -66q23 17 46 35t46 37q-7 10 -5 23.5t9 26.5t16 24.5t17 19.5l19 19q-23 -8 -45 -18t-44 -21q-4 -2 -10 -5.5t-12 -6.5t-11.5 -4.5t-9.5 1.5q-7 4 -6 11t7 10l104 45q20 8 41.5 14t41.5 12q13 7 29 11t29 -4q2 -2 2 -3l39 35q5 6 12 14.5t15 17t16 14.5t16 7 q14 2 19 -10t-5 -21l-67 -58l-12 -10l-12 -10q10 -13 6 -29.5t-15 -32.5q4 -5 12 -10q16 -10 35 -9t36 6q5 1 15 6t20.5 9.5t19.5 6t12 -4.5q4 -8 -1 -13.5t-13.5 -9t-17.5 -6.5l-12 -4q-15 -5 -31.5 -8t-32.5 -3t-31 4.5t-26 15.5l-22 -23q-12 -11 -27 -22t-31.5 -18.5 t-34.5 -9.5t-34 5l-3 2l-14 -12l-59 -49l-20 -15q-5 -4 -9.5 -3t-7.5 4.5t-3.5 8t4.5 8.5zM138 96q-4 -3 -12.5 -12.5t-16.5 -20t-12 -21t2 -15.5q58 50 116 104q-23 -3 -42 -12.5t-35 -22.5zM227 79q-5 9 -6 21q-23 -20 -46.5 -39.5t-46.5 -39.5q20 1 38.5 7t33.5 20l15 15 t12 16z"/>
<glyph glyph-name="ugrave" unicode="ù" horiz-adv-x="470" d="M0 86q26 8 51 19.5t50 22.5q6 3 18.5 11.5t25.5 15.5t24.5 9.5t17.5 -6.5q5 -8 1.5 -15.5t-10.5 -15t-15 -14t-12 -10.5q-15 -15 -29 -33t-14 -38q18 0 38 9t35 15q48 22 95 50q26 16 47 32q9 6 18.5 0t7.5 -18q-2 -9 -8.5 -17.5t-11.5 -17.5q-5 -8 -9.5 -22t-0.5 -25 q11 -6 27 -1.5t26 7.5q43 15 80 34q7 3 17.5 8.5t15.5 -4.5q5 -9 -1.5 -13.5t-13.5 -7.5l-66 -31q-21 -9 -46 -20.5t-50 -5.5q-18 5 -20.5 20.5t2.5 29.5l15 36q-26 -12 -50.5 -25t-50.5 -24q-11 -6 -26 -14.5t-31.5 -16t-32.5 -11t-28 1.5q-12 4 -12.5 15.5t5.5 26.5t17 32 t23 33l-24 -11q-41 -15 -59 -23t-28 -10q-6 -2 -9.5 1t-5 7t0 8t6.5 6zM247 378q3 -5 11.5 -11t19 -11.5t21.5 -10.5t19 -8q14 -5 30 -8t27 -11q8 -2 9.5 -8t-3.5 -11q-5 -7 -13 -4t-14 5q-31 10 -63.5 20t-59.5 28q-5 4 -10.5 9t-7.5 13q-1 7 3 11.5t10 6t12 -0.5t9 -9z "/>
<glyph glyph-name="uacute" unicode="ú" horiz-adv-x="470" d="M0 86q26 8 51 19.5t50 22.5q6 3 18.5 11.5t25.5 15.5t24.5 9.5t17.5 -6.5q5 -8 1.5 -15.5t-10.5 -15t-15 -14t-12 -10.5q-15 -15 -29 -33t-14 -38q18 0 38 9t35 15q48 22 95 50q26 16 47 32q9 6 18.5 0t7.5 -18q-2 -9 -8.5 -17.5t-11.5 -17.5q-5 -8 -9.5 -22t-0.5 -25 q11 -6 27 -1.5t26 7.5q43 15 80 34q7 3 17.5 8.5t15.5 -4.5q5 -9 -1.5 -13.5t-13.5 -7.5l-66 -31q-21 -9 -46 -20.5t-50 -5.5q-18 5 -20.5 20.5t2.5 29.5l15 36q-26 -12 -50.5 -25t-50.5 -24q-11 -6 -26 -14.5t-31.5 -16t-32.5 -11t-28 1.5q-12 4 -12.5 15.5t5.5 26.5t17 32 t23 33l-24 -11q-41 -15 -59 -23t-28 -10q-6 -2 -9.5 1t-5 7t0 8t6.5 6zM402 357q-7 -15 -28 -23.5t-37 -13.5q-14 -5 -27 -8.5t-27 -7.5q-4 -1 -10.5 -3.5t-14 -4.5t-14.5 -2.5t-11 2.5q-8 8 1 15t24 12t30 8t18 5q7 3 17 7t19.5 9t17.5 10t10 10q3 8 10 9.5t13 -1t9.5 -9 t-0.5 -14.5z"/>
<glyph glyph-name="ucircumflex" unicode="û" horiz-adv-x="470" d="M0 86q26 8 51 19.5t50 22.5q6 3 18.5 11.5t25.5 15.5t24.5 9.5t17.5 -6.5q5 -8 1.5 -15.5t-10.5 -15t-15 -14t-12 -10.5q-15 -15 -29 -33t-14 -38q18 0 38 9t35 15q48 22 95 50q26 16 47 32q9 6 18.5 0t7.5 -18q-2 -9 -8.5 -17.5t-11.5 -17.5q-5 -8 -9.5 -22t-0.5 -25 q11 -6 27 -1.5t26 7.5q43 15 80 34q7 3 17.5 8.5t15.5 -4.5q5 -9 -1.5 -13.5t-13.5 -7.5l-66 -31q-21 -9 -46 -20.5t-50 -5.5q-18 5 -20.5 20.5t2.5 29.5l15 36q-26 -12 -50.5 -25t-50.5 -24q-11 -6 -26 -14.5t-31.5 -16t-32.5 -11t-28 1.5q-12 4 -12.5 15.5t5.5 26.5t17 32 t23 33l-24 -11q-41 -15 -59 -23t-28 -10q-6 -2 -9.5 1t-5 7t0 8t6.5 6zM232 335q21 8 40 18t38 22q5 3 13.5 10.5t17.5 14.5t17.5 9.5t14.5 -3.5q11 -11 16 -31t10 -34q2 -5 6 -13.5t3 -15.5q-2 -14 -12.5 -9t-14.5 13l-29 53q-21 -9 -41.5 -21t-39.5 -26q-4 -3 -8.5 -8 t-10 -8.5t-11 -5t-11.5 1.5q-11 5 -10 17t12 16z"/>
<glyph glyph-name="udieresis" unicode="ü" horiz-adv-x="470" d="M0 86q26 8 51 19.5t50 22.5q6 3 18.5 11.5t25.5 15.5t24.5 9.5t17.5 -6.5q5 -8 1.5 -15.5t-10.5 -15t-15 -14t-12 -10.5q-15 -15 -29 -33t-14 -38q18 0 38 9t35 15q48 22 95 50q26 16 47 32q9 6 18.5 0t7.5 -18q-2 -9 -8.5 -17.5t-11.5 -17.5q-5 -8 -9.5 -22t-0.5 -25 q11 -6 27 -1.5t26 7.5q43 15 80 34q7 3 17.5 8.5t15.5 -4.5q5 -9 -1.5 -13.5t-13.5 -7.5l-66 -31q-21 -9 -46 -20.5t-50 -5.5q-18 5 -20.5 20.5t2.5 29.5l15 36q-26 -12 -50.5 -25t-50.5 -24q-11 -6 -26 -14.5t-31.5 -16t-32.5 -11t-28 1.5q-12 4 -12.5 15.5t5.5 26.5t17 32 t23 33l-24 -11q-41 -15 -59 -23t-28 -10q-6 -2 -9.5 1t-5 7t0 8t6.5 6zM373 340q-8 -11 -18.5 -26t-21.5 -21q-4 -5 -9 -4t-8 4.5t-3.5 8.5t4.5 9q13 10 22.5 24t17.5 29q3 5 6 12t6.5 14t8.5 11.5t12 4.5q11 -2 15.5 -11.5t-2.5 -17.5zM316 364q-8 -17 -20 -33t-26 -29 q-5 -3 -11 -8t-14 -2q-6 3 -7 6.5t1 7t5.5 6.5t6.5 5q8 5 13.5 13.5t9.5 16.5t4.5 18.5t6.5 18.5q5 7 12 8t12.5 -3t8 -11t-1.5 -14z"/>
<glyph glyph-name="yacute" unicode="ý" horiz-adv-x="410" d="M-2 85q59 29 115 59q16 8 36 22t38 18q11 2 18 -8t-1 -20q-5 -9 -14.5 -16.5t-16.5 -15.5q-20 -24 -33 -51q-3 -5 -6 -12t-5 -14.5t-2 -13.5t4 -9q3 -3 13 1.5t22 11t22 13t12 8.5q21 14 39.5 29t35.5 32q4 4 11 7t13 2t9.5 -5.5t2.5 -13.5q-3 -11 -11 -22.5t-13 -20.5 q-8 -11 -14 -22t-13 -22l-78 -142q34 45 75 84q4 4 18 17t32 29t38.5 32.5t39 28.5t31.5 17t17 -2q3 -6 -5.5 -14.5t-21 -17t-25.5 -15.5t-17 -10q-23 -17 -44.5 -35.5t-41.5 -39.5q-39 -39 -73.5 -84.5t-64.5 -93.5l-22 -40t-21 -40q-4 -6 -7 -13t-8 -12q-8 -5 -17 -2 t-11 12q-3 8 1.5 14.5t8.5 12.5q14 25 27.5 49t27.5 50q28 51 54.5 101t52.5 103q6 14 13 27.5t13 27.5l-42 -32q-9 -8 -20 -17.5t-23 -17t-24.5 -10.5t-24.5 3q-17 6 -19.5 21t3 34.5t17 40.5t23.5 40l-50 -21q-17 -8 -34 -16.5t-34 -17.5q-6 -4 -13 -8t-15 0q-6 4 -5.5 11 t7.5 9zM410 378q-7 -15 -28 -23.5t-37 -13.5q-14 -5 -27 -8.5t-27 -7.5q-4 -1 -10.5 -3.5t-14 -4.5t-14.5 -2.5t-11 2.5q-8 8 1 15t24 12t30 8t18 5q7 3 17 7t19.5 9t17.5 10t10 10q3 8 10 9.5t13 -1t9.5 -9t-0.5 -14.5z"/>
<glyph glyph-name="ydieresis" unicode="ÿ" horiz-adv-x="410" d="M-2 85q59 29 115 59q16 8 36 22t38 18q11 2 18 -8t-1 -20q-5 -9 -14.5 -16.5t-16.5 -15.5q-20 -24 -33 -51q-3 -5 -6 -12t-5 -14.5t-2 -13.5t4 -9q3 -3 13 1.5t22 11t22 13t12 8.5q21 14 39.5 29t35.5 32q4 4 11 7t13 2t9.5 -5.5t2.5 -13.5q-3 -11 -11 -22.5t-13 -20.5 q-8 -11 -14 -22t-13 -22l-78 -142q34 45 75 84q4 4 18 17t32 29t38.5 32.5t39 28.5t31.5 17t17 -2q3 -6 -5.5 -14.5t-21 -17t-25.5 -15.5t-17 -10q-23 -17 -44.5 -35.5t-41.5 -39.5q-39 -39 -73.5 -84.5t-64.5 -93.5l-22 -40t-21 -40q-4 -6 -7 -13t-8 -12q-8 -5 -17 -2 t-11 12q-3 8 1.5 14.5t8.5 12.5q14 25 27.5 49t27.5 50q28 51 54.5 101t52.5 103q6 14 13 27.5t13 27.5l-42 -32q-9 -8 -20 -17.5t-23 -17t-24.5 -10.5t-24.5 3q-17 6 -19.5 21t3 34.5t17 40.5t23.5 40l-50 -21q-17 -8 -34 -16.5t-34 -17.5q-6 -4 -13 -8t-15 0q-6 4 -5.5 11 t7.5 9zM366 329q-8 -11 -18.5 -26t-21.5 -21q-4 -5 -9 -4t-8 4.5t-3.5 8.5t4.5 9q13 10 22.5 24t17.5 29q3 5 6 12t6.5 14t8.5 11.5t12 4.5q11 -2 15.5 -11.5t-2.5 -17.5zM309 353q-8 -17 -20 -33t-26 -29q-5 -3 -11 -8t-14 -2q-6 3 -7 6.5t1 7t5.5 6.5t6.5 5q8 5 13.5 13.5 t9.5 16.5t4.5 18.5t6.5 18.5q5 7 12 8t12.5 -3t8 -11t-1.5 -14z"/>
<glyph glyph-name="Aogonek" unicode="Ą" horiz-adv-x="730" d="M8 25q35 17 73 28.5t76 20.5l25 39q33 47 67 91t71 88q36 42 74.5 82.5t81.5 75.5q21 17 43 32t45 27q6 3 19.5 9t27.5 9.5t26 2.5t16 -12q2 -7 -1.5 -14.5t-5.5 -13.5l-23 -47l-19 -39q-20 -39 -38.5 -78t-36.5 -80q-16 -36 -31 -72t-28 -74q8 0 15.5 -1t13.5 -3 q12 -5 11.5 -17.5t-12.5 -16.5q-9 -2 -19 -1t-21 3l-4 -21q-11 -40 -20 -85t-4 -86q6 6 12.5 11.5t13.5 10.5l44 36q19 17 40 34q45 35 92.5 65t97.5 57q5 3 9 1.5t6.5 -5.5t2 -8.5t-5.5 -7.5l-41 -22q-26 -15 -51.5 -30.5t-49.5 -33.5q-77 -56 -139 -132q-5 -8 -10.5 -14 t-16.5 -8q-5 -1 -9 -0.5t-7 1.5q-7 -8 -15.5 -18.5t-15 -21t-10.5 -20t-1 -15.5q6 -11 15 -10t18.5 7.5t17.5 15.5t13 15q3 4 6.5 9.5t8 8.5t8.5 2t7 -11q5 -18 -3.5 -26t-15.5 -13q-8 -6 -18.5 -15.5t-22 -17t-22.5 -10t-21 3.5q-11 7 -14.5 20t-2 28t7.5 29t13 23 q15 20 29 34q-5 10 -6 22.5t0 22.5q1 44 13 89t26 87q-17 1 -34 1.5t-34 0.5q-36 2 -72 0t-71 -7l-46 -7l-14 -26q-12 -23 -25 -48t-16 -51q-1 -8 -3.5 -16t-13.5 -9q-9 0 -14.5 6t-4.5 14q1 25 13.5 49t23.5 45q4 8 8 14t9 14q-14 -3 -26.5 -6.5t-26.5 -8.5 q-18 -5 -34.5 -12t-33.5 -15q-5 -3 -9.5 -1t-6 6t-0.5 8.5t6 7.5zM446 102q26 69 54.5 135t57.5 133q14 30 27 60.5t25 62.5q-23 -4 -46 -15.5t-44 -26.5t-39.5 -31t-34.5 -30q-84 -77 -156 -170q-51 -68 -97 -138l83 12q37 3 74 4.5t75 -0.5h20q0 3 1 4z"/>
<glyph glyph-name="Lcaron" unicode="Ľ" horiz-adv-x="644" d="M568 523q-35 -28 -63.5 -62t-53 -71.5t-46.5 -77t-44 -76.5q-20 -35 -41 -70.5t-44 -70.5q-20 -32 -43 -68t-54 -62l13 -7q45 -21 93 -18t95.5 18.5t93 38.5t84.5 43l86 46q6 3 10.5 1t6.5 -5.5t1 -8t-6 -7.5q-12 -8 -25 -14l-26 -12q-23 -13 -46 -25.5t-47 -24.5 q-38 -20 -75.5 -39.5t-78.5 -32.5q-26 -8 -51.5 -11t-50.5 1q-29 5 -52.5 17t-46.5 26l-20 -10q-25 -8 -51.5 -12t-50.5 7q-11 4 -18.5 12.5t-11 18.5t-1.5 20.5t12 19.5q14 13 30 15t32.5 -2.5t33.5 -13.5t33 -19q34 19 59.5 49t46.5 62q40 59 74.5 120.5t69.5 124.5 q23 40 47.5 78.5t53.5 74.5q10 14 23.5 32t30.5 25q7 3 12.5 0.5t8.5 -7.5t3 -12t-6 -11zM491 336q23 17 43.5 37.5t34.5 46.5q5 10 9.5 23.5t18.5 13.5q10 -1 14.5 -9.5t-0.5 -17.5q-8 -23 -28 -43.5t-37 -34.5q-9 -8 -19.5 -19t-21.5 -16q-5 -4 -9.5 -3t-7 5t-2.5 9t5 8z M58 -11q-3 0 -7.5 -1t-8 -3t-5 -4.5t2.5 -6.5q9 -11 24 -10.5t26 2.5q6 2 12.5 3.5t12.5 4.5q-14 6 -28.5 10.5t-28.5 4.5z"/>
<glyph glyph-name="Sacute" unicode="Ś" horiz-adv-x="487" d="M444 275q18 16 35 37t27 44.5t11 49t-11 49.5q-10 20 -28 35t-41 18q-23 2 -40 -10t-31 -29q-18 -22 -23.5 -47.5t-2.5 -52t12 -52.5t20 -49q12 -24 24 -47t21 -46.5t13.5 -49t1.5 -53.5q-5 -51 -33 -97.5t-69.5 -81.5t-92.5 -54t-103 -15q-43 3 -76 28.5t-47 67.5 q-8 25 -8 50.5t6.5 50t18 48t26.5 44.5q14 20 32.5 38t40.5 32t46 22t50 7q27 -1 51 -12.5t39 -30.5t19.5 -44t-6.5 -52q-5 -7 -12 -9t-13 0.5t-9 8t2 13.5q12 24 4.5 49t-30.5 38q-24 13 -49 13t-48.5 -9t-44.5 -24.5t-37 -33.5q-17 -20 -30.5 -44t-20.5 -50t-5.5 -52.5 t13.5 -50.5q12 -25 31 -39.5t42 -20t48.5 -3.5t49.5 10q53 16 96 50t68 79t27.5 98t-25.5 106q-13 25 -26.5 50.5t-23.5 51.5t-15 54t-2 58q2 26 13.5 51.5t30.5 44.5t43.5 27.5t53.5 -0.5q28 -8 46.5 -27.5t27.5 -44t9 -52.5t-7 -53q-8 -27 -22 -51t-31 -47 q-5 -8 -12.5 -16t-18.5 -3q-10 2 -11.5 12.5t6.5 17.5zM611 649q-7 -15 -28 -23.5t-37 -13.5q-14 -5 -27 -8.5t-27 -7.5q-4 -1 -10.5 -3.5t-14 -4.5t-14.5 -2.5t-11 2.5q-8 8 1 15t24 12t30 8t18 5q7 3 17 7t19.5 9t17.5 10t10 10q3 8 10 9.5t13 -1t9.5 -9t-0.5 -14.5z"/>
<glyph glyph-name="Scedilla" unicode="Ş" horiz-adv-x="487" d="M444 275q18 16 35 37t27 44.5t11 49t-11 49.5q-10 20 -28 35t-41 18q-23 2 -40 -10t-31 -29q-18 -22 -23.5 -47.5t-2.5 -52t12 -52.5t20 -49q12 -24 24 -47t21 -46.5t13.5 -49t1.5 -53.5q-5 -51 -33 -97.5t-69.5 -81.5t-92.5 -54t-103 -15l-13 2l-19 -24q21 -5 41.5 -15 t22.5 -28q1 -9 -3 -16.5t-11 -13t-14.5 -9.5t-14.5 -7q-35 -13 -72 -18.5t-73 -10.5q-13 -2 -19 10t3 20q8 8 23.5 6.5t25.5 -0.5q13 0 31.5 1t37 4t34.5 9t26 17q5 6 -5 10t-25 7t-28.5 4.5t-15.5 1.5q-12 5 -12.5 12t4 14.5t12 14t12.5 10.5l9 9q-28 11 -49 33t-31 53 q-8 25 -8 50.5t6.5 50t18 48t26.5 44.5q14 20 32.5 38t40.5 32t46 22t50 7q27 -1 51 -12.5t39 -30.5t19.5 -44t-6.5 -52q-5 -7 -12 -9t-13 0.5t-9 8t2 13.5q12 24 4.5 49t-30.5 38q-24 13 -49 13t-48.5 -9t-44.5 -24.5t-37 -33.5q-17 -20 -30.5 -44t-20.5 -50t-5.5 -52.5 t13.5 -50.5q12 -25 31 -39.5t42 -20t48.5 -3.5t49.5 10q53 16 96 50t68 79t27.5 98t-25.5 106q-13 25 -26.5 50.5t-23.5 51.5t-15 54t-2 58q2 26 13.5 51.5t30.5 44.5t43.5 27.5t53.5 -0.5q28 -8 46.5 -27.5t27.5 -44t9 -52.5t-7 -53q-8 -27 -22 -51t-31 -47 q-5 -8 -12.5 -16t-18.5 -3q-10 2 -11.5 12.5t6.5 17.5z"/>
<glyph glyph-name="Tcaron" unicode="Ť" horiz-adv-x="430" d="M708 520q-10 5 -22 3t-24 -7.5t-23 -12t-19 -11.5q-15 -10 -29.5 -21t-28.5 -22q29 4 59 5.5t61 1.5q27 0 54.5 -1.5t54.5 -6.5q9 -2 17.5 -6t6.5 -16q-1 -8 -7.5 -12t-14.5 -2q-22 0 -44.5 5.5t-45.5 7.5q-28 2 -55.5 2t-55.5 -2q-17 -1 -32 -2.5t-31 -3.5 q-42 -39 -78 -80.5t-71 -86.5q-34 -45 -64.5 -92t-53.5 -99q-12 -23 -21 -48t-14 -50q-2 -12 -2.5 -24t3.5 -23q4 -10 12 -18t4 -18q-5 -12 -12 -12.5t-14 5t-12.5 14t-7.5 13.5q-9 25 -3.5 52.5t13.5 51.5q19 52 46.5 100.5t59.5 93.5q33 48 68.5 93t73.5 87l34 36 q-33 -5 -64.5 -11.5t-63.5 -13.5q-55 -13 -108.5 -28.5t-107.5 -32.5q-27 -9 -53.5 -18t-52.5 -20q-9 -3 -18.5 -3t-14.5 11q-2 7 1.5 14t10.5 10q109 30 218 60.5t221 50.5q15 3 30 5.5t30 4.5q25 24 51.5 46t55.5 40q20 13 44 22.5t49 1.5q10 -3 13 -10t1 -13.5 t-8.5 -10.5t-15.5 1zM818 659q-18 -5 -36 -13.5t-35 -17.5l-41 -23q-6 -5 -14 -11.5t-16 -8.5q-10 -3 -15 4.5t-7.5 19t-3.5 23t-1 16.5q-2 7 -4 15t-1 15q-2 7 1.5 10t8 2t9 -4.5t6.5 -8.5q4 -13 7.5 -26t8.5 -26q24 8 47 20.5t44 26.5q9 5 20 14.5t22 7.5 q13 -4 13.5 -17.5t-13.5 -17.5z"/>
<glyph glyph-name="Zacute" unicode="Ź" horiz-adv-x="744" d="M188 362q22 22 39.5 44.5t32 44.5t28 42.5t28.5 39.5q4 5 8.5 10t9.5 7t9.5 -0.5t8.5 -11.5q1 -4 -2 -12t-7.5 -17.5t-9 -18t-5.5 -14.5q-4 -25 7.5 -39t31 -20.5t42 -7.5t39.5 1q48 5 93 22t89 40l40 22q9 6 18.5 13.5t18.5 9.5q7 2 13 -1.5t8 -11.5q3 -8 0 -13t-8 -7 q-81 -88 -167.5 -168.5t-180.5 -153.5q-30 -23 -59.5 -45t-60.5 -43q19 2 39 -0.5t37 -12.5q12 -7 21.5 -16.5t18.5 -19.5t18 -19.5t20 -16.5q16 -10 36.5 -12t41.5 1t41.5 9t37.5 12q25 10 50 21.5t49 23.5q6 3 21.5 12.5t32 18t31 12.5t17.5 -3q4 -7 -4 -14.5t-20.5 -14 t-25.5 -11.5t-17 -7q-27 -14 -54 -27t-55 -26q-19 -8 -39.5 -18t-41.5 -16.5t-43 -8t-43 6.5q-24 11 -40 29t-33 37q-37 44 -95 38q-14 -2 -28.5 -5.5t-28.5 -8.5q-35 -20 -60.5 -34.5t-51.5 -27.5q-7 -3 -17 -9t-21 -11.5t-21.5 -8t-17.5 2.5q-4 2 -6 7.5t-1 8.5 q2 11 11.5 16.5t20.5 10.5q33 15 66 31t70 30q50 28 96.5 60t91.5 67q158 120 287 267q-29 -14 -58 -25.5t-58 -21.5q-20 -7 -43.5 -14.5t-48 -11t-48 -1.5t-44.5 14q-23 12 -32 34t-7 45q-15 -17 -27.5 -35t-25.5 -35l-19 -31q-5 -8 -9.5 -18.5t-12.5 -13.5q-7 -4 -13 -2 t-9.5 7t-4 11.5t4.5 11.5zM647 589q-7 -15 -28 -23.5t-37 -13.5q-14 -5 -27 -8.5t-27 -7.5q-4 -1 -10.5 -3.5t-14 -4.5t-14.5 -2.5t-11 2.5q-8 8 1 15t24 12t30 8t18 5q7 3 17 7t19.5 9t17.5 10t10 10q3 8 10 9.5t13 -1t9.5 -9t-0.5 -14.5z"/>
<glyph glyph-name="uni00AD" unicode="­" horiz-adv-x="340" d="M60 98q35 -3 71 -1t71 7q15 2 34.5 7.5t35.5 3.5q13 -2 15.5 -14.5t-9.5 -18.5q-6 -4 -14 -5t-17 -1h-17.5h-15.5q-39 -3 -76 -3q-17 0 -35 0.5t-36 0.5q-5 0 -10.5 1t-8.5 7q-4 6 0 12t12 4z"/>
<glyph glyph-name="Zdotaccent" unicode="Ż" horiz-adv-x="744" d="M188 362q22 22 39.5 44.5t32 44.5t28 42.5t28.5 39.5q4 5 8.5 10t9.5 7t9.5 -0.5t8.5 -11.5q1 -4 -2 -12t-7.5 -17.5t-9 -18t-5.5 -14.5q-4 -25 7.5 -39t31 -20.5t42 -7.5t39.5 1q48 5 93 22t89 40l40 22q9 6 18.5 13.5t18.5 9.5q7 2 13 -1.5t8 -11.5q3 -8 0 -13t-8 -7 q-81 -88 -167.5 -168.5t-180.5 -153.5q-30 -23 -59.5 -45t-60.5 -43q19 2 39 -0.5t37 -12.5q12 -7 21.5 -16.5t18.5 -19.5t18 -19.5t20 -16.5q16 -10 36.5 -12t41.5 1t41.5 9t37.5 12q25 10 50 21.5t49 23.5q6 3 21.5 12.5t32 18t31 12.5t17.5 -3q4 -7 -4 -14.5t-20.5 -14 t-25.5 -11.5t-17 -7q-27 -14 -54 -27t-55 -26q-19 -8 -39.5 -18t-41.5 -16.5t-43 -8t-43 6.5q-24 11 -40 29t-33 37q-37 44 -95 38q-14 -2 -28.5 -5.5t-28.5 -8.5q-35 -20 -60.5 -34.5t-51.5 -27.5q-7 -3 -17 -9t-21 -11.5t-21.5 -8t-17.5 2.5q-4 2 -6 7.5t-1 8.5 q2 11 11.5 16.5t20.5 10.5q33 15 66 31t70 30q50 28 96.5 60t91.5 67q158 120 287 267q-29 -14 -58 -25.5t-58 -21.5q-20 -7 -43.5 -14.5t-48 -11t-48 -1.5t-44.5 14q-23 12 -32 34t-7 45q-15 -17 -27.5 -35t-25.5 -35l-19 -31q-5 -8 -9.5 -18.5t-12.5 -13.5q-7 -4 -13 -2 t-9.5 7t-4 11.5t4.5 11.5zM540 562q15 0 18 -9.5t-3 -21t-18 -20.5t-27 -9t-17.5 9.5t3.5 21t18 20.5t26 9z"/>
<glyph glyph-name="aogonek" unicode="ą" horiz-adv-x="440" d="M-1 85q12 6 30.5 15.5t39.5 18.5t40.5 17t32.5 13q7 3 25 9t38 11t37.5 7t25.5 -3q12 -11 4.5 -20t-18.5 -11l-45 -5q-14 -4 -23.5 -9.5t-21.5 -13.5q-5 -4 -17.5 -16.5t-24.5 -27t-19 -28t0 -19.5q6 -5 19.5 -2t27.5 9t26 12.5t16 9.5q29 18 47 38q9 10 19.5 2.5 t6.5 -20.5q-2 -7 -7 -12l-9.5 -9.5t-7.5 -12.5q-4 -7 -2 -10.5t7 -4.5q14 -2 35 2t43.5 11t44.5 16.5t38 17.5q4 1 11 5.5t14.5 7.5t14.5 3t10 -6q4 -6 -0.5 -11t-12.5 -8.5t-16 -6.5t-12 -5q-17 -8 -34 -15.5t-35 -15.5q-11 -5 -23.5 -10.5t-26.5 -10.5q-13 -7 -25.5 -13.5 t-25.5 -14.5q-4 -2 -18 -11.5t-28.5 -21.5t-24.5 -23t-5 -17q8 -9 20.5 -8.5t25.5 5.5t25 12.5t18 12.5q4 4 9.5 8.5t11 7t11 1.5t10.5 -8q4 -8 2.5 -13.5t-6.5 -9t-11 -6.5t-11 -5q-12 -5 -26.5 -12.5t-30 -13.5t-31.5 -8t-29 3q-16 6 -20.5 17t-2 23t10.5 23.5t17 19.5 q17 13 34.5 24t35.5 21q-17 7 -20 19.5t1 26.5l-27 -16q-17 -10 -35.5 -20.5t-38.5 -12.5q-18 -1 -32 8t-15 28q0 10 8 25.5t20.5 32t27.5 30.5t28 21q-7 -2 -22.5 -9t-35 -17t-41 -20.5t-39.5 -19.5q-5 -3 -10 -1.5t-7.5 5t-2 8t6.5 7.5z"/>
<glyph glyph-name="lcaron" unicode="ľ" horiz-adv-x="294" d="M0 86q31 14 60 31t58 37q14 28 31 54t33 51q17 23 34 46.5t35 46.5q15 20 32.5 40.5t40.5 33.5q11 6 27 8.5t22 -14.5q4 -11 0.5 -21.5t-10.5 -21t-15 -20t-13 -16.5q-40 -57 -89.5 -106.5t-106.5 -91.5q-5 -12 -11.5 -25.5t-11.5 -28.5t-7 -29.5t1 -27.5q11 2 20 3 q8 1 15 1.5t9 1.5q30 6 59 16t57 22q8 2 19 8t19 1q11 -8 3 -14.5t-15 -9.5l-116 -43q-17 -6 -33 -12.5t-33 -7.5q-15 -2 -24 4.5t-12.5 17t-2.5 23t4 23.5q7 24 18 48q-41 -27 -86 -49q-10 -2 -16.5 6.5t5.5 14.5zM203 223q47 44 86 95q18 21 34 48q2 5 6 12.5t7 15.5 q-14 -7 -26.5 -19t-20.5 -20q-23 -23 -43 -48.5t-40 -52.5q-11 -16 -21 -31.5t-19 -31.5q9 7 18.5 15.5t18.5 16.5zM302 261q23 17 43.5 37.5t34.5 46.5q5 10 9.5 23.5t18.5 13.5q10 -1 14.5 -9.5t-0.5 -17.5q-8 -23 -28 -43.5t-37 -34.5q-9 -8 -19.5 -19t-21.5 -16 q-5 -4 -9.5 -3t-7 5t-2.5 9t5 8z"/>
<glyph glyph-name="sacute" unicode="ś" horiz-adv-x="316" d="M-2 85q7 4 25.5 14.5t41 21.5t45.5 20.5t40 10.5q6 2 12.5 -0.5t9.5 -6.5q6 -10 1 -15.5t-13 -9.5t-17.5 -6.5t-12.5 -6.5q-5 -6 2.5 -11t18.5 -8t22 -5.5t14 -4.5q20 -11 23.5 -23.5t-4.5 -25.5l27 14l80 42q7 4 12.5 0.5t5.5 -11.5t-8.5 -11.5t-15.5 -6.5 q-24 -11 -48.5 -23.5t-48.5 -25.5q-29 -14 -55.5 -25t-54.5 -11q-20 0 -35.5 14t-15.5 32q-1 9 4 14.5t12 7t12.5 -2.5t6.5 -13q2 -20 17.5 -23.5t36.5 1.5q14 5 25.5 12.5t16.5 14.5q13 14 7 22t-20.5 13t-30.5 8.5t-22 8.5q-9 8 -10.5 16t0.5 16q-15 -6 -29.5 -12.5 t-26.5 -11.5q-9 -5 -21.5 -14.5t-22.5 -9.5q-5 -1 -8.5 1.5t-4 6t1 7.5t5.5 6zM339 342q-7 -15 -28 -23.5t-37 -13.5q-14 -5 -27 -8.5t-27 -7.5q-4 -1 -10.5 -3.5t-14 -4.5t-14.5 -2.5t-11 2.5q-8 8 1 15t24 12t30 8t18 5q7 3 17 7t19.5 9t17.5 10t10 10q3 8 10 9.5t13 -1 t9.5 -9t-0.5 -14.5z"/>
<glyph glyph-name="scedilla" unicode="ş" horiz-adv-x="316" d="M-2 85q7 4 25.5 14.5t41 21.5t45.5 20.5t40 10.5q6 2 12.5 -0.5t9.5 -6.5q6 -10 1 -15.5t-13 -9.5t-17.5 -6.5t-12.5 -6.5q-5 -6 2.5 -11t18.5 -8t22 -5.5t14 -4.5q20 -11 23.5 -23.5t-4.5 -25.5l27 14l80 42q7 4 12.5 0.5t5.5 -11.5t-8.5 -11.5t-15.5 -6.5 q-24 -11 -48.5 -23.5t-48.5 -25.5q-24 -11 -47 -21t-46 -14l-26 -32q21 -5 41.5 -15t22.5 -28q1 -9 -3 -16.5t-11 -13t-14.5 -9.5t-14.5 -7q-35 -13 -72 -18.5t-73 -10.5q-13 -2 -19 10t3 20q8 8 23.5 6.5t25.5 -0.5q13 0 31.5 1t37 4t34.5 9t26 17q5 6 -5 10t-25 7 t-28.5 4.5t-15.5 1.5q-12 5 -12.5 12t4 14.5t12 14t12.5 10.5l12 11q-14 5 -24 17t-10 26q-1 9 4 14.5t12 7t12.5 -2.5t6.5 -13q2 -20 17.5 -23.5t36.5 1.5q14 5 25.5 12.5t16.5 14.5q13 14 7 22t-20.5 13t-30.5 8.5t-22 8.5q-9 8 -10.5 16t0.5 16q-15 -6 -29.5 -12.5 t-26.5 -11.5q-9 -5 -21.5 -14.5t-22.5 -9.5q-5 -1 -8.5 1.5t-4 6t1 7.5t5.5 6z"/>
<glyph glyph-name="tcaron" unicode="ť" horiz-adv-x="298" d="M89 209q18 -1 36 -0.5t36 2.5q28 43 60.5 89.5t73.5 78.5q8 5 16.5 10t17.5 6q10 0 15 -8t2 -17q-5 -20 -22 -38.5t-29 -33.5q-15 -20 -31.5 -39t-33.5 -37l59 14l99 30q7 3 14.5 4.5t13.5 -6.5t3 -16.5t-11 -11.5q-46 -16 -96 -25t-98 -15l-14 -3q-12 -11 -25 -22 t-27 -22q-7 -10 -12 -20.5t-10 -21.5q-2 -3 -6 -15t-7.5 -24.5t-5.5 -23t1 -10.5q21 -5 45.5 2.5t42.5 12.5l46 16t46 18q6 2 15.5 3t8.5 -12q-1 -9 -12.5 -12.5t-18.5 -6.5l-71 -26q-12 -5 -33.5 -14t-43 -14.5t-39 -1.5t-21.5 27q-2 23 8.5 45.5t24.5 48.5 q-46 -31 -96 -55q-6 -3 -10 -1t-6 6t-0.5 8.5t6.5 7.5q35 16 67.5 35t63.5 42l14 24q-15 -1 -33 -4t-29 3q-8 5 -5.5 14t11.5 9zM346 300q23 17 43.5 37.5t34.5 46.5q5 10 9.5 23.5t18.5 13.5q10 -1 14.5 -9.5t-0.5 -17.5q-8 -23 -28 -43.5t-37 -34.5q-9 -8 -19.5 -19 t-21.5 -16q-5 -4 -9.5 -3t-7 5t-2.5 9t5 8zM270 304q5 7 9.5 15t9.5 16q-10 -10 -18.5 -20t-14.5 -16q-18 -20 -35 -40.5t-31 -43.5q45 41 80 89z"/>
<glyph glyph-name="zacute" unicode="ź" horiz-adv-x="439" d="M-2 85q20 10 41.5 22.5t44 23.5t45 19t45.5 10q8 0 14 -2t10 -9q1 -4 0 -8t-2.5 -7t-2.5 -5.5t1 -3.5q7 -4 14.5 -4t13.5 1q32 4 62 19.5t56 34.5q10 4 16 1t7.5 -9.5t-1.5 -14.5t-10 -13q-16 -10 -32.5 -18.5t-32.5 -17.5q-37 -20 -75 -39t-75 -42q21 3 42 3 q16 0 32.5 -1.5t33.5 -6.5l15 -6t14 -4q6 -2 13.5 0t13.5 4q47 15 88 40q4 2 14.5 10.5t22.5 16t22 11.5t15 -2q4 -5 1.5 -10t-7.5 -9.5t-11 -8t-9 -5.5q-27 -17 -54 -34.5t-55 -31.5q-18 -10 -31 -13t-25 -1.5t-24.5 7t-29.5 12.5q-20 8 -41 9t-41 -4q-11 -3 -21 -6.5 t-19 -6.5q-11 -5 -22 -13t-22 -10q-11 -3 -16.5 6.5t-3.5 18.5q6 12 20 19t25 12q36 19 72 38.5t71 39.5q-18 0 -35 6t-22 22q-23 -1 -49 -11.5t-46 -18.5q-15 -8 -29.5 -15t-28.5 -15q-6 -3 -10.5 -1.5t-7 5.5t-1.5 8.5t7 7.5zM420 356q-7 -15 -28 -23.5t-37 -13.5 q-14 -5 -27 -8.5t-27 -7.5q-4 -1 -10.5 -3.5t-14 -4.5t-14.5 -2.5t-11 2.5q-8 8 1 15t24 12t30 8t18 5q7 3 17 7t19.5 9t17.5 10t10 10q3 8 10 9.5t13 -1t9.5 -9t-0.5 -14.5z"/>
<glyph glyph-name="zdotaccent" unicode="ż" horiz-adv-x="439" d="M-2 85q20 10 41.5 22.5t44 23.5t45 19t45.5 10q8 0 14 -2t10 -9q1 -4 0 -8t-2.5 -7t-2.5 -5.5t1 -3.5q7 -4 14.5 -4t13.5 1q32 4 62 19.5t56 34.5q10 4 16 1t7.5 -9.5t-1.5 -14.5t-10 -13q-16 -10 -32.5 -18.5t-32.5 -17.5q-37 -20 -75 -39t-75 -42q21 3 42 3 q16 0 32.5 -1.5t33.5 -6.5l15 -6t14 -4q6 -2 13.5 0t13.5 4q47 15 88 40q4 2 14.5 10.5t22.5 16t22 11.5t15 -2q4 -5 1.5 -10t-7.5 -9.5t-11 -8t-9 -5.5q-27 -17 -54 -34.5t-55 -31.5q-18 -10 -31 -13t-25 -1.5t-24.5 7t-29.5 12.5q-20 8 -41 9t-41 -4q-11 -3 -21 -6.5 t-19 -6.5q-11 -5 -22 -13t-22 -10q-11 -3 -16.5 6.5t-3.5 18.5q6 12 20 19t25 12q36 19 72 38.5t71 39.5q-18 0 -35 6t-22 22q-23 -1 -49 -11.5t-46 -18.5q-15 -8 -29.5 -15t-28.5 -15q-6 -3 -10.5 -1.5t-7 5.5t-1.5 8.5t7 7.5zM360 360q15 0 18 -9.5t-3 -21t-18 -20.5 t-27 -9t-17.5 9.5t3.5 21t18 20.5t26 9z"/>
</font>
</defs>
</svg>
